<svg id="Layer_1" data-name="Layer 1" xmlns="http://www.w3.org/2000/svg" viewBox="0 0 489.47496 453.84754"><defs><style>.cls-1{fill:#fff;}.cls-2{fill:#89b88a;stroke:#89b88a;stroke-miterlimit:10;}.cls-3{fill:#8cc7ac;}.cls-4{fill:#a74049;}.cls-5{fill:#4a7e65;}.cls-6{fill:#b990a5;}</style></defs><title>Bulbasaur</title><path class="cls-1" d="M107.252,430.28272,91.65063,447.22653s-4.40134-12.18852-1.6003-20.65966S107.252,430.28272,107.252,430.28272Z" transform="translate(-5.02504 -15.17787)"/><path class="cls-1" d="M108.84526,432.46693s-5.5345,13.05865-3.98517,21.248c0,0,13.05864-5.75466,16.37864-17.04264S108.84526,432.46693,108.84526,432.46693Z" transform="translate(-5.02504 -15.17787)"/><path class="cls-1" d="M126.34739,440.17537l-4.648,15.49331a19.30524,19.30524,0,0,0,12.616-11.288C138.078,435.08471,126.34739,440.17537,126.34739,440.17537Z" transform="translate(-5.02504 -15.17787)"/><path class="cls-1" d="M261.88739,444.83616c-3.76266,9.296-28.77329,10.84532-28.77329,10.84532.664-11.06665,11.50931-21.4693,12.17331-21.69064Z" transform="translate(-5.02504 -15.17787)"/><path class="cls-1" d="M259.63981,449.54811c-.44266.664-5.75466,11.952-3.76266,19.4773,0,0,18.8133-9.73865,19.92-14.82931S259.63981,449.54811,259.63981,449.54811Z" transform="translate(-5.02504 -15.17787)"/><path class="cls-1" d="M283.54377,450.87611s-4.42666,9.07465,0,16.1573c0,0,8.41065-4.44609,10.84532-17.495S283.54377,450.87611,283.54377,450.87611Z" transform="translate(-5.02504 -15.17787)"/><path class="cls-1" d="M378.053,433.61214a26.51145,26.51145,0,0,0-6.86132,18.592s13.944-3.76266,21.912-14.82931S378.053,433.61214,378.053,433.61214Z" transform="translate(-5.02504 -15.17787)"/><path class="cls-1" d="M396.42359,436.48946s-.88534,15.92626,4.42665,22.79244a47.31569,47.31569,0,0,0,8.18932-21.02177C410.5889,425.86548,396.42359,436.48946,396.42359,436.48946Z" transform="translate(-5.02504 -15.17787)"/><path class="cls-1" d="M417.67155,439.14546s1.54933,15.255,8.85332,22.7888c0,0,8.18932-16.81281,9.07465-26.10879S417.67155,439.14546,417.67155,439.14546Z" transform="translate(-5.02504 -15.17787)"/><path class="cls-2" d="M177.21567,112.94167S189.49443,61.862,258.04755,52.4754a41.05952,41.05952,0,0,1,9.88354-.1838c21.34751,2.25763,117.10036,9.78532,121.7022-36.23309,0,0,10.36184-4.66283,17.097,18.6513,0,0,15.02466-19.1694,31.08551-11.398,0,0-9.32566,19.1694-7.77138,26.94077l8.37432-4.64053a16.97643,16.97643,0,0,1,9.97836-2.037l4.44336.46046s-23.31413,30.56742-4.66283,68.90621c0,0,103.10026,143.51141,0,199.98342,0,0-15.02466-34.71215-56.99009-60.61674,0,0-69.94239-49.21872-79.268-69.94239L292.232,109.315s-32.90544-8.47715-57.25575,13.28271C234.97629,122.59773,233.68767,119.15877,177.21567,112.94167Z" transform="translate(-5.02504 -15.17787)"/><path id="Main_body" data-name="Main body" class="cls-3" d="M434.30781,282.72523a124.63067,124.63067,0,0,0-32.56042-30.06681c-32.48378-20.43482-87.63861-72.608-87.63861-72.608l-20.76745-77.231c-17.5235-13.62908-60.395,14.61967-60.395,14.61967l-3.81732-1.364c-41.6671-15.07138-108.74781-8.56942-108.74781-8.56942C99.39929,87.41051,73.39427,93.025,73.39427,93.025c-28.36853,33.68839-24.8222,59.39805-24.8222,59.39805C11.92806,194.38552-.483,259.39807,7.20032,280.89124S62.756,327.957,62.756,327.957,72.80357,439.6611,119.49447,447.63982s62.94368-54.37426,62.94368-54.37426a134.0064,134.0064,0,0,0,24.946,5.62363c0,.00141-1.26228,23.74488,29.68145,27.28277-1.5288,10.279,1.77633,20.94958,9.57291,27.82073,8.7178,7.68337,23.86231,12.55949,49.572,1.33049,20.714-9.04761,36.625-27.54436,48.24993-46.40679l-.03445.064s1.26016,8.39854,16.57345,3.55055l-.00352-.057a44.75914,44.75914,0,0,0,6.433,17.4349c17.73024,26.89107,68.26353,17.731,68.26353,17.731C503.95035,394.05316,462.77128,320.02816,434.30781,282.72523Zm-207.588,117.6365h0ZM355.804,387.91055c.01829-.038.03727-.07665.05485-.11463l-.01055.03305Zm4.30018,9.36195.00422-.00844-.0014.06047Z" transform="translate(-5.02504 -15.17787)"/><path class="cls-1" d="M230.41981,190.06218s-35.59889,22.85064-39.68795,66.86819v14.19144s-3.36747,8.65919,15.39411,8.41866,61.09539.96213,68.07085-18.28051C274.19682,261.26,273.23468,185.49206,230.41981,190.06218Z" transform="translate(-5.02504 -15.17787)"/><path class="cls-4" d="M241.66947,190.84015c-2.20436-.49143-5.96758,3.44025-5.96758,3.44025s-15.2637,14.765-15.63425,42.7111c-.505,38.08482,12.45,41.84954,12.45,41.84954a98.983,98.983,0,0,0,21.34568-2.65644c9.61784-2.45024,18.71743-7.36829,20.33345-11.81233C277.45086,255.42365,270.81133,197.33694,241.66947,190.84015Z" transform="translate(-5.02504 -15.17787)"/><path class="cls-1" d="M244.91845,212.25365a2.70159,2.70159,0,0,0-2.70484.83218c-1.94711,2.10932-5.15893,7.76673-4.48819,21.85211.5883,12.35435,3.87209,17.715,6.28794,20.00624a4.82422,4.82422,0,0,0,5.34.90145c2.47987-1.1567,5.80838-4.07288,6.04493-11.40612C255.76535,233.0623,256.664,215.6603,244.91845,212.25365Z" transform="translate(-5.02504 -15.17787)"/><path class="cls-1" d="M18.20891,254.17166s10.04329,19.417,37.495,16.73882c0,0,7.36508-67.95962-2.00866-88.381,0,0-10.04329,0-22.76479,18.07793S18.20891,254.17166,18.20891,254.17166Z" transform="translate(-5.02504 -15.17787)"/><path class="cls-4" d="M56.03321,190.02068s-30.91642,13.14807-14.78594,80.1618l1.36587.284,1.88893.298,2.3477.25154,2.16919.12216,2.30013.02081,1.98912-.06746,2.39566-.181.377-3.13427.66258-8.24532,1.711-14.3982V230.46558l-.08028-16.14.05274-5.12792a37.83049,37.83049,0,0,0-.32265-5.33447l-.83039-6.2975-.47858-3.47608-.35378-2.42757Z" transform="translate(-5.02504 -15.17787)"/><path class="cls-1" d="M57.11886,256.37178c-5.92681-.77984-9.17384-6.74155-9.17384-23.27423s10.42911-18.772,10.42911-18.772l.21376,7.50584-.13348,23.30127-.551,4.71991Z" transform="translate(-5.02504 -15.17787)"/><path class="cls-5" d="M143.07317,200.482c9.70518,17.25364,0,44.42971,0,44.42971-20.54277-2.38869-32.48624-19.10955-32.48624-19.10955S138.77353,192.83814,143.07317,200.482Z" transform="translate(-5.02504 -15.17787)"/><path class="cls-5" d="M98.16572,175.1618v20.54277s-7.16608,7.73254-14.33216,3.6274C83.83356,199.332,74.75652,176.595,98.16572,175.1618Z" transform="translate(-5.02504 -15.17787)"/><path class="cls-5" d="M107.7205,157.48546s15.76538,22.93147,31.053,21.49825c12.663-1.18716,45.17943-30.78109,55.00675-40.6078,1.44023-1.44014-.0591-8.81835-2.06166-9.18989C179.23911,126.87065,141.03545,129.20649,107.7205,157.48546Z" transform="translate(-5.02504 -15.17787)"/><path class="cls-5" d="M77.76414,383.76974c5.03116-6.55636,18.53555-22.06391,32.3618-20.03064,0,0,16.44171,21.06595-2.569,39.306,0,0-8.47776,9.24846-24.14877,4.88113a84.74785,84.74785,0,0,1-6.91573-17.86315A7.33758,7.33758,0,0,1,77.76414,383.76974Z" transform="translate(-5.02504 -15.17787)"/><path class="cls-5" d="M242.00333,420.08529s14.04363,19.18155,29.45738,0c0,0,4.79538-21.23671,12.331-32.19759,0,0,10.14879-11.95255-10.61836-15.41374-2.05516-.34253-33.22517,11.30341-31.17,45.89869" transform="translate(-5.02504 -15.17787)"/><path class="cls-5" d="M290.73858,363.9386s2.69021,16.00656,18.48518,9.73486a4.72929,4.72929,0,0,0,2.96333-4.079c.352-5.478-.08715-17.24861-9.64211-21.46647a1.899,1.899,0,0,0-1.58136.04707C298.21917,349.49438,289.51668,354.46294,290.73858,363.9386Z" transform="translate(-5.02504 -15.17787)"/><path class="cls-5" d="M382.52778,355.49679a11.3386,11.3386,0,0,0-.9096,12.30618c5.06553,9.04015,15.377,24.8555,26.21953,26.351,15.26631,2.1057,16.84558-16.3,16.84558-16.3V337.3111a3.39415,3.39415,0,0,0-2.7704-3.36239C415.61326,332.82639,399.44435,332.77843,382.52778,355.49679Z" transform="translate(-5.02504 -15.17787)"/><path class="cls-5" d="M352.35667,222.94459s-21.90332-.40491-10.322,18.01994c8.686,13.81864,17.66812,34.44789,21.6163,43.89885a8.24142,8.24142,0,0,0,7.613,5.0791c12.11666-.01641,39.96214-.41331,40.78518-3.70546,1.05285-4.2114,0-18.69906,0-18.69906Z" transform="translate(-5.02504 -15.17787)"/><path class="cls-6" d="M244.83165,303.685c-36.936,33.80585-69.8028,35.37093-69.8028,35.37093C99.27872,350.95059,51.70012,303.685,51.70012,303.685l-6.88637-8.13844s28.79757,18.468,104.23468,15.96387S244.83165,303.685,244.83165,303.685Z" transform="translate(-5.02504 -15.17787)"/><path class="cls-1" d="M212.657,307.92009l14.198-1.44881s-.88759,8.8229-4.64336,11.78988C222.21163,318.26116,213.43438,312.39354,212.657,307.92009Z" transform="translate(-5.02504 -15.17787)"/></svg>