<?xml version="1.0" encoding="utf-8"?>
<!-- Generator: Adobe Illustrator 22.1.0, SVG Export Plug-In . SVG Version: 6.00 Build 0)  -->
<svg version="1.1" id="Layer_1" xmlns="http://www.w3.org/2000/svg" xmlns:xlink="http://www.w3.org/1999/xlink" x="0px" y="0px"
	 viewBox="0 0 435 405" style="enable-background:new 0 0 435 405;" xml:space="preserve">
<style type="text/css">
	.st0{fill:#FFFFFF;}
	.st1{fill:#000101;}
	.st2{fill:#010101;}
	.st3{fill:#5B9DB7;}
	.st4{fill:#5F567B;}
	.st5{fill:#D45F55;}
	.st6{fill:#F0F4FA;}
</style>
<path class="st0" d="M190,173.1c0,0,44.1-116.5,168.3-151.7c10.6-3,21.6-1,32.1,2.2c21.3,6.5,49,23.9,40.9,80.5l-47.6,173.3
	c0,0-15.1,43.9-50.5,46.8c0,0,12.9,52.2-38.1,67c0,0-29.1-1.5-49.6-18l-44.1-80.6C201.5,292.6,159.8,220.1,190,173.1z"/>
<path class="st1" d="M221.3,310.7l-0.5-1C220.8,309.7,221,310,221.3,310.7z"/>
<path class="st0" d="M125.1,164.4c0,0-14.3-74.2-81.9-117.8c0,0-28.8-9.3-39.1,36.4s1.2,77.7,26.5,138.4s36.6,104.7,92.7,97.6
	c0,0-11.8,14.4-8.5,30.9c5.3,26.9,23,39.3,31.1,43.6c2.7,1.5,5.6,2.4,8.7,2.8c7.4,1.1,22,1.4,27.1-10.7l2.8-44.8
	c0,0-5.6-42.9-5.4-42.8c0.2,0.1-13.5-74.2-13.5-74.2L125.1,164.4z"/>
<path class="st2" d="M120.6,324.9c-1.1,2.4-1.4,5.2-0.8,7.8c2.1,10,9.4,35.2,29.7,47.2c14.8,8.8,29,0.5,29,0.5l6.3-1.2l-2.9,7.3
	l-1.8,3.2l-2.7,3l-3.2,2.2l-3.3,1.5l-5.4,1.2h-4.2h-5.6l-5.5-1.1l-4.8-2l-4.8-3l-4.9-3.7l-4.9-4.5l-4.6-5.3l-3.4-4.9l-3.6-6.6
	l-2.5-6.1l-2.2-7.3l-1.4-7.2l-0.8-6c-0.1-1.2-0.2-2.4-0.3-3.6l-0.1-2c0-1,0-1.9,0.1-2.8l0.2-2.2c0.1-1.4,0.4-2.8,0.8-4.2l0,0
	c0.3-1,0.7-1.9,1.3-2.8l2.4-3.5l6.6,0.3L120.6,324.9z"/>
<path class="st1" d="M56.9,282h10.4c0,0,14-14.5,51.4-17.8l8.7,2.4c0,0-26.4-2-58.8,18.7l-1.2,12.8l-3.5-4.7l-3.4-5.2l-2.3-3.9
	L56.9,282z"/>
<path class="st1" d="M24,205.3l8.4,4.4c0,0,37.5-0.6,52,6.5l-0.8,5.2c0,0-12.6-9.2-50.8-8l-1.6,9.7l-2.4-5l-1.9-5.3l-2.3-5.4
	L24,205.3z"/>
<path class="st1" d="M3.4,143.9c0,0,9.6,8.1,12.4,11.2c0,0,50.4,5.7,79.7,31.1l-2.1,3.2c0,0-33.8-27.6-77.1-29.1l-4.6,13.2l-2.4-4.9
	l-1.6-5.6l-1.3-4.5l-1.1-3.5L4.7,152l-0.9-3.7L3.4,143.9z"/>
<path class="st1" d="M59.4,113.1c13.3-4.8,28.3,14.9,28.3,14.9s17.1,20.6,23,43.5l3.4-2.1c-2.3-13.4-13.2-31.3-13.2-31.3
	C82,105,62,101.4,62,101.4c-29.7-5-22,33.1-22,33.1l0,0C26.9,125.3,5.3,119,5.3,119l-5-5.8l0,2.7v2.8v3.3l0,2.7l0.6,3.4l2.4,1
	l2.5-4.4c13.1-0.8,37.5,18.3,37.5,18.3s19.1,26.9,52,43.2l1.7-2.3c-28.3-18.6-39.4-30.1-43.6-36.8C53.5,146.4,46.3,117.9,59.4,113.1
	z"/>
<path class="st1" d="M2.3,91.8l8.8-4.8L6.3,74.8l-0.8,3.6c0,0-1.1,3.6-1.3,4.1c-0.1,0.5-0.6,2.7-0.6,3.1c0,0.4-0.8,2.5-0.8,2.8
	C2.7,88.8,2.3,91.8,2.3,91.8z"/>
<path class="st1" d="M9.6,83.3c0,0,26.4,14.6,34.5,23.2s-2.5,4.2-2.5,4.2s-16.9-14.3-32-22.8l-3.5-3.5L9.6,83.3z"/>
<path class="st1" d="M53.2,101.3c0,0-31.5-25-45.3-30.9l-1.5,4.4c0,0,31.6,17.8,41.8,28.3l1.3,2.4l5.1-0.6L53.2,101.3z"/>
<path class="st1" d="M434.9,82.5l-0.3-5.4l-0.4-4l-0.6-3.9l-1-4.7l-1.3-4.6l-1.5-4.1l-2-4.3l-3.3-5.8l-3.4-4.6l-3.4-3.8l-3.6-3.4
	l-3.7-2.9l-3.4-2.3l-4.2-2.4l-4.6-2.2l-5.2-2l-5.2-1.6l-4.4-0.9l-4.4-0.5l-5.1-0.2l-3.9,0.2l-3.9,0.4l-3.1,0.5l-3.2,0.7l-3.5,1
	c0,0,28.2-1.3,30.2,21.2c0.2,2.3,0.7,4.6,1.5,6.8l0.7,2c-4.4,0-61.4,33.3-61.4,33.3l0.1,0.1c-1.7-1.2-3.5-2.1-5.3-2.9l0.1,0
	l64.6-37.3l-0.3-2l-68,38l0,0c-8.7-2.5-16.9-1.5-16.9-1.5c-67.2,12.7-101.3,102.6-101.3,102.6l2.7,3.3c10.5-27.8,30.3-51.9,43.5-66
	c10.4-11.1,23.4-19.4,38-23.5c7.8-2.2,16.1-3.3,22.6-1.2c7.3,2.3,10.1,7.7,11,13.1c1.3,8.1-1.8,16.3-7.8,22
	c-6.5,6.3-17.6,15.9-31,23.7c-12.7,7.4-32.4,20.3-47.5,30.3h0v0c-12.3,8.2-21.5,14.5-21.5,14.5l2.1,6.8c0,0,4.8-4.3,13.4-11
	c0.1,0,74.3-42.8,156.6-38.2c6.7,3.6,19.6,13.9,12.7,38.7c-5.3,19.2-15.1,25.5-22.3,27.5c-110.2-12.6-160.2-0.3-160.2-0.3l-1.1,3.8
	c0,0,69.4-9.5,156.7,0c6.9,5.6,18.6,19.4,8.6,42.7c-9.3,21.9-24,23.9-32.3,23c-62.2-28.8-148.7-43-148.7-43l-14.2,1.2
	c0,0-7.2,3.4,22.5,5.3c29.8,1.9,137.4,39.8,137.4,39.8l0,0c3.4,6.5,5.6,18.4-17.2,26.1c0,0-3.2,0.9-6.7,1.6l0,0
	c0,0-54.2-0.2-92.6-39.9c-38.4-39.7-16.4,16.8-15.1,16.5c1.3-0.3,15.8-6.8,15.8-6.8s21.8,17.4,51.4,27.3l4.9,4.4
	c6.8,14.6-3.1,20.1-3.1,20.1c-11.1,2.7-19-0.3-20.3-0.8c-28.3-18.2-35.2-39.4-35.2-39.4l-3.5,5.3c2.6,4.5,15.7,25.2,35.2,38.4l0,0
	c0,0,7.5,12.7,6,27.1c-8.1-4.3-14.7-9.8-18.1-13.5l-2.9,8.9l7,5l1.8,2.2l2,2.2l1.5,1.6l3.5,3.1l2.7,2l2.7,1.8l3.1,1.7l2.6,1.2l3,1.2
	l2.7,0.9l4.9,1.2l2.7,0.5l3.6,0.4h4.4h4.1l4.4-1.2l5.1-1.9l5.1-2.4l5.8-3.6l4.4-3.4l4.2-4.1l3.7-4.6l3.8-6.1l2.3-4.9l2.3-6.6
	l1.6-6.7l0.8-5.4l0.4-5.4l0-5.6l-0.2-3.6l-0.4-3.2l4.5-0.6l5.8-1.5l5.4-2.2l6.2-3.7l3.9-3l3.2-2.9l3.5-3.7l3.3-4l3-4.1l2.5-3.8
	l2.5-4.2l2.1-4l2.3-4.9l2.9-8.3l5.4-20.1l18.9-69.5l16.5-60.9l5.8-21.4l0.7-5.7l0.4-4.9l0.3-4.7L434.9,82.5z M266.5,377.6
	c0-0.1-0.2-17-5.7-28.1l0.7-1.4c2,0.4,8.2,1.5,14.8,0.4l0,0c0,0,6.6,23.2,14.6,32C282.8,382.5,274.2,380.8,266.5,377.6z
	 M310.5,364.6c-4.5,7.5-9.9,12.1-15.6,14.5L279,347.9c12-2.4,9.5-18,9.5-18l27,24.2l0,0l0.3,0.2
	C314.5,357.5,312.8,360.9,310.5,364.6z M317.9,348.7l-32-26.3c9.2,2.4,18.9,3.9,28.8,3.9C318.1,329.6,321.8,336.3,317.9,348.7z
	 M409.5,138.7c-7.1,6.2-13.1,10-17.8,12.3c-0.8,0-97.1-2.9-144.8,28c11-7.5,24.2-15.7,39.1-23.7c36.8-19.5,48-34.4,50.8-38.8
	c0,0,64.5-18.2,73.8-16.7l0.2,0C415.6,106.9,425.1,125,409.5,138.7z M408.6,96.8C408.6,96.8,408.6,96.8,408.6,96.8L408.6,96.8
	L408.6,96.8c-0.2,0-0.5,0-0.7,0c-34.7,2.3-70.1,15.9-70.1,15.9l0,0.1c1.1-13.1-2.8-21.2-8.5-26l0,0c2.2-2.2,60-33,60-33
	S439.9,52,408.6,96.8z"/>
<path class="st2" d="M387.5,43l-1,0.2l-0.6,0.4c0,0,0,1,0,1c0,0,0.4,0.9,0.4,0.9l2-1.2l0.2-1.2L387.5,43z"/>
<path d="M115.5,320.4c0,0-34.2,7-55.5-31.8s-27-59.5-27-59.5L23,204l-11.8-30.4l-3.4-10.7l-2.9-8l-1.5-6.5l-1.4-10l-1.1-7.5
	l-0.6-6.2L0,120.5v-7.4l0.3-6.5l0.6-6.7l1.3-8.5l1.1-6l1.4-6.3l2.5-7.7c0.2-0.6,0.4-1.2,0.7-1.8l1.9-4.5l3.1-5.2l3.2-4.2l3.2-3.1
	l3-2.4l4.2-2.2c0.6-0.3,1.2-0.5,1.8-0.7l2.5-0.7c0.6-0.2,1.3-0.3,2-0.4l3.7-0.4c0.4,0,0.7-0.1,1.1,0l2,0.1c0.6,0,1.1,0.1,1.6,0.3
	l1.1,0.3c0.6,0.2,1.2,0.4,1.7,0.7l2.1,1.4c0.1,0.1,0.3,0.2,0.4,0.3l2.6,1.9c0,0-8.3-2.2-12.5-2.1c-3.1,0.1-7,1-11.1,3.6
	c-9.7,6.3-15.3,19.3-15.3,19.3s-8.9,18.2-7.8,44s3.2,34.3,3.2,34.3l9,26.7l12.9,31.7L43,249c1.2,3.1,2.6,6.2,4.1,9.1l18.4,34.7
	c0,0,13.7,29.5,51.2,26L115.5,320.4z"/>
<path class="st3" d="M205.2,320.2c0,0-1.9,69.4,33.4,78.8c0,0,14.3,0,4.5-37.5c-9.8-37.5-27.5-51.8-27.5-51.8
	S210.8,320.2,205.2,320.2z"/>
<path class="st3" d="M188.6,324.2c0,0,19.7,16.1,16.1,68.8c0,0-7.2,23.3-26.5-13.3c0,0-6.8-29-6.1-55.6
	C172.1,324.2,179.6,327.1,188.6,324.2z"/>
<path class="st2" d="M144.9,160.2c0,0-0.2-35,20.6-64.9c17.9-25.7,28.4-41.9,31-46c0.4-0.7,0.8-1.4,1.1-2.1v0c1.3-3.3,3-6.5,5.2-9.4
	c4.2-5.5,11.4-13.1,18.2-11c4.7,1.4,5.5,5.2,5,8.8c-0.7,4.9-3.6,9.2-7.6,12c-4.6,3.3-11.9,8.3-17.5,11.4c-2.2,1.2-4.1,2.8-5.7,4.6
	C184.6,76,148,121.3,151,160.2l-3.8,9.5l-6.2-2.9L144.9,160.2z"/>
<path class="st2" d="M113.8,169.7c0,0-19.5-58.9-12.9-122.5c0,0,2.1-13.5,5.8-21.5c2.3-4.9,2.7-10.7,0.7-15.7
	c-1.3-3.1-3.3-5.3-6.5-4c-7.7,3.1-10.7,16.6-8.4,42.6c0.1,1.5,0.1,2.9,0.1,4.4c-0.6,9.9-1.9,54.7,18,118.7l3.2,5.3V169.7z"/>
<path class="st4" d="M141.6,309.4c0,0,20,23.4,41.9,20.3c19.7-2.7,29.7-11.2,29.7-11.2s18.6-12.9,10.7-40.5
	c-7.9-27.6-32.1-26-32.1-26s35.9-24.1,15.2-60s-65.4-31.4-65.4-31.4s-40.3,3.5-52.7,38.8s-1,51.5,14.6,59.1
	c15.6,7.6,34,10.5,34,10.5S122.8,294.4,141.6,309.4z"/>
<ellipse transform="matrix(0.866 -0.5 0.5 0.866 -79.7262 118.6517)" class="st5" cx="181.5" cy="208.1" rx="22.1" ry="33.5"/>
<ellipse class="st5" cx="100.9" cy="225" rx="17.8" ry="30.2"/>
<path class="st3" d="M130.2,283c-4.4,4.5-9.3,12.7,0.9,20.8c5,4,12.2,3.9,17-0.3l0.2-0.2L141,299c-0.7-0.4-0.7-1.5,0-1.9l8.9-5.2
	l-9.7-5.1c-0.6-0.3-0.8-1.2-0.4-1.7l5.1-6.6l-6.2,0.6C135.5,279.3,132.4,280.7,130.2,283z"/>
<path class="st3" d="M193.3,272.3c5.5,3.1,12.4,9.6,4.9,20.2c-3.7,5.2-10.6,7.1-16.5,4.4l-0.2-0.1l5.8-6.2c0.6-0.6,0.3-1.6-0.5-1.8
	l-11-3.8l8.9-6.3c0.5-0.5,0.5-1.3-0.1-1.8l-6.7-4.9l6.1-1.1C187.1,270.2,190.5,270.7,193.3,272.3z"/>
<path class="st6" d="M163.1,239.9c0,0,5.4,6,0,13c0,0-0.4-4.1-4.6-7.6C154.3,241.9,163.1,239.9,163.1,239.9z"/>
<path class="st6" d="M131.6,248.3c0,0-1.1,5.3,4.5,9.2c0,0-0.9-7.9,2.2-7.6c3.1,0.3,2.8-5.5,2.8-5.5h-7.9L131.6,248.3z"/>
<ellipse transform="matrix(0.988 -0.1548 0.1548 0.988 -35.2765 25.3036)" class="st3" cx="144.9" cy="239.2" rx="18.9" ry="10.9"/>
</svg>
