<?xml version="1.0" encoding="utf-8"?>
<!-- Generator: Adobe Illustrator 22.1.0, SVG Export Plug-In . SVG Version: 6.00 Build 0)  -->
<svg version="1.1" id="Layer_1" xmlns="http://www.w3.org/2000/svg" xmlns:xlink="http://www.w3.org/1999/xlink" x="0px" y="0px"
	 viewBox="0 0 500 402" style="enable-background:new 0 0 500 402;" xml:space="preserve">
<style type="text/css">
	.st0{fill:#FBFCFF;}
	.st1{fill:#DBDBDB;}
	.st2{fill:#0B6878;}
	.st3{fill:#DB8E53;}
	.st4{fill:#EC9F5E;}
	.st5{fill:#F4E5AD;}
	.st6{fill:#FFFFFF;}
	.st7{fill:#357184;}
	.st8{fill:#DD553B;}
	.st9{fill:#FBD961;}
</style>
<path class="st0" d="M138.5,375.5c0,0-7.1,11.4,1.3,26.1c0,0,8-5.5,10.1-16.7c2.1-11.2-4.1-11.9-4.1-11.9L138.5,375.5z"/>
<path class="st0" d="M155.8,379.9c0,0,2.5,11.7,13.9,17.1l3.2-22.7C163.5,371.3,155.8,379.9,155.8,379.9z"/>
<path class="st0" d="M121.3,372c0,0-5.9,9.8-0.5,23c0,0,10.5-7.1,11.5-19.6C133.3,362.9,121.3,372,121.3,372z"/>
<path class="st0" d="M364.6,388.1c0,0-9.4-12.3-17.1-13.5c-7.7-1.1,8.2-6.3,8.2-6.3S369.7,372.8,364.6,388.1z"/>
<path class="st0" d="M370.1,366.8c12.2,7.9,8.5,20.4,8.5,20.4c-7.1-11.8-19.4-14.1-19.4-14.1L370.1,366.8z"/>
<path class="st0" d="M369.6,369.2c0,0,19.5,5.5,20.9,12.8c0,0,1.3-13.3-11.1-17.2L369.6,369.2z"/>
<path class="st1" d="M121.3,226c0,0,3.9,8.4,9.7,10.3c0,0-2.4-4.7,0-10.4"/>
<path class="st1" d="M140.9,242.4c0,0,6.2,6.3,11.9,6.3c0,0-5.1-8.3-4.9-12.4"/>
<path class="st1" d="M162.8,239.8c0,0-3.1,8.1-2.3,12.6c0,0,8.3-4.8,10.4-11.3C172.9,234.5,162.8,239.8,162.8,239.8z"/>
<path class="st1" d="M349.7,241.3c0,0,1.1,5.6,11.1,8.8c0,0-3.1-9.5-2.3-14.5S349.7,241.3,349.7,241.3z"/>
<path class="st1" d="M374.3,241c0,0-3.1,9.7-7.8,10.5c0,0,14.4-0.1,15.9-4.6C383.8,242.4,374.3,241,374.3,241z"/>
<path class="st1" d="M394,231.7c0,0,2.1,9.2-4.4,10.5c0,0,11.6-1.3,12.2-9C402.4,225.5,394,231.7,394,231.7z"/>
<path class="st2" d="M202.4,217.2c0,0-2.2-40.5-28.9-42.2c-2.4-0.2-34.1-9.8-52.1,23.7c0,0-24.1-59.1-43.9-55.2
	c-1.7,0.3-45.8-4.5-67.5,61.4c0,0-13.3-42.1,4.3-65.5S42,94.7,42,94.7l37.1-22c0,0,52.4-23.8,56-5.5s18.1,60.3,18.1,60.3
	s4.1,3.1,20,5.8c15.9,2.7,44.2,28,48.1,38.6c3.9,10.6-0.2,29.5-0.2,29.5L202.4,217.2z"/>
<path class="st2" d="M318.9,219c0,0,0.6-16.6,8.6-20.4c8-3.8,23.3-15.4,23.3-15.4s25.2-2.2,33.5,15.4c8.2,17.6,11.4,18.5,11.4,18.5
	s20.8-42,39.2-44.4c0,0,36.3,18.1,43.4,36c7.1,17.8,7.4,41.3,7.4,41.3l5.1-2.3c0,0,5.7-22,5.7-23.8s-2.4-19.6-2.4-19.6l0.3-22.3
	c0,0-2.7-20.5-3-24.4c-0.3-3.9-3.6-17.3-4.5-18.9s-12.8-12.5-14-14s-16.3-4.4-18.1-12c-1.9-7.5-22.6-19.9-22.6-19.9l-8.9-13.1
	L404.9,75l-11.3,11.3l-12.8,17.5l-14.4,22.3l-2.6,11l-8.6,8.6L318.9,160l-11,6.5l-8,15.8l4.5,18.1l9.8,20.1L318.9,219z"/>
<path class="st3" d="M295.1,166.9l8.1-11.6H321c0,0,39.3-10,43.7-30.6c4.5-20.6,26.2-42.6,26.2-42.6s8-17.8-7.1-30
	c0,0-0.8-9.8,9.3-7.7l8.8,15.9c0,0,9.6,5.8,14.6,13.5c0,0,24.4,5.4,33.3,27.7c0,0,11.3,15.6,31.8,23.3c0,0,17.8,23.7,17.2,63.3
	s6.2,53.5-12.2,72l-0.9-9.9c0,0,8.6-22.8,6.8-44c-1.8-21.1,0.5-35.1-9.8-60.4l-4.8-8.6l-33.6-24.7c0,0-14.3-23.2-35.1-31.8
	c0,0-32.6,25.2-42.9,65.7c0,0-51.6,15.1-55.1,34.8c0,0-10.3,10.1-10.9,9.2c-0.6-0.9-16.7-16.1-16.7-16.1L295.1,166.9z"/>
<path class="st3" d="M11,206.6c0.7,4.9,1.9,11.5,3.4,14c0,0-14-6.4-14.4-37.3s2.9-31.8,2.9-31.8L29.2,104c0,0,1.6-16,12.7-15.6
	s46.4-36.5,46.4-36.5l46.8-3.7l17.8-19.3c0,0,8.5,2.5,7.5,9.4c-1,7-15.8,18.1-15.8,18.1l2.4,19.7c0,0,11.8,27.9,13.5,45.6
	c0,0,36.6,14,57.6,33.3l14.4,0.8l6.3,16.3l-11.3,14l-8.8-14.3c0,0-7.6-13.4-19.5-20.3c-11.9-6.9-28.5-18-46.3-19.6l-18.6-60.8
	c0,0-3.7-6.6-12.9-8.6c-9.2-2.1-44.1,13.5-44.1,13.5L41.9,98.2l-4.1,8.6l-28.3,48c0,0-4.1,30.6-0.4,43
	C9.9,200.8,10.6,203.6,11,206.6z"/>
<path class="st4" d="M442.1,293.7c0,0-14.3,27.2-65.1,27.7l0,0c0-4.2-1.4-8.3-3.9-11.7c-5.9-7.8-17.9-22.5-33-33.1
	c-2.5-1.8-4.6-4.2-6.2-6.9c-2.3-4-5.1-10.1-5.6-16.9c0,0-2.8-31.9-16.4-42.6c-0.7-0.6-1-1.5-0.8-2.3c0.9-2.7,3.7-8.4,10.9-9.1
	c6.4-0.6,12.9-0.4,16.4-0.2c1.7,0.1,3.4,0.8,4.7,2l13.7,12.5c0,0,3.9,8.1-4.8,9.9c0,0-7.8,9-1.4,20.1c0,0,10.6-0.7,11.5-4.8
	c0.9-4.2,6.7-8.1,9.2,0c2.5,8.1,3.7,11.5,8.3,10.6c4.6-0.9,4.9-3,5-6.7c0.2-4.4-2-7.8-2-7.8s1.6-5.8,7.6-1.6
	c6,4.2,11.8,0.7,11.8,0.7l0,0c0.8-2.8,0.7-5.7-0.2-8.4l-0.2-0.6c0,0-10.4-12.9-25.3-14.5l-20.3-23c-2.2-2.5-5.2-4.1-8.6-4.6
	c-6.4-0.8-17.8-1.8-30.3-0.6c0,0-23.5,2.2-25.9-31.3c-0.1-1.8-0.3-3.6-0.6-5.4c-2.1-11.8-10.9-58.2-18-67.4c0,0,3.9-2.3,4.2-5.8
	c0.2-3.5-8.3-6.2-8.3-6.2V53.1c0,0,17,4.6,24.9,12.2c2,2,5,2.9,7.7,2c2-0.7,4-2.4,5.1-6.1c2.8-9.2-27-19.2-27-19.2s-9-3.2-10.6-6
	c-1.6-2.8-15-17.5-15-17.5h-28.9L208.2,4.9H199l-6,10.4l-15.7-0.7v15.5l5.8,5.8v11.1c0,0,0.9,26.1,47.6,30.2c0,0,10.2,6.2,9.7,37.4
	c-0.5,31.2-0.7,50.1-0.7,50.1l-0.5,5.1l-0.5,2.3l-20.1-0.2l-10.2,8.3l-25.8-0.2c-6.5,0-12.6,2.8-16.8,7.7l-14.2,16.6
	c-1.2,1.4-2.9,2.2-4.7,2.4l-1,0.1c-5.1,0.3-10,2.1-14,5.2c-4.9,3.7-10.7,8.9-11.2,13c-0.7,5.1,5.8,3.9,9.6,2.8
	c1.6-0.5,2.9-1.3,4-2.5c1.6-1.7,4.3-3.6,5.6-0.3l0,0.4c-0.2,2.3-1.3,4.4-2.7,6.2c-1.7,2.1-3,5.7,1.4,10.5c7.2,7.8,11.5-6.9,11.5-6.9
	s6.5-11.3,11.8-2.3l0.2,8.8c0,0,0.1,0.1,0.2,0.2c4.5,4.2,12,0.9,12.2-5.2l0.3-9.7c0.1-3.1-1-6.2-3.3-8.4c-2.9-2.7-5.8-7.4-0.6-13.4
	l5.7-6.6c1.7-1.9,4.1-3.1,6.6-3.1l28.8-0.6c0,0,5.8,2.5-4.2,15.5c-9.9,12.9-21.2,28.9-21.2,28.9l-3.3,6.9c-2.4,4.9-6.2,9-11,11.7
	l0,0c-2.1,1.2-4,2.6-5.7,4.3c-3.7,3.8-15.5,25.9-16.3,29.6l-28.8-2c-17.6-2.8-35.7,0.9-50.3,11.2c-5.3,3.7-11.8,13.1-13.9,18
	c-2.6,6.1-1.8,13.2,1.5,19c6.1,10.7,18.3,26.4,38.2,28.2h23.8l-1.5,11.1c0,0,22.3,13.1,53.2,0.7c0,0,3.1-3.3,4.4-18.7
	c0,0,45.4-1.4,84.5-12c0,0,12,14,67.8,11.2l-0.3,10.7c0,0,3.6,4.7,20.6,5.9c12.1,0.8,35.7-6.5,35.7-6.5l-11.1-11.1l0.3-4.1
	c0,0,65.7-15,73.3-57.2L442.1,293.7z"/>
<path class="st5" d="M176.9,359.8c9.6-0.3,24.1-1.4,40-3.6c7-1,14-3,21.4-3.9c25.6-3.3,49.3-13.5,64.1-22
	c28.9-16.7,26.7-49.3,26.7-49.3s-3.6-82.8-59.7-82.3s-62.9,67.8-62.9,67.8v42.1l-0.3,6.5l-30,20.6L176.9,359.8z"/>
<path class="st5" d="M121.7,366.4c0,0-10.6,1.3-29.8-0.6c-19.1-1.9-32.5-27.1-32.5-27.1c35.8,13.3,70.1,3.6,70.1,3.6l-0.7,5.5
	c-0.4,3.3-1.4,6.5-3,9.4L121.7,366.4z"/>
<path class="st5" d="M329.1,358.7c-47.5,2.5-70.7-12.7-70.7-12.7l33.1-10.5c0,0,7.8,7.6,32.5,8L329.1,358.7z"/>
<path class="st5" d="M447.8,295.9c-7,42.2-73.7,57.4-73.7,57.4v-17.2c0,0,20.2,4.9,43.3-8.8c6.9-4.1,13.8-10.8,21-18.3
	c1.5-1.5,2.8-3.2,4-5L447.8,295.9z"/>
<ellipse id="Nose_2_" cx="201.8" cy="15.9" rx="2.8" ry="1.5"/>
<path class="st6" d="M253.2,35.8c-7.4-6.4-19.1-11.5-19.1-11.5s9.8-1.9,16.7-1.2c0,0,3.7-0.2,2.7,10.1L253.2,35.8z"/>
<path class="st7" d="M244.7,29.8c0,0,1.9-5.4,1.3-6.9l-3.4,0.2l-4,0.4l-3.9,0.6l-0.6,0.1l3.2,1.6l2.2,1.1l3,1.6L244.7,29.8z"/>
<path d="M234.2,24.2l0.6-0.1l1.2-0.2l1.4-0.2c0,0,0.5,1.7-0.1,2.1l-1-0.4l-0.7-0.4L234.2,24.2z"/>
<path class="st6" d="M203.3,26l5.8,11.7c0,0,0.2-10.3,1.8-9.4L203.3,26z"/>
<path d="M254.1,53.8c-0.5-4.2-3.3-7.3-5.5-9.2c-1.5-1.3-3.4-2.1-5.3-2.4c-23.6-4.1-28.1-11.8-36.3-15c-8.5-3.3-14.8,6.4-16.3,7.3
	c-1.5,0.9-7.5,1.4-7.5,1.4l-2-2l4.9-0.7c2-0.3,3.7-1.2,5.1-2.6c3-3.1,9.4-8.2,16.7-5l9.6,5.1c0,0,6.8,6,26.3,9.8
	c1.4,0.3,2.7,0.7,3.9,1.4c2,1.2,4.9,3.1,6.1,5.2c2.7,4.5,2.5,6.9,2.5,6.9H254.1z"/>
<path id="Flame_3_" class="st8" d="M432.3,248.8c0,0,4.9-15-2.6-27c0,0,7.2,3.1,9.7,8.9l0.9-6.7c0,0,4.9,5.2,4.1,8
	c0,0,1.6-40.2-4.3-54.2c0,0,13.5,18.5,14,29.6c0,0,1.5-9.3-0.6-13c0,0,10.3,11.9,10.5,22.7c0,0,1.8-5.1,1.5-6.8
	c0,0,11.2,21.1,10.6,38.4c0,0,2.7-6.2,0.6-9.8c0,0,9.1,11,4.4,38.7c0,0-7.7,5.6-14.1,7.6c0,0-3.8,17.1-17.1,10.6l-8.9-2.3
	c0,0-12.9-5.1-8.8-20.8c0,0-7.4-3.4-6.8-13.5c0.1-1.1,2.3-6.5,6.5-9.7L432.3,248.8z"/>
<path class="st9" d="M431.3,272.1l1.6-8.6l4.5,6.2c0,0,0.5-6.2,0.3-6.9c-0.2-0.7-2.9-7.7-2.9-7.7l-2.9-5.7l1.2-3.4l0.4-3.3l0.3-4.1
	l-0.1-3.2l6.4,13.6l1.9-4.3l2.4,4.9c0,0-1.7,3-1.3,3.8c0.4,0.8,1,4.4,1,4.4l3.8-10.9l-2-5.4l7.6,5.9l2.2,4.5l1.2,5.9l-0.9,2.5
	c0,0,0.8,2.6,1.1,4.7c0.4,2.1,1.6,5.1,1.6,5.1l1.4,2.2c0,0,0.9,1.8,0.8,2.6c-0.1,0.8,0.2,4.8,0.2,4.8l0,3l1.5,8.4l-1.1,3.1l-1.7,1.8
	l-3.8,1.2l-3.5-0.4c0,0-1.6-0.9-2.8-1.1c-1.2-0.2-4.4-1.5-4.4-1.5l-4.5-0.8l-2.9-1.7l-2.3-2.1l-2.3-3.1l-1.1-2.4l-0.8-3.2l-0.2-2.9
	l0.4-3.7L431.3,272.1z"/>
<path class="st9" d="M446.8,201.5c0.2,0.7,0.9,11.2,0.9,11.2l-0.5,7.7l0.6,6.9l0.4,6.8l3.9,4.2l8.7-8.1l-3.6-6l-4.3-4.1
	c0,0-1.2-5.2-1.3-6.7c-0.1-1.4-0.3-4.1-0.4-5.8s-1.3-7.7-1.3-7.7l-0.2,5.3l-2.9-7L446.8,201.5z"/>
<path class="st9" d="M468,284.8l-1.8-10.3c0,0-1.8-7.1-2.1-7.3c-0.3-0.2-3.6-8.5-3.6-8.5l6.8,4.4l-3.7-9l-4.3-5.8l-3.1-1.9
	c0,0,8.7,1.9,9.2,2.1c0.4,0.3,5.3,5,5.3,5l2.4,3l-3.1-9.2c0,0-0.6-4-1.2-5s-4.3-7.5-4.3-7.5l7.3,3.4l-4.7-5.1l8.1,4.2l0.8,5.6l1,3.3
	L476,262l0.8,2.5c0,0,3.5-3,2.4-4.4c0,0,3.3,0.4,3.2,3c-0.1,2.6-0.2,5-0.2,5l-0.7,6.2l-0.5,3.2l-2,1.4l-4.8,2.7l-2.8,1.7L468,284.8z
	"/>
</svg>
