<?xml version="1.0" encoding="utf-8"?>
<!-- Generator: Adobe Illustrator 22.1.0, SVG Export Plug-In . SVG Version: 6.00 Build 0)  -->
<svg version="1.1" id="Layer_1" xmlns="http://www.w3.org/2000/svg" xmlns:xlink="http://www.w3.org/1999/xlink" x="0px" y="0px"
	 viewBox="0 0 443 500" style="enable-background:new 0 0 443 500;" xml:space="preserve">
<style type="text/css">
	.st0{fill:#FBFCFF;}
	.st1{fill:#D56B5A;}
	.st2{fill:#E6CEBB;}
	.st3{fill:#357184;}
	.st4{fill:#FFFFFF;}
	.st5{fill:#DD553B;}
	.st6{fill:#FBD961;}
</style>
<path class="st0" d="M84.6,455.4c0,0-18.8,19.6-18.4,26.5c0,0,23.8-3,31.8-14.9S84.6,455.4,84.6,455.4z"/>
<path class="st0" d="M84.4,449.3c0,0-26.7,13.5-28.1,27.2c0,0,24.5-4.8,37.3-20.6C106.5,440.1,84.4,449.3,84.4,449.3z"/>
<path class="st0" d="M78.9,443.5c0,0-25.9,4.2-34,20.7c0,0,10,2.5,27.4-4.8s23.2-15.8,23.2-15.8H78.9z"/>
<path class="st0" d="M220.6,457.1c0,0-14.6,9.3-10,31.5c0,0,14-11.9,26.7-14C250.1,472.5,220.6,457.1,220.6,457.1z"/>
<path class="st0" d="M240.6,469.4c0,0-4.5,19.8,6.5,30.6c0,0,15.9-6.1,21.5-25.4C274.3,455.3,240.6,469.4,240.6,469.4z"/>
<path class="st0" d="M273.4,471.6c0,0,2.6,13,12.8,24.8c0,0,14.1-15.6,9.3-31.9C290.8,448.1,273.4,471.6,273.4,471.6z"/>
<g>
	<path class="st0" d="M272.8,321.3l0.4,14.4c0.6,7.2,2,15.6,4.9,24.3c0,0,3.5-2.7,7.4-8.3c3.1-4.4,6.5-10.6,8.8-18.9
		C285.8,331.3,277.5,328,272.8,321.3z"/>
	<path class="st0" d="M300.3,333.7c0.9,7.3,1.4,18.5-1.4,28.6c-0.5,1.8-1,3.5-1.8,5.2c0,0,2.6-1.2,6.2-3.9
		c6.3-4.8,15.6-14.4,17.9-30.5C314.9,333.8,307.5,334.3,300.3,333.7z"/>
	<path class="st0" d="M337.8,330c0,0-4.7,1.3-11.6,2.3c-0.2,5.7-1.6,17.3-7.9,26C318.3,358.4,339.7,351,337.8,330z"/>
</g>
<path class="st0" d="M49.7,323.1c0,0,7.2-14.3,14.4-21.5c-5.9,2.6-12.9,5.7-16.4,7.2C47.4,312.4,47.9,317.1,49.7,323.1z"/>
<path class="st0" d="M43.6,336.3c-9.9-14.5-1.9-23.9,0.6-26.3c-2.9,0.8-10.2,2.6-17.9,4C29.3,336.5,43.6,336.3,43.6,336.3z"/>
<path class="st0" d="M32.6,339.2c0,0-10.7-13.4-10.6-24.3c-4.4,0.7-8.7,1.2-12.1,1.3C9.8,316.1,6.2,335.8,32.6,339.2z"/>
<path class="st1" d="M401.3,315.6l-14.2,1.3c-8.7,58.6-65.7,50.8-83.8,46.7c-3.5,2.7-6.2,3.9-6.2,3.9c0.7-1.7,1.3-3.4,1.8-5.2
	c-4.4-1.8-9-5.8-13.3-10.5c-4,5.7-7.4,8.3-7.4,8.3c-2.9-8.7-4.3-17.1-4.9-24.3c-3.6-5.3-5.8-9.3-5.8-9.3
	c-8.6-60.5-28.3-84.8-28.3-84.8c15.4,2.5,35.7,17.2,35.7,17.2l-1.4,55.5l0,1.3c-0.2,1.4-0.4,3.2-0.5,5.6c4.7,6.6,13,10,21.5,11.5
	c1.9,0.3,3.9,0.6,5.9,0.8c7.2,0.6,14.6,0.2,20.9-0.6c1.8-0.2,3.4-0.4,5-0.7c6.9-1.1,11.6-2.3,11.6-2.3c-0.9-3.7-1.8-7.2-2.7-10.6
	c-12-44.4-26.3-66.1-34.7-75.8c-3.5-4-8.2-7-13.3-8.4c-30.1-8.6-45.7-22.3-51.1-27.9c-1.6-1.6-3.7-2.7-6-2.8l-7.8-0.5
	c-11.3-4.3-11.2-43.3-11.2-43.3s15.2-14.7,21.5-39.2c6.3-24.6-28.1-76.9-28.1-76.9l26.1-26.1c7.3-13.8,0.7-17.6-5.6-18.4
	c-4.1-0.5-8.2,0.7-11.5,3.3c-11.1,8.8-43.8,33.3-65,34.3c-10.5,0.5-18.1,2.3-23.5,4.3c-5.4,2-10.1,5.7-13,10.7
	c-5.9,10.1-14.8,15.5-19.5,21.5c-5.3,6.8-3.4,18.6-3.4,18.6c1.3,1.8,2.4,3.6,3.3,5.3c5.7,10.7,4.8,18.4,4.8,18.4l-2.2,2.3
	l-12.1,12.3c-2.8,2.9-4.4,6.7-4.5,10.7l0,0.3c-0.1,5,1.4,9.9,4.3,13.9c1.7,2.3,3.7,5.4,6.5,8.7c7.5,9.2,22.7,3.5,22.7,3.5
	c1.3,7.6,11.7,11.1,14.9,12.4c3.2,1.3,12-1.6,12-1.6l14-3.2c13.6,3.5-1,23.5-1,23.5c-18,1.3-25.4,9.5-28.2,14.3
	c-1.3,2.3-3.4,4-5.9,4.7L88.7,227c-9.6,2.9-18.4,8-25.5,15.1l-21.4,21.1c-13.4,13.3-23.8,29.4-30.2,47.1l-1.8,5.8
	c3.4,0,7.7-0.6,12.1-1.3c1.5-0.2,2.9-0.5,4.4-0.8c7.7-1.4,14.9-3.3,17.9-4c0.8-0.2,1.2-0.3,1.3-0.4c0.1,0,0.9-0.4,2.2-0.9
	c3.5-1.5,10.5-4.6,16.4-7.2c2.1-2.1,4.2-3.6,6.1-4c0.5-0.1,1-0.3,1.3-0.5c0,0,0,0,0.1-0.1c2.6-2.3,4.8-5,6.4-8.2
	c5.8-11.5,16.4-31.5,23.4-38.8c8.1-8.4,26.2-12.5,33.1-13.8c11.5-17.1,23.2-22.5,23.2-22.5s38.1,2.8,44.9,68.7c0.2,2,0.4,4,0.7,5.9
	c1.2,8.2,4.7,35.5,3.4,63c-0.1,2.5-0.3,5-0.6,7.4c-1,9.7-4.4,38-1.1,49l0.4,3.2c1.6,8.7,7.3,13.3,16.9,20.1
	c10.7,7.6,5.5,18.2,5.5,18.2l-7.1,7.8l10.9,13.7c2.3,3,6.1,4.5,9.8,4c2.7-0.3,5.7-0.6,7.8-0.3c19.5,2.5,48.1,14.1,48.1-3.1
	c0-17.8-8.4-51.9-8.4-51.9C401.3,421.4,401.3,315.6,401.3,315.6z"/>
<path class="st1" d="M113.4,323.1c0.3,3.4,0.6,5.3,0.6,5.3c-20,19.7-47.8,44.7-49.4,60.9s-0.6,10.5,7.9,32c8.6,21.6-6.3,26-6.3,26
	c10.4,17.3,30.1,22.1,30.1,22.1l10.3-4.6c3.5-0.3,6.7-1.9,9.3-4.3c8.6-8.1,24.2-9.5,24.2-9.5s-1.2-20.7,0-27.7
	c1.2-7,29.8-23.1,29.8-23.1c0.1,0,0.2,0,0.3,0c-3-1.5-6-3.2-8.8-5.1C145.8,384,118.5,360.3,113.4,323.1z"/>
<path class="st1" d="M64.1,301.6c0.3-0.1,0.6-0.2,0.8-0.4c2.4-1.1,4.6-2.5,6.6-4.1c-0.4,0.2-0.8,0.4-1.3,0.5
	C68.2,297.9,66.2,299.5,64.1,301.6z"/>
<g id="Light_body">
	<path class="st2" d="M202.5,282.4c-6.8-65.9-44.9-68.7-44.9-68.7s-11.6,5.4-23.2,22.5c-3.1,4.7-6.3,10.2-9.2,16.8
		c-5.3,12-9.8,27.5-12,47.1c0,0,0,0.1,0,0.1c-0.9,8.1-0.7,15.7,0.2,22.9c5.1,37.2,32.4,60.9,48,71.9c2.8,2,5.7,3.6,8.8,5.1
		c11.1-2,34.7,7.7,34.7,7.7c-2.9-11.6,0.1-39.6,1.1-49c0.3-2.5,0.5-4.9,0.6-7.4c1.3-27.5-2.2-54.8-3.4-63
		C202.9,286.4,202.7,284.4,202.5,282.4z"/>
	<path class="st2" d="M287.1,400.1l1.6,20.1c0,0,84.8,14.6,109-79.5C397.7,340.7,370.1,410.6,287.1,400.1z"/>
</g>
<g id="Eyes_4_">
	<path class="st3" d="M182.7,86.7l2,4.1C184,89.2,183.3,87.8,182.7,86.7z"/>
	<path class="st3" d="M180.8,83.7l1.9,3C181.6,84.8,180.8,83.7,180.8,83.7z"/>
	<path class="st3" d="M184.8,91l1.6,4.7C186,93.9,185.4,92.4,184.8,91z"/>
	<path class="st3" d="M169.9,89.8l3.1-2.2C171.9,88.3,170.9,89.1,169.9,89.8z"/>
	<path class="st3" d="M140.4,118.4h9.8v-10.7C144.4,113.7,140.4,118.4,140.4,118.4z"/>
	<path class="st3" d="M186.5,112.1l-1.5,3.6C185.6,114.5,186.2,113.3,186.5,112.1z"/>
	<path class="st3" d="M173.3,100.7c0-0.2-0.1-0.4-0.1-0.6c-0.9,1.8-2.7,3.1-4.8,3.1c-2.9,0-5.3-2.4-5.3-5.3c0-2.9,2.4-5.3,5.3-5.3
		c1.1,0,2.1,0.3,3,0.9c-0.5-1.2-1-2.4-1.6-3.5c-2.4,1.8-4.9,3.9-7.4,6.1v22.4h11C174.7,113.1,174.1,105.8,173.3,100.7z"/>
	<path class="st3" d="M187.3,108.6l-0.7,3.2C186.9,110.7,187.2,109.7,187.3,108.6z"/>
	<path class="st3" d="M187.4,107.9c0.1-1,0.2-1.9,0.2-2.8L187.4,107.9z"/>
	<path class="st3" d="M186.7,96.6l0.3,1.5C186.9,97.6,186.8,97.1,186.7,96.6z"/>
	<path d="M162.4,95.9L162.4,95.9C162.4,96,162.4,96,162.4,95.9L162.4,95.9z"/>
	<polygon points="150.2,107.7 150.2,107.7 150.2,107.7 	"/>
	<path d="M162.4,96l-12.2,11.7c0,0,0,0,0,0v10.7h12.2L162.4,96C162.4,96,162.4,96,162.4,96z"/>
	<path class="st4" d="M186.5,112l0.1-0.2C186.6,111.9,186.6,112,186.5,112L186.5,112z"/>
	<path class="st4" d="M185,115.9l0.1-0.2c-0.4,0.9-0.9,1.8-1.5,2.7L185,115.9z"/>
	<path class="st4" d="M169.8,89.9C169.8,89.9,169.8,89.9,169.8,89.9C169.8,89.9,169.8,89.9,169.8,89.9L169.8,89.9z"/>
	<path class="st4" d="M186.6,95.9l-0.1-0.3c0.1,0.3,0.2,0.6,0.2,0.9L186.6,95.9z"/>
	<path class="st4" d="M187.4,108.4l0-0.6c0,0.2,0,0.5-0.1,0.7L187.4,108.4z"/>
	<path class="st4" d="M173.1,87.5l-0.2,0.1C173,87.6,173.1,87.6,173.1,87.5L173.1,87.5z"/>
	<path class="st4" d="M184.8,90.8L184.8,90.8c0,0,0,0,0,0.1L184.8,90.8z"/>
	<polygon class="st4" points="176.6,85.5 176.6,85.5 176.6,85.5 	"/>
	<path class="st4" d="M182.7,86.7L182.7,86.7C182.7,86.7,182.7,86.7,182.7,86.7L182.7,86.7z"/>
	<path class="st4" d="M187,98.1l-0.3-1.5c-0.1-0.3-0.2-0.6-0.2-0.9l-1.6-4.7c0-0.1-0.1-0.1-0.1-0.2l-2-4.1c0,0,0,0,0,0l-1.9-3
		l-4.2,1.8c0,0,0,0,0,0l-3.4,2c-0.1,0.1-0.2,0.1-0.3,0.2l-3.1,2.2c0,0,0,0-0.1,0c0.6,1.1,1.1,2.3,1.6,3.5c1.4,1,2.4,2.6,2.4,4.4
		c0,0.8-0.2,1.6-0.5,2.3c0,0.2,0.1,0.4,0.1,0.6c0.7,5.1,1.4,12.4,0.1,17.7h10.2c0.6-0.9,1.1-1.8,1.5-2.7l1.5-3.6
		c0-0.1,0-0.2,0.1-0.3l0.7-3.2c0-0.2,0.1-0.5,0.1-0.7l0.2-2.8C187.7,102.6,187.5,100.3,187,98.1z"/>
	<path class="st4" d="M163.1,97.8c0,2.9,2.4,5.3,5.3,5.3c2.1,0,4-1.3,4.8-3.1c-0.4-2.3-1-4.5-1.8-6.7c-0.9-0.6-1.9-0.9-3-0.9
		C165.5,92.5,163.1,94.9,163.1,97.8z"/>
	<path class="st4" d="M173.7,97.8c0-1.8-0.9-3.5-2.4-4.4c0.8,2.2,1.5,4.4,1.8,6.7C173.5,99.4,173.7,98.7,173.7,97.8z"/>
	<path d="M92.4,98.1c-0.1,0.8-0.1,1.8-0.2,2.9c-0.3,6.5,1.8,14.6,2.7,17.8l2.2-2.3C97.2,116.6,98.2,108.8,92.4,98.1z"/>
</g>
<path id="Mouth_4_" d="M112.3,170.2c0,0,5.1-14.3,15.5-14.6c5.7-0.2,36.8,0,45.8,0.1c1.8,0,3.5-0.4,5.1-1.1c3.2-1.5,8.3-4.4,8.3-7.8
	h-3.3c0,0-4.7,5.2-8.8,5.5c-4.1,0.3-46.1,0.3-46.1,0.3s-1.4,0.1-1.9,0.1c-0.5,0.1-1.1,0.4-1.8,0.6c-0.6,0.2-1.3,0.5-2,0.8
	c-4,1.9-9.4,5.9-13.5,15l2.4-0.7L112.3,170.2z"/>
<circle id="Nose_1_" cx="106.5" cy="148.9" r="2.2"/>
<path id="Flame" class="st5" d="M351.5,256.1c0,0-0.5-24.4-17.6-38.1c0,0,12.1,0.9,18.7,8l-2.1-10.3c0,0,9.8,5,10,9.6
	c0,0-18.2-59.5-34-76.9c0,0,29.2,20.1,35.6,36c0,0-2.5-14.4-7.5-18.7c0,0,21.2,12.1,26.9,27.8c0,0,0-8.4-1.4-10.7
	c0,0,27.1,25.1,35.1,50.6c0,0,0.7-10.4-4.1-14.6c0,0,18.9,11.4,26.2,54.3c0,0-8.4,12.1-16.7,18.2c0,0,3.2,26.9-19.5,24.2l-14.2,1.3
	c0,0-21.5-0.8-23.6-25.9c0,0-12.6-1.2-16.9-16.2c-0.5-1.6,0-10.7,4.6-17.6L351.5,256.1z"/>
<path class="st6" d="M362.1,290.7l-2-13.5l9.7,6.7c0,0-2.5-9.2-3.1-10.2c-0.6-0.9-8.1-9.7-8.1-9.7l-7.2-6.9v-5.6l-1.1-5.1l-1.7-6.2
	l-1.7-4.7l16.4,16.6l0.6-7.2l5.9,5.9c0,0-0.9,5.3,0,6.3c0.9,0.9,3.8,5.9,3.8,5.9v-17.8l-5.6-6.9l14.2,4.7l5.5,5.5l4.7,8v4.1
	c0,0,2.5,3.4,4.1,6.3s5,6.6,5,6.6l3.1,2.5c0,0,2.2,2.2,2.5,3.4s2.8,6.9,2.8,6.9l1.6,4.4l6.6,11.5v5l-1.6,3.5l-5,3.7l-5.3,1.3
	c0,0-2.9-0.5-4.7-0.1c-1.9,0.4-7.2,0.1-7.2,0.1l-7,1.1l-5.1-1l-4.5-1.8l-5-3.4l-2.8-2.9l-2.8-4.3l-1.8-4.2l-1.3-5.6L362.1,290.7z"/>
<path class="st6" d="M348.4,179.7c0.7,0.9,7,15.9,7,15.9l3.3,11.5l4.4,9.8l4.1,9.8l7.9,4.1l8.6-16.3l-8.4-6.8l-8.4-3.8
	c0,0-4.4-7-5.3-9.1c-0.9-2.1-2.6-5.8-3.6-8.2c-1-2.4-5.8-10.6-5.8-10.6l2.4,7.9l-7.8-8.7L348.4,179.7z"/>
<path class="st6" d="M422.1,290.4l-8-14.2c0,0-6.3-9.4-6.9-9.6s-9.6-10.6-9.6-10.6l12.2,3l-10-11.3l-9.3-6.3l-5.6-1.2
	c0,0,13.7-1.8,14.5-1.6s10.4,4.6,10.4,4.6l5,3.1l-9.3-11.9c0,0-2.9-5.6-4.3-6.7c-1.4-1.1-10.1-8.7-10.1-8.7l12.4,1.3l-9.4-5l14,2
	l4,7.7l3.2,4.3l6.8,23.4l2.4,3.3c0,0,3.5-6.1,1.3-7.7c0,0,4.9-1.1,6.2,2.7s2.3,7.4,2.3,7.4l2.2,9.4l0.9,5l-2.3,3.1l-5.7,6.4
	l-3.1,3.9L422.1,290.4z"/>
</svg>
