<?xml version="1.0" encoding="utf-8"?>
<!-- Generator: Adobe Illustrator 22.1.0, SVG Export Plug-In . SVG Version: 6.00 Build 0)  -->
<svg version="1.1" id="Layer_1" xmlns="http://www.w3.org/2000/svg" xmlns:xlink="http://www.w3.org/1999/xlink" x="0px" y="0px"
	 viewBox="0 0 500 500" style="enable-background:new 0 0 500 500;" xml:space="preserve">
<style type="text/css">
	.st0{fill:#D0717E;}
	.st1{fill:#FFFFFF;}
	.st2{fill:#639078;}
	.st3{fill:#89BCBE;}
	.st4{fill:#01556F;}
	.st5{fill:#030504;}
	.st6{fill:#C06871;}
</style>
<path class="st0" d="M342.9,169.6c0,0-82,158.1-146.1,127.7C132.6,266.8,143,129.4,143,129.4s1.6-33.1,17.8-52.5s12.3-45,12.3-45
	s12,2.9,11,13.6c0,0,7.8-12,15.9-10.7c0,0-0.3,19.1-6.5,25.9L211.3,38c0,0-0.3-19.8-6.8-27.9c0,0,16.8,7.5,21.4,20.4l9.4-9.1
	l2.6,9.4l6.8-9.7l1.9,10.7l13.9-5.2c0,0-1.3,11.3,3.9,15.6c5.2,4.2,57.4,36.3,64.5,67.7C336.1,141.4,342.9,169.6,342.9,169.6z"/>
<path class="st1" d="M133.7,455.3c0,0,7.9,12.2,18.9,15.8c-1.4-2.9-1.3-11.2-2.9-15.6c-1.9-5-4.6-4.1-2.7-8.1L133.7,455.3z"/>
<path class="st1" d="M155.9,456.2c0.5,0.2,8.5,13.9,20.5,14.9c0,0,0.9-6.7-5.9-19.4C163.7,439,155.9,456.2,155.9,456.2z"/>
<path class="st1" d="M175.5,457.9c0,0,11.1,5,18.1,4c0,0-2.5-10.8-12-18.1L175.5,457.9z"/>
<path class="st1" d="M286.6,467c0,0,9.3,11.5,17,12.7c0,0,3.1-9,0-20.6C300.5,447.4,286.6,467,286.6,467z"/>
<path class="st1" d="M309.5,467.5c0,0,13.9,0.7,20.1,8.1c0,0,0.7-10.3-10-16.7C308.8,452.4,309.5,467.5,309.5,467.5z"/>
<path class="st1" d="M321.5,459.9c0,0,15.5,1.9,19.6,9.6c0,0,1-20.5-15.5-23.2L321.5,459.9z"/>
<path class="st1" d="M409.7,453.5c0,0,18,5,20.4,10.9c0,0,3.3-11.8-3.7-19.9S409.7,453.5,409.7,453.5z"/>
<path class="st1" d="M432,453.4c0,0,13.1,6.3,14.8,11.1c0,0,1.9-14.4-7.4-20.3C430.1,438.1,432,453.4,432,453.4z"/>
<path class="st1" d="M444.5,446.2c0,0,11,2,14.8,9.1c0,0-1.6-23.5-12.3-23.2C436.3,432.4,444.5,446.2,444.5,446.2z"/>
<path class="st2" d="M188.4,288.7c-3.5,1.3-31.1,6.4-43,33.4c-11.9,27-6.7,35.7-6.7,35.7h-22.5c0,0,0-40.6,3-45.8
	c3-5.2-10.8,43.6-21.6,48c-10.8,4.3-24.6,0-24.6,0L83.4,335L70,356.1c0,0-15.6-3.5-16-6.5s27.2-32.4,27.2-32.4L54,335.8
	c0,0-7.3-7.8-4.7-19.4c0,0,65.7-38,84.5-40.6l-21-10.8l13.4-14.7l-18.6,12.1l-22.5-9.1l14.7-15.6l-26.4,19.9l-27.7-15.6l13.4-14.9
	l-18.6,12.3l-16.8-12.3L51,208.8l-31.1,12.5L0,192h22.5L2.2,178.6l3-21.2l30.2,16l-16.8-32l16.8-3.5l8.6,17.7L29.8,125h36.3
	c0,0,15.6,42.8,16,41.5c0.4-1.3-7.3-41.5-7.3-41.5l31.5,3.9l18.1,44.1l-2.6-44.1l41.9,13.4l9.9,44.1l2.6-39.2l16.8,10.2l4.3,26.8
	l4.3-29.8l28.9,18.1l-6,37.2l11.2-16.4l18.1,18.6l-9.9,15.4h16l-6,56.3L188.4,288.7z"/>
<path class="st2" d="M261.9,156.9v-11.4l20.7,11.4l1.9-3.9l-20-16l14.7-24.4c0,0,30.4,22.9,30.4,22.1c0-0.8-26.6-29.6-26.6-29.6
	L297,88.3l26.6,24.7L317,73.9l16.6-16.3l17.8,29.7V45.4h30v17.5l2.5-11.6l10.6,0.6l-1.6,27.5c0,0,30.4-22.2,30.4-20.3
	c0,1.9,0.6,31.3,0.6,31.3l-23.2,9.4l30.4,1.3l-2.2,23.8c0,0-38.8,2.4-37.9,3c0.9,0.6,24.7,5.9,24.7,5.9l-4.7,13.2l2.2,9.8l-105.6,24
	L261.9,156.9z"/>
<path id="Main_body" class="st3" d="M205.2,419.4c0,0-13.5,10.1-19.9,35.6c-1,4.2-4.7,7.2-9,7.2H130c-5.3,0-10.1-3.7-11.2-8.9
	c-0.9-4.4-1.7-10.6-1.7-19.1c0-21.4,6-87.3,32.5-114.5s34.6-31.6,34.6-31.6s55.1-26.2,73.4-55.5v-74.3h42.3c1.9,0,3.9,0.1,5.8,0.3
	c15.5,1.4,92.1,7.5,133.4-10c0,0,20.7,8.6,26.2,44.1c0,0,10.6,3.5,11.7,12.1v9.6c0,0,11.2,10.3,13.8,32.9c0,0,16.3,9.3,5.3,24.6
	c0,0-8.1,12.8-17.9,18.8c0,0-11.4,20.4-44.4,40.2c0,0,26,36.2,17.7,112.4c0,0-1.9,18.4-40.9,14.9c-39-3.5-44.1-65-44.1-65
	s-18.6,15.1-34.1,16l3.1,42.9c0.3,3.8-1.1,7.5-3.9,10c-6.2,5.7-20.4,13.7-49.8,10.8c-4.2-0.4-8-2.4-10.8-5.6
	c-5.5-6.3-14.8-18-19-30.1C252.1,437.1,220.3,433,205.2,419.4z"/>
<path class="st4" d="M128,369.9l7.7,1.3c2.1,0.3,4,1.6,5,3.5l12.3,21.8c0.9,1.6,1.1,3.4,0.5,5.1c-1.5,4.3-5.4,12.8-14.7,19
	c-9.9,6.7-16.8-5.2-19.6-11.3c-0.9-2.1-1.2-4.3-0.8-6.5c1.2-6,3.9-19.3,7.8-31.8C126.5,370.2,127.3,369.8,128,369.9z"/>
<path class="st4" d="M169.5,330.9c0,0-9.9,5.6-9.2,21.8c0,0,15.8,0.7,15.1-10.9C174.7,330.3,169.5,330.9,169.5,330.9z"/>
<path class="st4" d="M211.6,275.8c0,0-24.1,8.6-26.1,43.7c-2,35.1,23.4,17.3,23.4,17.3s9-3.4,9.7-20.3c0.5-12.7,2.4-24.9,3.3-30.2
	c0.5-3-0.3-6.3-2.5-8.4C217.8,276.4,215.3,275.2,211.6,275.8z"/>
<path class="st4" d="M268.6,354.3l-2,25.3c-0.7,3.3-0.2,6.7,1.6,9.6c4,6.8,12.9,18.5,26.1,19.3c10.3,0.6,13.2-8.8,13.7-17.4
	c0.5-8.1-2.5-15.9-8.1-21.8c-6.5-6.9-18.2-17.4-27.3-18.4C270.6,350.6,268.8,352.2,268.6,354.3z"/>
<path class="st4" d="M282.9,412.7c-4.1-2.1-9.1,0.3-10.2,4.7c-1.4,5.7-2.2,13.9,3.5,18.2c6.5,5.1,13.2-3.6,16.5-9.1
	c1.4-2.4,1-5.4-1-7.3C289.5,417.1,286.3,414.4,282.9,412.7z"/>
<path class="st4" d="M405.5,394.7v24.8c0,0,14.4-1.3,13.5-11C418.1,398.7,405.5,394.7,405.5,394.7z"/>
<path class="st4" d="M423.1,364l-3.3,16c-0.5,2.5,0,5,1.3,7.1c4.8,7.4,16.3,24.7,19.5,24.8c4.1,0.1,10.4-10.1,10.4-10.1
	s-3.2-29.9-5.9-33.8c-2.6-3.7-14.7-8.2-21-5.4C423.6,363,423.2,363.5,423.1,364z"/>
<path class="st4" d="M395.1,194.5c0,0,19.7,19,22.1,22.1c0,0,2.1-17.8-1.8-24.2C415.4,192.4,402.7,188.8,395.1,194.5z"/>
<path class="st4" d="M387.9,161l49.3,38.1v-23c0-3.2-1.7-6-4.5-7.5c-5.5-2.9-15.7-7.5-29.2-9.6c-4.3-0.6-8.7-0.2-12.8,1.1L387.9,161
	z"/>
<path class="st5" d="M263.7,165.7v53.8c0,1.3,1.6,2,2.6,1.2l29.2-25.9c0.7-0.6,0.7-1.7,0-2.3l-29.2-27.9
	C265.4,163.6,263.7,164.3,263.7,165.7z"/>
<path class="st1" d="M343.8,271.7c0,0,10.8,15.1,19.5,17.1c0,0,6.6-2.4,6.6-27.4C370,261.3,357.6,264.2,343.8,271.7z"/>
<path class="st1" d="M489.8,262.4c0,0,0.9,10.7-4,17.1c0,0-3.7-1.7-5.3-11.9C480.5,267.5,481.2,262.1,489.8,262.4z"/>
<path d="M488.6,257.7c0,0-4.9,1.6-6.4,3.1c-5.9,5.9-22.9,7.6-31.2,1.6c-3.2-2.4-6.9-4.1-10.3-5.3c-5.3-2-10.9-3-16.5-3.4
	c-76.2-5.9-93.4,24-93.4,24l1.2,4.7c0,0,16.4-28.5,88-24.4c10.1,0.6,20,3,28.9,7.8c0.7,0.4,1.4,0.8,2.1,1.2
	c8.5,4.9,26.5,4.5,32.4-1.4c1.5-1.5,6.4-3.1,6.4-3.1L488.6,257.7z"/>
<g>
	<path class="st1" d="M490,245.9c0,0-1-15.9-6.1-23.2c0.3,0.9,0.6,1.9,0.8,3c0.5,2.4,0.6,5.1,0.5,8.4c-0.3,11-0.7,11.6-0.7,11.6
		l-4.1-0.2c-0.1,0-0.2,0-0.3-0.1"/>
	<path class="st6" d="M483.9,222.7c-2.5-7.5-7.7-9.7-7.7-9.7v9c0.5,0.5,1.8,2,2,6.3c0.1,5.3-0.3,10.4-1.1,11.9
		c0,0.1-0.6,0.4-0.9,0.6v0.9c0,0.7,0.3,1.5,0.9,2l1,0.9c0.6,0.5,1.3,0.8,2.1,0.9c1.7-4.7,3.4-23.3,3.4-23.3
		C483.6,222.4,483.7,222.6,483.9,222.7z"/>
	<path class="st6" d="M484.5,245.7c0,0,0.4-0.6,0.7-11.6c0.1-3.2,0-6-0.5-8.4c-0.2-1.1-0.5-2.1-0.8-3c-0.1-0.2-0.2-0.4-0.4-0.5
		c0,0-1.8,18.5-3.4,23.3c0.1,0,0.2,0.1,0.3,0.1"/>
	<path d="M478.1,228.3c-0.1-4.3-1.5-5.9-2-6.3v18.7c0.3-0.2,0.8-0.5,0.9-0.6C477.9,238.7,478.3,233.6,478.1,228.3z"/>
</g>
<path class="st1" d="M391.8,238.3c-25.7,1.3-58.1,14.6-58.1,14.6s-6.9,1.1-7.2-25.7c-0.3-26.7,9.3-28.1,9.3-28.1s34.4,0.2,58.2,31.1
	l6.1,6.9l-1.8,0.4C396.2,238,394,238.2,391.8,238.3z"/>
<path class="st6" d="M353.1,246.1c11.3-3.5,25.8-7.1,38.7-7.8c2.2-0.1,4.4-0.3,6.6-0.8l1.8-0.4l-6.1-6.9c-6-7.9-12.8-13.8-19.5-18.2
	c-2.7-1.8-5.3-3.3-8-4.6c-7.3-3.7-14.2-5.8-19.6-6.9c0,0-2.7,33.5,4.2,46.2L353.1,246.1z"/>
<path d="M374.8,212.2c1.5,22.3-4.8,24.2-4.8,24.2s-8.5-2.1-3.3-28.9l2.3,1.2l1.7,1l2.4,1.4L374.8,212.2z"/>
</svg>
