<?xml version="1.0" encoding="utf-8"?>
<!-- Generator: Adobe Illustrator 22.1.0, SVG Export Plug-In . SVG Version: 6.00 Build 0)  -->
<svg version="1.1" id="Layer_1" xmlns="http://www.w3.org/2000/svg" xmlns:xlink="http://www.w3.org/1999/xlink" x="0px" y="0px"
	 viewBox="0 0 453 500" style="enable-background:new 0 0 453 500;" xml:space="preserve">
<style type="text/css">
	.st0{fill:#469D5C;}
</style>
<g>
	<g>
		<path class="st0" d="M431.2,215.5c-6-14.4-14.2-27.8-23.6-40.3c-21.9-29.1-69.4-97-99.3-175.2c0,0-330.6,99.6-301.7,290.1
			c12.7,84.1,71.6,120.6,133.4,135.3c0,0-10.4,43.9,0,66.2l72.2,7.9c0,0-10.5-21.6,0-65.4c52,1.7,88.9-6.9,88.9-6.9
			S509.3,402,431.2,215.5z M388.9,332.8c-74.7-11.7-121.8-0.4-150.1,13.7c-22.3,11.1-37.7,32.5-41.8,57.1l-5.3,28.9l-29.9-3.6
			l7.9-37.3c4-20.6-2.4-42-17.6-56.4c-33.7-31.8-98-46-98-46c74.4-10.3,121.3,11.8,121.3,11.8s0,0,3.2-28.5
			c3.8-34.6-80.8-66.7-80.8-66.7c57.7-16.7,98.8,15.4,98.8,15.4c30.8-50-56.5-83.4-56.5-83.4c48.8-11.5,75.5,6.6,75.5,6.6
			c24.3-62.1,77.6-90.1,77.6-90.1c-36.7,36.7-36.3,96.3-36.3,96.3c70.7-15.7,127,9,127,9c-61.6-2.4-101.3,10.8-122.5,21.1
			c-11.6,5.6-19.4,16.7-20.9,29.5l-1.4,12.3c133.7-33.4,169.1,27.3,169.1,27.3c-103.9-33.3-159,2.3-177.3,18.4
			c-4.4,3.9-7.4,9.1-8.6,14.9l-5,25.7C357.1,278.1,388.9,332.8,388.9,332.8z"/>
	</g>
</g>
</svg>
