<?xml version="1.0" encoding="utf-8"?>
<!-- Generator: Adobe Illustrator 22.1.0, SVG Export Plug-In . SVG Version: 6.00 Build 0)  -->
<svg version="1.1" id="Layer_1" xmlns="http://www.w3.org/2000/svg" xmlns:xlink="http://www.w3.org/1999/xlink" x="0px" y="0px"
	 viewBox="0 0 500 500" style="enable-background:new 0 0 500 500;" xml:space="preserve">
<style type="text/css">
	.st0{fill:#E4D3B1;}
	.st1{fill:#AC796B;}
	.st2{fill:#FFFFFF;}
	.st3{fill:#C6B597;}
	.st4{fill:#9B695D;}
	.st5{fill:#8FC7D6;}
	.st6{fill:none;}
	.st7{fill:#F3F4FF;}
	.st8{fill:#8F435F;}
	.st9{fill:#030203;}
	.st10{fill:#85BAC6;}
</style>
<g>
	<path class="st0" d="M330.7,390.7c-10.4,6.6-14.2,2.5-15.4-3.2h-11.9l-4-36.6c0,0-16.2-21.8-5.6-61.8c10.6-40,3.7-67.3,3.7-67.3
		l-21.8-28.7c0,0,1.8-20.7,2.2-21.8c0.3-0.8,14.7-12.8,21.3-18.3l-26.2,19.7l-127.6,15.7c0,0-95.3,75.9-30.5,182.1
		s189.8,45.8,189.8,45.8s17.7-7.7,33.8-32.7C336.1,386.7,333.5,389,330.7,390.7z"/>
	<path class="st1" d="M320,180.6c9.1,10.4,21.2,26.8,30.4,48.2C342.5,207.1,330.5,191.3,320,180.6z"/>
	<path class="st1" d="M338.6,383.7c6.7-7.9,12.4-20,16.3-35.8C350.3,362.6,344.6,374.4,338.6,383.7z"/>
	<path class="st2" d="M302.5,151.2c0.1-0.6,0.1-0.9,0.1-0.9s-1.3,1.1-3.3,2.7l3-2.3L302.5,151.2z"/>
	<path class="st2" d="M278,171.4c-0.4,1.1-2.2,21.8-2.2,21.8l21.8,28.7c0,0,6.9,27.2-3.7,67.3c-10.6,40,5.6,61.8,5.6,61.8l4,36.6
		h11.9c-1.2-5.7,0.2-12.9,0.2-12.9l-7.7-50.9l7.7-48.9v-21.8l-16.2-40.4l-10.4-25.6l9-24.2c0,0,1.1,0.6,3.1,1.9
		c0.6-6.4,1.2-11.6,1.5-13.6l-0.1-0.5l-3,2.3C292.7,158.5,278.3,170.5,278,171.4z"/>
	<path class="st2" d="M288.9,187.1l10.4,25.6l16.2,40.4v21.8l-7.7,48.9l7.7,50.9c0,0-1.4,7.3-0.2,12.9H330
		c-16.3-28.3-12.4-73.4-9.5-118.1c2.9-44.7-16.7-59.9-20-68.6c-2-5.3-0.8-23.1,0.5-36c-1.9-1.3-3.1-1.9-3.1-1.9L288.9,187.1z"/>
</g>
<path class="st3" d="M249.4,314.3l-6.2,0.4c0,0-5.2,4.9-5.9,12.6v-1.6c-18,2.3-41.8,0.2-63.4-3.1c0-0.1,0-0.1,0-0.2
	c0.9-29.4,4.2-61,6.1-73.5c10.2,1.2,22.1,2,35.8,2.1l1.4-4.8c-98.6-5.9-98.2-26.9-98.2-26.9l-2.6,3.9c0,0,7.9,17.7,57.2,24.8l-0.1,0
	c0,0-3.2,37.3-4.8,73.7c-27.9-4.6-51-10.7-51-10.7l0,0.1c0.1-12.9-4.6-28.8-19.5-46.9l-1.4,8.6c0,0,33.7,37.6,3.2,66.9l3.2,7.5
	c0,0,11.6-10.8,14.1-29.3c17.3,5.1,35.3,8.7,51.2,10.8c-0.9,23.6-1,45.7,1.1,55.8c0,0-22.1,5.4-32.4,15l5.4,5.1
	c0,0,14.9-12.9,29.3-13.4c0,0,36.1,22.7,60.3,21.7l-2.1-7.1c0,0-13.6,4.5-55.5-21.4c0,0-1.3-25.5-0.7-55.1
	c36.2,4.5,63.6,3.1,63.6,3.1v-2c0.6,7.3,5.6,16.5,21.4,26.1l5.9-3.3C264.6,353.4,228,337.1,249.4,314.3z"/>
<g>
	<path class="st1" d="M360,308.3c0.5-14.5-0.1-30.6-2.2-48.1c-0.9-7.6-2.4-14.7-4.3-21.4c-17.2-21.5-47.7-31.8-47.7-31.8l-5.2-6.2
		c35.4,7.7,49.5,28.7,50.5,30.3c-0.3-0.8-0.5-1.6-0.8-2.3c-9.2-21.4-21.3-37.8-30.4-48.2c-8-8.1-15.1-13.2-19-15.8
		c-1.2,13-2.5,30.7-0.5,36c3.3,8.7,22.9,23.9,20,68.6c-1.8,28.4-4.1,56.9-1.3,81.2C342.6,340.8,356.4,315.6,360,308.3z"/>
	<path class="st1" d="M351.9,233.5l1.3,4.1C352.7,236.2,352.3,234.8,351.9,233.5z"/>
	<path class="st1" d="M320.5,359.4c1.8,10.5,4.8,20,9.5,28.2l0.8,3.2c2.2,0.8,3.3,0.2,3.3,0.2c1.9-1.5,3.4-4.8,4.6-7.1
		c6-9.3,11.7-21.1,16.3-35.8c2.1-8.5,3.6-18.2,4.5-28.7C356.8,329.5,321.3,358.7,320.5,359.4z"/>
	<path class="st3" d="M351.2,231.3c0,0-0.1-0.1-0.1-0.2c0.3,0.8,0.5,1.5,0.8,2.3L351.2,231.3z"/>
	<path class="st3" d="M353.6,238.9l-0.4-1.4C353.3,238,353.4,238.4,353.6,238.9C353.5,238.9,353.5,238.9,353.6,238.9z"/>
	<path class="st4" d="M300.6,200.8l1.5,2.9l2.3,3.8c0,0,31.9,9.8,49.1,31.3c-0.1-0.4-0.2-0.9-0.4-1.3l-1.3-4.1
		c-0.3-0.8-0.5-1.6-0.8-2.3C350.1,229.6,335.9,208.6,300.6,200.8z"/>
	<path class="st3" d="M319.2,350.7l0.4,4.5l0.9,4.2c0,0,0,0,0,0C320,356.5,319.5,353.6,319.2,350.7
		C319.2,350.7,319.2,350.7,319.2,350.7z"/>
	<path class="st4" d="M319.2,350.6c0.3,3,0.8,5.9,1.3,8.7c0.8-0.7,36.4-29.9,38.9-40.1c0.3-3.5,0.5-7.2,0.7-11
		C356.4,315.6,342.6,340.8,319.2,350.6z"/>
</g>
<path class="st5" d="M166.5,419c0,0-37.7-8-66.6-79.1c0,0-34.5,19.5-30.5,93l-18.2,15.7H71l-11.3,17l28-7.9l-4.1,16.6
	c0,0,40.8-21.7,62.5-20.7C146.1,453.5,147.6,429.7,166.5,419"/>
<path class="st5" d="M145.5,188.5c0,0-49.4,44.2-49.4,93.3c0,0-55.4,6.3-89.3-3.4c0,0,3.7-12.9,15.5-19.8c0,0,0.6-10.6-10.9-19.2
	c0,0,2.3-11.2,28.7-7.5c0,0,33.7-36.7,93.3-45.8c3.3-0.5,6.7,0,9.8,1.4L145.5,188.5z"/>
<path class="st5" d="M263.8,192.8c0,0-34.3,5.1-48.5,59.8c0,0-0.7,33.9-19.7,45.9c0,0-2.9,5.5,17.9,5.1c0,0,19,20.4,53.6,5.8
	s45.9-55.7,45.9-55.7s7.7-24.5-7.3-46.7C290.8,184.8,263.8,192.8,263.8,192.8z"/>
<g>
	<path class="st5" d="M246,6.2c0,0-82.4-28.1-131.2,35.7c0,0-4.4,7.3-4,14.6c0,0-10.9,9.5-10.9,44c0,0-16.3,10.9-9.8,27.1
		c0,0,0.1,0.5,0.4,1.5l0.9-0.1c1.3-0.4,2.6-0.6,3.9-0.6h5.3c0,0,14.8,28.9,46.9,1.4c0,0,96.9,20.3,118.6,5.3v2.2
		c-21.7,15-118.6-5.3-118.6-5.3c-32,27.5-46.9-1.4-46.9-1.4h-6c-0.9,0-1.8,0.1-2.7,0.3l-0.9,0.1c5.1,15.9,33.8,82.9,152.5,67.7
		c0,0,56.4-10.9,71.6-83.1C315,115.5,325.5,45.9,246,6.2z"/>
	<path d="M94.5,130.5h6c0,0,14.8,28.9,46.9,1.4c0,0,96.9,20.3,118.6,5.3v-2.2c-21.7,15-118.6-5.3-118.6-5.3
		c-32,27.5-46.9-1.4-46.9-1.4h-5.3c-1.3,0-2.7,0.2-3.9,0.6l-0.9,0.1c0.1,0.5,0.3,1.1,0.6,1.8l0.9-0.1
		C92.7,130.6,93.6,130.5,94.5,130.5z"/>
</g>
<path d="M130.7,123.5L130.7,123.5c1.1,0.6,2.5,0.3,3.1-0.8l1.5-2.6c0.6-1.1,0.3-2.5-0.8-3.1v0c-1.1-0.6-2.5-0.3-3.1,0.8l-1.5,2.6
	C129.2,121.5,129.6,122.9,130.7,123.5z"/>
<path d="M102.7,121.3L102.7,121.3c1.1,0.6,2.5,0.3,3.1-0.8l0.6-1c0.6-1.1,0.3-2.5-0.8-3.1l0,0c-1.1-0.6-2.5-0.3-3.1,0.8l-0.6,1
	C101.2,119.2,101.6,120.6,102.7,121.3z"/>
<g>
	<path class="st6" d="M105.6,75.5c-0.6,2.4-1.2,5.4-1.5,9.5C104.5,81.6,105.1,78.2,105.6,75.5z"/>
	<path class="st7" d="M110,64.8C110,64.8,110,64.8,110,64.8L110,64.8C110,64.8,110,64.8,110,64.8z"/>
	<path class="st7" d="M110.1,64.6C110.1,64.6,110.1,64.6,110.1,64.6c0.1-1.3,0.2-2.6,0.2-3.9l0,0L110.1,64.6z"/>
	<path class="st7" d="M99.8,100.4C99.8,100.4,99.8,100.4,99.8,100.4C99.8,100.4,99.8,100.4,99.8,100.4
		C99.8,100.4,99.8,100.4,99.8,100.4z"/>
	<path class="st8" d="M104.2,85c0.3-4.1,0.8-7.1,1.5-9.5c0.3-1.6,0.7-2.9,0.9-3.9c2-6.2,3.1-7,3.4-7l-0.6-3c-0.4-2-1.2-3.9-2.1-5.6
		c-14.4,16.7-10.4,35.8-7.5,44.3c0,0,0.1,0,0.1-0.1c1.6-1.9,2.9-4.1,4-6.5C103.6,91.5,103.8,88.3,104.2,85z"/>
	<path class="st8" d="M109.7,68.6c0.1-1.3,0.2-2.5,0.3-3.7c0,0,0,0,0,0L109.7,68.6z"/>
	<path class="st8" d="M106.3,87.3c0.8-2.6,1.4-5.2,1.9-8l-0.9,3.6L106.3,87.3z"/>
	<path class="st9" d="M110,64.8L110,64.8c0-0.1,0-0.1,0-0.2c0,0,0,0,0,0L110,64.8z"/>
	<path class="st9" d="M110.1,64.6L110.1,64.6C110.1,64.7,110.1,64.7,110.1,64.6L110.1,64.6z"/>
	<path class="st9" d="M109.5,70.6l0.1-0.5c0,0.2,0,0.4-0.1,0.6L109.5,70.6z"/>
	<path class="st9" d="M108.3,79.2l0.1-0.3c0,0.1-0.1,0.3-0.1,0.4L108.3,79.2z"/>
	<path class="st9" d="M103.9,93.8l1.5-2.8l1-3.7C105.6,89.6,104.8,91.8,103.9,93.8C103.9,93.8,103.9,93.8,103.9,93.8z"/>
	<path class="st9" d="M109.3,73l0.1-0.4c0,0.2,0,0.4-0.1,0.5L109.3,73z"/>
	<path class="st9" d="M110,64.7c-0.3,0-0.7,1.6-2.7,6.1c-0.6,1.3-1.2,2.8-1.7,4.7c-0.6,2.7-1.1,6.1-1.5,9.5
		c-0.2,2.5-0.3,5.4-0.3,8.8c0.9-2,1.8-4.2,2.5-6.5c0,0,0,0,0,0l1.1-4.4l0.9-3.6c0-0.1,0.1-0.3,0.1-0.4c0.4-1.9,0.7-3.9,0.9-5.8
		c0-0.2,0-0.4,0.1-0.5l0.2-1.8c0-0.2,0-0.4,0.1-0.6l0.2-1.6l0,0l0,0l0.3-3.7L110,64.7z"/>
	<path class="st9" d="M108.8,76.1l0.4-3c-0.2,1.9-0.6,3.9-0.9,5.8L108.8,76.1z"/>
	<path class="st9" d="M103.9,93.8c0-3.4,0.1-6.3,0.3-8.8C103.8,88.3,103.6,91.5,103.9,93.8z"/>
	<path class="st9" d="M106.6,71.6c-0.3,0.9-0.6,2.3-0.9,3.9c0.5-1.9,1.1-3.5,1.7-4.7c2.1-4.5,2.4-6.1,2.7-6.1l0,0
		C109.7,64.6,108.6,65.5,106.6,71.6z"/>
	<path class="st9" d="M106.3,87.3L106.3,87.3C106.3,87.3,106.3,87.3,106.3,87.3L106.3,87.3z"/>
	<path class="st9" d="M109.7,68.6C109.7,68.6,109.7,68.6,109.7,68.6L109.7,68.6L109.7,68.6z"/>
	<path class="st7" d="M110.4,53.4v-0.7c0,0,0,0,0,0C110.4,53,110.4,53.2,110.4,53.4z"/>
	<path class="st7" d="M111,51.9c-0.7,0.6-1.9,2.1-2.5,2.7c-0.4,0.5-0.8,0.9-1.2,1.4c1,1.7,1.7,3.6,2.1,5.6l0.6,3c0,0,0,0,0,0
		c0,0,0,0,0,0l0.2-3.9l0,0l0.2-2l0.5-3.3l0.1-1.8C111,53.5,111,52.2,111,51.9z"/>
	<path class="st7" d="M110.1,64.6C110.1,64.6,110,64.6,110.1,64.6c0,0.1,0,0.1,0,0.2L110.1,64.6z"/>
	<path class="st7" d="M110,64.8c0-0.1,0-0.1,0-0.2c0,0,0,0,0,0L110,64.8z"/>
	<path class="st7" d="M110,64.7C110,64.7,110,64.6,110,64.7C110,64.6,110,64.6,110,64.7L110,64.7z"/>
	<polygon class="st8" points="107,48.5 106.9,48.5 107,48.5 	"/>
</g>
<path class="st7" d="M203.6,87.1v21.2c0,0-1.2,6.8,23.3,7.3c12.2,0.2,19.1-4.6,23-9.6c3.2-4.1,4.7-9.3,4.7-14.5V75.8
	c0-3.8-0.5-7.5-1.5-11.1c-2.1-7.4-6.8-18.4-17.1-21.8c-1.6-0.5-3.4-0.4-4.9,0.3C224.7,46.3,207.1,57.3,203.6,87.1z"/>
<path class="st8" d="M235.3,42.6l-3.4,0.4l-4.4,2.2l-3.9,2.8l-4.1,3.6l-3.7,4.1l-3.6,5.2l-3.2,6l-2,5l-1.7,5.5l-1.4,6.9l-0.4,6.6
	v5.9v5.6l0,6.1l1.3,2.6l3.3,2l5.1,1.5l6.2,0.9l7.4,0.4l6.3,0l5.4-1.6c0,0,11.5-2.2,8.9-62.1l-1.7-2.2l-2.3-2.4l-2.7-2.1l-2.9-1.6
	L235.3,42.6z"/>
<path class="st9" d="M220.4,63.2c0,0-14.6,32.2,1.2,40c13.5,6.6,14.8-27.8,14.9-38.3c0-2.6-0.8-5.2-2.7-7.2
	C231.3,55,226.7,53.6,220.4,63.2z"/>
<circle class="st7" cx="234.6" cy="60.2" r="11.4"/>
<path class="st10" d="M222.5,275.5"/>
<path class="st10" d="M249.9,282.9c-2.3-13-9.5-22-9.5-22c-10.3,2.3-16.7,15.8-16.7,15.8l4.7,2.1c0,0,3.5-9.1,10.5-11.9
	c0,0,4.9,6.2,6.2,16.1H249.9z"/>
<path class="st10" d="M270.7,300.4c7.8-2.9,9.7-13.2,9.7-13.2c-2.7-3.9-24.3-2.1-24.3-2.1l1.9,4.7c0,0,9.2-0.9,16.6,0.6
	c0,0-3.1,5.8-8.2,7.9L270.7,300.4z"/>
<path class="st10" d="M49.5,238.2c-0.5,0.1-13.3,13.4-14.7,17.1c0,0,2.5,10.1,22.4,8.6v-4.2c0,0-10.7,3-18-3.8
	c0,0,6.7-10.3,13.7-14.9L49.5,238.2z"/>
<g>
	<path class="st5" d="M475.2,331.1c-30.8-24.8-71.3-9.7-71.3-9.7s-24.2,8.5-40.2,41.1c-16,32.7-33,28.3-33,28.3s-5.7-31.7-33.3-40.5
		s-49.6,15.4-49.6,15.4s-24.8,20.7-16.6,45.9l6.3,12.9c0,0,18.8,30.8,16.6,71.6c0,0,23.7-18.3,45.4,3.7l0,0c0,0,13.4-16.9,39.7-6.2
		c0,0,1.4-9.3-1.9-15.1c-6-10.5-2.5-35.5-2.5-35.5s46.8,16,87.6,11c15.1-1.9,27.4-6.4,37.3-12.6c-15,2-56.1,3.7-56.1-39.5
		c0-52.8,50.9-27.3,50.9-27.3l-1.8,5c-45.4-22.9-44.3,23.2-44.3,23.2c0,39.2,46.2,34.5,60.2,32.1c11.8-10,19.4-22.7,24.4-35.9
		C493.1,398.9,506,355.9,475.2,331.1z"/>
	<path class="st10" d="M408.5,402.6c0,0-1.2-46.1,44.3-23.2l1.8-5c0,0-50.9-25.5-50.9,27.3c0,43.2,41.1,41.5,56.1,39.5
		c3.2-2,6.2-4.2,8.9-6.5C454.7,437.1,408.5,441.9,408.5,402.6z"/>
</g>
</svg>
