<?xml version="1.0" encoding="utf-8"?>
<!-- Generator: Adobe Illustrator 22.1.0, SVG Export Plug-In . SVG Version: 6.00 Build 0)  -->
<svg version="1.1" id="Layer_1" xmlns="http://www.w3.org/2000/svg" xmlns:xlink="http://www.w3.org/1999/xlink" x="0px" y="0px"
	 viewBox="0 0 500 412" style="enable-background:new 0 0 500 412;" xml:space="preserve">
<style type="text/css">
	.st0{fill:#FFFFFF;}
	.st1{fill:#53A09A;}
	.st2{fill:#73A56B;}
	.st3{fill:#6BB2AA;}
	.st4{fill:#134944;}
	.st5{fill:#816E5C;}
	.st6{fill:#665344;}
	.st7{fill:#E0848E;}
	.st8{fill:#DBB375;}
	.st9{fill:#EAC5C8;}
	.st10{fill:#C56F70;}
	.st11{fill:#CD4C56;}
	.st12{fill:#9A3F3D;}
	.st13{fill:#CAADBE;}
	.st14{fill:none;stroke:#5DA09B;stroke-miterlimit:10;}
</style>
<g>
	<path class="st0" d="M59.5,336l26.4-5.1l-11.2-8.4l-4.3-15.1C70.5,307.4,60.6,329.1,59.5,336z"/>
	<polygon class="st0" points="83.3,325.6 93.4,342.6 106.3,321.5 85.3,319.7 	"/>
	<path class="st0" d="M191.2,352.6l-21.1,15.9l-23.6-1.8l1.9,3.4l-23-15.3c-0.2,0.3-1.6,19-1.6,19l26-1.1l7.7,13.9l14-14.5l21.1,2.6
		L191.2,352.6z"/>
	<polygon class="st0" points="306.7,357 286.6,391.6 326.9,380.3 	"/>
	<polygon class="st0" points="323.5,411.1 338.5,389.5 315.3,389.5 	"/>
	<path class="st0" d="M364,412l10.4-40.9l-26.3,17.1C348.2,388.8,364,412,364,412z"/>
	<polygon class="st0" points="439.2,337 441.7,303.9 428.7,321.5 415.2,316.8 411.2,341.2 429.7,324.4 	"/>
</g>
<path class="st1" d="M196.7,339.9c0,0,0,35.3-39.6,35.3s-48.7-41.7-48.7-41.7H72.7l-8.8-10.6l0.2-15.1c0,0-35.3-32.1,0-86.1
	s165.8-84,165.8-84l100.5,13.4l110.2,66.3c0,0,63.1,49.7-12.8,116.6c0,0-11.2,7-18.7-7.5l-11.2,19.8c0,0-2.9,9.4-15,16.6l-14.4,22.5
	c0,0-9.1,18.2-46,11.2s-25.7-49.2-25.7-49.2l-70.5-0.5c-8.2-0.1-16.4-1.7-24-4.8L196.7,339.9z"/>
<polygon class="st2" points="500.4,197 469.2,184.7 488.6,180.7 479.8,170.2 452.1,173.7 456.5,171.1 468.7,167.3 467.3,160.3 
	442.8,160.1 448.6,154.4 448.6,150.5 439.8,145.2 414.4,157 423.6,144.8 406.5,144.8 385.4,155.7 399.5,140.8 381,139.9 
	368.3,149.1 374.9,138.2 353.8,136.4 345.9,145.2 348.1,139.5 330.5,139.9 317.8,127.2 309.4,127.2 303.9,121.3 299.5,127.2 
	296.7,127.2 294.1,118.9 287.5,125.4 250.2,121 212.9,125.4 206.3,118.9 203.7,127.2 182.6,127.2 169.9,139.9 152.3,139.5 
	154.5,145.2 146.6,136.4 125.5,138.2 132.1,149.1 119.4,139.9 101,140.8 115,155.7 93.9,144.8 76.8,144.8 86,157 60.6,145.2 
	51.8,150.5 51.8,154.4 64.5,162.5 39.8,157.9 33.6,164.6 43.9,171.1 48.3,173.7 20.6,170.2 11.9,180.7 31.2,184.7 0,197 0,215.9 
	18.4,207.7 9.7,220.3 23.3,222.4 43.9,199.2 32,222.4 54.9,224.6 67.6,190 64.5,220.7 83,218.1 83,207.7 86,219.4 96.6,218.1 
	105.8,187.8 106.7,213.2 125.1,212.8 131.2,194.4 131.2,207.7 140.9,207.7 188.8,209.7 250.2,213.2 311.7,209.7 359.5,207.7 
	369.2,207.7 369.2,194.4 375.3,212.8 393.7,213.2 394.6,187.8 403.8,218.1 414.4,219.4 417.4,207.7 417.4,218.1 435.9,220.7 
	432.8,190 445.5,224.6 468.4,222.4 456.5,199.2 477.1,222.4 490.8,220.3 482,207.7 500.4,215.9 "/>
<path class="st2" d="M451.3,161.4"/>
<path class="st3" d="M354.9,212.4l10.7-38c-26.3-1.4-52.5,3.1-52.5,3.1l-15.9,15.6l-46.9,2.7l-46.9-2.7l-15.9-15.6
	c0,0-26.3-4.5-52.5-3.1l10.7,38c0,0-27.3,24.3-31.8,48.6c0,0,6.9,25.7,38,34l1.9,0.4l-2.7-7.1c0.7,1.7,1.9,4.5,3.9,8.2
	c0.5,1,1.1,2.1,1.8,3.2c7.6,12.8,22.8,32.2,50.5,45.1c4.4,2.1,9.3,3.1,14.2,3.1l27.2,0h3h28.2c4.3,0,8.5-0.9,12.3-2.6
	c28.2-12.9,43.7-32.6,51.4-45.5c0.7-1.1,1.3-2.2,1.8-3.2c2-3.7,3.3-6.6,3.9-8.2l-2.7,7.1l1.9-0.4c31.1-8.3,38-34,38-34
	C382.2,236.7,354.9,212.4,354.9,212.4z"/>
<path class="st4" d="M234.1,291.1h-3.8c-0.5,0-0.9-0.4-0.9-0.9v-3.8c0-0.5,0.4-0.9,0.9-0.9h3.8c0.5,0,0.9,0.4,0.9,0.9v3.8
	C235.1,290.7,234.7,291.1,234.1,291.1z"/>
<path class="st4" d="M270.3,291.1h-3.8c-0.5,0-0.9-0.4-0.9-0.9v-3.8c0-0.5,0.4-0.9,0.9-0.9h3.8c0.5,0,0.9,0.4,0.9,0.9v3.8
	C271.3,290.7,270.9,291.1,270.3,291.1z"/>
<path class="st2" d="M307.8,169.9c-17.5-7.4-19.7-18.6-19.7-18.6h-13.4H248h-26.8h-13.4c0,0-2.2,11.2-19.7,18.6v15.2l27.9-13.8
	l-27.9,16.7l1.9,13.8l29.4-14.5l-24.9,16.7l7.8,13.8l28.2-11.7l-17.1,16.5l7.1,7.8l16-8.9l-6.3,15.6l17.8,13.4l17.8-13.4l-6.3-15.6
	l16,8.9l7.1-7.8l-17.1-16.5l28.2,11.7l7.8-13.8l-24.9-16.7l29.4,14.5l1.9-13.8l-27.9-16.7l27.9,13.8V169.9z"/>
<path class="st5" d="M264.5,66h-6.7h-4.7h-6.7c0,0-32,11.2-32,26.8v8.4v14v19.6c0,0,2.8,20.4,34.8,20l3.9,0v0l2.4,0l2.4,0v0l3.9,0
	c32,0.4,34.8-20,34.8-20v-19.6v-14v-8.4C296.5,77.2,264.5,66,264.5,66z"/>
<polygon class="st6" points="288.7,147.1 280,133.1 272,147.1 264.4,133.1 257.8,147.1 249.7,133.1 240.3,147.1 231.3,133.1 
	220.5,145.5 222,146.9 231.1,136.2 240.3,150.2 249.7,136.1 257.8,150.8 264.5,136.8 272.1,150.3 280,136.3 287.4,148.1 "/>
<polygon class="st6" points="296.5,119.9 276.4,103.1 265.6,117.5 254.6,103.1 242.1,119.5 232.5,105.1 214.5,123.5 214.5,125.7 
	232.5,107.2 242,122.1 254.6,105.6 265.6,120 276.6,105.3 296.5,122 "/>
<polygon class="st6" points="296.5,92.7 281.2,79.2 275.2,89.2 265.2,79.2 254.6,89.2 248.1,79.2 234.9,89.2 230.1,79.2 215.7,87.5 
	215.2,88.6 214.8,90.2 229.2,82 234.1,92 247.8,81.8 254.6,92 265,81.7 275.6,91.9 281.8,81.3 296.5,95.4 "/>
<path class="st7" d="M256.9,67.4c0,0-45.3-2.3-82.8,70.7c0,0-27-5.5-27-6.8c0-1.3,0-9.8,0-9.8l-6.2,6.5l-31.4-13.8l1.4-7.2l-6.9,4.7
	L92,106.5c0,0,16.9-31.6,43.7-44.3c0,0-42.7,13.4-63.5,38c0,0-28.7-50.7,69.4-68.9c0,0,61.3-48.9,107.8-8.8l7.5-7.5l7.2,8.1
	c0,0,41.4-38.4,102.3,13c0,0,84.4,5.9,70.1,64.8l-34.2-16.6c0,0,21.2,15,18.2,23.1c-0.7,2-3.4,4.7-7.3,7.7c-1.6,1.2-9.3-0.9-9.3-0.9
	s0.6,6.6-1.3,7.7c-12.4,7-29.2,13.9-43.4,16.1l-9.8-4.6l0.3,9.1c0,0-6.5,7.2-13.7,7.2C336,149.9,308.4,72.3,256.9,67.4z"/>
<polygon class="st8" points="256.9,67.4 219.1,41.2 219.1,30.6 224.5,33.5 223.3,23.4 236,31.4 238,20 244.8,27.6 256.9,15 
	266.4,29.3 278.6,18.8 282.4,33.1 293.8,26.4 293.8,36.1 299.3,35.7 290.9,50 "/>
<path class="st9" d="M167,60.1c0,0-8.7,0.6-10.1,7.3c-1.4,6.7-5.1,23.3,6.7,27.4c11.8,4.1,26.3-33,26.3-33S179.8,53.6,167,60.1z"/>
<path class="st9" d="M216.6,67.4c0,0-25.1,6.9-8.2,19c0,0,3.2,3.3,14.3-6.9S222.4,68.2,216.6,67.4z"/>
<path class="st9" d="M121.5,51.4c-3.6,0-7.1,1-10.2,2.9c-9,5.5-26.1,17.1-11.3,17.8c19.1,1,22.9-20.7,22.9-20.7H121.5z"/>
<path class="st9" d="M121.9,35.8c0,0-7.5,5.8,5.1,10.8s26.5-11.8,26.5-11.8s0.5-7.6-8.8-5.9l-7.3,3.1L121.9,35.8z"/>
<path class="st9" d="M179.9,11.2c-1.5,0.5-6.6,9.2,0,10.6c6.6,1.4,18.9-11.2,18.2-14.6l-4.5,0.6L191,8.2l-2,0.5
	c-0.8,0.1-1.6,0.4-2.3,0.6l-2.4,0.6L179.9,11.2z"/>
<path class="st9" d="M221.4,8.3c0,0-10.8,1.6-11.3,8.8c0,0,20.4,2.4,23.8-4.7l-0.3-0.2l-5.9-2.3c-0.4-0.2-0.8-0.3-1.2-0.4L221.4,8.3
	z"/>
<path class="st9" d="M194,55.1c0.8,0.1,15.9-3.2,16.4-7.5c0.5-4.3-14.2-4.3-14.2-4.3S181.7,53.8,194,55.1z"/>
<path class="st9" d="M342.7,93.4c0,0-26.3,9.4-9.2,23.4c17.1,14,22.9-19.3,22.9-19.3S357.4,89.5,342.7,93.4z"/>
<path class="st9" d="M335.9,67.4c0,0,20.2-2.6,17.4,9.7C350.4,89.5,335.9,67.4,335.9,67.4z"/>
<path class="st9" d="M290.4,59.9c0,0,22.5,2.3,21.2-8.2c-0.5-4-26.6,0.8-23.9,5.9C288.9,59.9,290.4,59.9,290.4,59.9z"/>
<path class="st9" d="M364.3,54.2c4.3,0.6,11.4,2.2,15.4,6.9c1.1,1.3,2.7,2.1,4.4,2c6.8-0.5,21.8-2.7,7.6-14.3c0,0-15.1-9.5-31.2-0.9
	c-0.9,0.5-1.3,1.5-0.9,2.5v0C360.4,52.5,362.2,53.9,364.3,54.2z"/>
<path class="st9" d="M333.7,28c0,0-3.3,6-6,6.8c-2.6,0.8-11.5,4.6-3.6,7.7c7.9,3.1,16.5,0.6,15-5.2c0,0,1.7-3,8.8-1.4
	C347.9,36,348.1,24.4,333.7,28z"/>
<path class="st9" d="M307.9,15c13.8-2.4,12.4,7.2,11.4,11c-0.9,3.8-13.6,1.4-13.6,1.4S291.9,17.8,307.9,15z"/>
<path class="st9" d="M401.2,70c0.1-0.9,19.2,10.5,11.4,9.9C411.2,79.8,399.4,81.8,401.2,70z"/>
<path class="st10" d="M138.8,176.6l10.2,33.1c0,0,11.4-7.1,22.4-6.6C171.4,203.2,155.3,182,138.8,176.6z"/>
<path class="st10" d="M350.8,209.8l10.8-33.2c-16.4,5.4-36.2,24.9-36.2,24.9l3.7,0.6c6.6,1,13,3.1,18.8,6.2L350.8,209.8z"/>
<path class="st0" d="M160.7,237.4c0,0-4.4,28,17.7,28.3s15-15.3,15-15.3l-32.3-16.5L160.7,237.4z"/>
<path class="st11" d="M173.8,240.4c0,0-3.6,13.7,4.8,15c8.4,1.3,10.1-7.4,10.1-7.4L173.8,240.4z"/>
<path class="st0" d="M337.5,235.5c0,0,4.4,28-17.7,28.3c-22.1,0.3-15-15.3-15-15.3l32.3-16.5L337.5,235.5z"/>
<path class="st11" d="M324.4,238.5c0,0,3.6,13.7-4.8,15c-8.4,1.3-10.1-7.4-10.1-7.4L324.4,238.5z"/>
<path class="st12" d="M330.8,279.2l-33.9,3.3c0,0-21.9,15.5-46.4,16.2c-24.5-0.8-46.3-14.7-46.3-14.7l-31.2,0.2
	c-8.1,26.6,21.6,43.7,36.4,51.2c4.7,2.4,9.9,3.6,15.2,3.6h25.8h26.2c4.9,0,9.7-1.2,14-3.5C305.8,327.7,339,306.6,330.8,279.2z"/>
<path class="st13" d="M187.8,284.2c0,0-16.4,15,4.5,30.1s40.6,17,40.6,17h39.8c0,0,47.7-15.3,44.6-31.9s-7.8-18.1-7.8-18.1
	l-12.7,1.2l-9.6,5.7l-6.4,3.1l-13.1,4.7l-6.1,1.5l-5.1,0.8l-7,0.4l-5.7-0.5l-5.9-0.9l-8.1-2l-5.4-1.7l-6.2-2.4l-6.9-3.2l-7.2-3.9
	l-7.4,0.1L187.8,284.2z"/>
<path class="st0" d="M179.8,285.7c0,0,0.2,4.9,4.4,10.7c0,0,4-5.1,4.7-10.7H179.8z"/>
<path class="st0" d="M191.8,325.9c0.4-0.8,7.5-7.8,7.5-7.8l0.5,12.6L191.8,325.9z"/>
<polygon class="st0" points="201.6,332.1 206.9,322.2 210.2,336.8 "/>
<polygon class="st0" points="288,337.7 291.4,323.5 298.1,332.7 "/>
<polygon class="st0" points="300.8,330.6 298.1,319 312,323.5 "/>
<path class="st0" d="M308.4,281.8c0,0,1.5,8.1,5,12.2c0,0,6.4-6.2,7.6-13.4L308.4,281.8z"/>
<path class="st14" d="M330.8,279.2l-33.9,3.3c0,0-21.9,15.5-46.4,16.2c-24.5-0.8-46.3-14.7-46.3-14.7l-31.2,0.2
	c-8.1,26.6,21.6,43.7,36.4,51.2c4.7,2.4,9.9,3.6,15.2,3.6h25.8h26.2c4.9,0,9.7-1.2,14-3.5C305.8,327.7,339,306.6,330.8,279.2z"/>
</svg>
