<?xml version="1.0" encoding="utf-8"?>
<!-- Generator: Adobe Illustrator 24.1.3, SVG Export Plug-In . SVG Version: 6.00 Build 0)  -->
<svg version="1.1" id="Capa_1" xmlns="http://www.w3.org/2000/svg" xmlns:xlink="http://www.w3.org/1999/xlink" x="0px" y="0px"
	 viewBox="0 0 255.1 255.1" style="enable-background:new 0 0 255.1 255.1;" xml:space="preserve">
<style type="text/css">
	.st0{fill-rule:evenodd;clip-rule:evenodd;fill:#FFFFFF;}
</style>
<path class="st0" d="M107.5,189.9c3.5,0.5,7.2,0.7,10.9,0.7c39.3,0,71.2-27.8,71.2-62.1c0-34.3-31.9-62.1-71.2-62.1
	c-2.6,0-5.2,0.1-7.8,0.4C130.1,79.7,143,102,143,127.4C143,154.1,128.7,177.4,107.5,189.9z M127.6,205c42.7,0,77.4-34.6,77.4-77.4
	s-34.6-77.4-77.4-77.4s-77.4,34.6-77.4,77.4S84.9,205,127.6,205z"/>
</svg>
