<?xml version="1.0" encoding="utf-8"?>
<!-- Generator: Adobe Illustrator 24.1.3, SVG Export Plug-In . SVG Version: 6.00 Build 0)  -->
<svg version="1.1" id="Capa_1" xmlns="http://www.w3.org/2000/svg" xmlns:xlink="http://www.w3.org/1999/xlink" x="0px" y="0px"
	 viewBox="0 0 255.1 255.1" style="enable-background:new 0 0 255.1 255.1;" xml:space="preserve">
<style type="text/css">
	.st0{fill-rule:evenodd;clip-rule:evenodd;fill:#FFFFFF;}
</style>
<path class="st0" d="M74,180.1l28.7-8.3l24.8,45.4c0,0.1,0.1,0.1,0.1,0l24.8-45.4l28.7,8.3c0.1,0,0.1,0,0.1-0.1l-8.3-28.2l44.1-24.1
	c0.1,0,0.1-0.1,0-0.1l-44.5-24.3l8.7-29.4c0-0.1,0-0.1-0.1-0.1l-29.4,8.5l-24.1-44.2c0-0.1-0.1-0.1-0.1,0l-24.1,44.2L74,73.7
	c-0.1,0-0.1,0-0.1,0.1l8.7,29.4l-44.5,24.3c-0.1,0-0.1,0.1,0,0.1l44.1,24.1L73.9,180C73.8,180,73.9,180.1,74,180.1z M96.3,127.9
	l20.4,11.1l11.1,20.4c0,0.1,0.1,0.1,0.1,0L139,139l20.4-11.1c0.1,0,0.1-0.1,0-0.1L139,116.6l-11.1-20.4c0-0.1-0.1-0.1-0.1,0
	l-11.1,20.4l-20.4,11.1C96.2,127.8,96.2,127.9,96.3,127.9z"/>
</svg>
