<?xml version="1.0" encoding="utf-8"?>
<!-- Generator: Adobe Illustrator 24.1.3, SVG Export Plug-In . SVG Version: 6.00 Build 0)  -->
<svg version="1.1" id="Capa_1" xmlns="http://www.w3.org/2000/svg" xmlns:xlink="http://www.w3.org/1999/xlink" x="0px" y="0px"
	 viewBox="0 0 255.1 255.1" style="enable-background:new 0 0 255.1 255.1;" xml:space="preserve">
<style type="text/css">
	.st0{fill-rule:evenodd;clip-rule:evenodd;fill:#FFFFFF;}
</style>
<path class="st0" d="M83.1,173.9C83,173.9,83,173.8,83.1,173.9l40.2-102.9c0,0,0,0,0.1,0h51c0,0,0.1,0,0.1,0l39.7,102.8
	c0,0,0,0.1-0.1,0.1H83.1L83.1,173.9z M35.4,174.3C35.3,174.3,35.3,174.3,35.4,174.3l30.9-80.2c0,0,0,0,0.1,0h26.1c0,0,0.1,0,0.1,0.1
	l-30,80.1c0,0,0,0-0.1,0H35.4z"/>
</svg>
