<?xml version="1.0" encoding="utf-8"?>
<!-- Generator: Adobe Illustrator 23.0.1, SVG Export Plug-In . SVG Version: 6.00 Build 0)  -->
<svg version="1.1" id="Layer_1" xmlns="http://www.w3.org/2000/svg" xmlns:xlink="http://www.w3.org/1999/xlink" x="0px" y="0px"
	 viewBox="0 0 49.2 49.2" style="enable-background:new 0 0 49.2 49.2;" xml:space="preserve">
<style type="text/css">
	.st0{fill:#4E4E4E;}
</style>
<title>pokeball-BW</title>
<g>
	<path class="st0" d="M24.6,0C11,0,0,11,0,24.6s11,24.6,24.6,24.6s24.6-11,24.6-24.6S38.1,0,24.6,0z M24.6,46.6
		c-12.1,0-21.8-9.5-21.8-21.1H17c0-0.3,0-0.6,0-0.8c0-0.3,0-0.6,0-0.8H2.7c0-11.7,9.8-21.1,21.8-21.1s21.8,9.5,21.8,21.1H32.2
		c0,0.3,0,0.6,0,0.8c0,0.3,0,0.6,0,0.8h14.3C46.4,37.1,36.6,46.6,24.6,46.6z"/>
	<path class="st0" d="M18.5,24.6c0-0.3,0-0.6,0.1-0.8H17c0,0.3,0,0.6,0,0.8c0,0.3,0,0.6,0,0.8h1.6C18.6,25.1,18.5,24.9,18.5,24.6z"
		/>
	<path class="st0" d="M30.6,24.6c0,0.3,0,0.6-0.1,0.8h1.6c0-0.3,0-0.6,0-0.8c0-0.3,0-0.6,0-0.8h-1.6C30.6,24,30.6,24.3,30.6,24.6z"
		/>
	<path class="st0" d="M24.6,18.5c3.1,0,5.6,2.3,6,5.2h1.6c-0.4-3.8-3.7-6.8-7.6-6.8s-7.2,3-7.6,6.8h1.6C19,20.8,21.5,18.5,24.6,18.5
		z"/>
	<path class="st0" d="M24.6,32.2c3.9,0,7.2-3,7.6-6.8h-1.6c-0.4,2.9-2.9,5.2-6,5.2s-5.6-2.3-6-5.2H17C17.4,29.2,20.6,32.2,24.6,32.2
		z"/>
	<path class="st0" d="M20.6,24.6c0,0.3,0,0.6,0.1,0.8h7.7c0.1-0.3,0.1-0.6,0.1-0.8c0-0.3,0-0.6-0.1-0.8h-7.7
		C20.7,24,20.6,24.3,20.6,24.6z"/>
	<path class="st0" d="M24.6,20.6c-1.9,0-3.5,1.3-3.8,3.1h7.7C28,22,26.5,20.6,24.6,20.6z"/>
	<path class="st0" d="M24.6,28.5c1.9,0,3.5-1.3,3.8-3.1h-7.7C21.1,27.2,22.7,28.5,24.6,28.5z"/>
</g>
</svg>
