<?xml version="1.0" encoding="utf-8"?>
<!-- Generator: Adobe Illustrator 23.0.1, SVG Export Plug-In . SVG Version: 6.00 Build 0)  -->
<svg version="1.1" id="Layer_1" xmlns="http://www.w3.org/2000/svg" xmlns:xlink="http://www.w3.org/1999/xlink" x="0px" y="0px"
	 viewBox="0 0 50 50" style="enable-background:new 0 0 50 50;" xml:space="preserve">
<style type="text/css">
	.st0{fill:#4E4E4E;}
</style>
<path class="st0" d="M49,45.2L34.8,31c2.4-3.2,3.8-7.1,3.8-11.4C38.6,9,30.1,0.4,19.5,0.4S0.4,9,0.4,19.5S9,38.6,19.5,38.6
	c4.4,0,8.5-1.5,11.7-4.1l14.2,14.2c1,1,2.6,1,3.6,0C50,47.7,50,46.1,49,45.2z M19.5,34.6c-8.3,0-15.1-6.8-15.1-15.1
	c0-8.3,6.8-15.1,15.1-15.1s15.1,6.8,15.1,15.1C34.6,27.9,27.9,34.6,19.5,34.6z"/>
</svg>
