<?xml version="1.0" encoding="utf-8"?>
<!-- Generator: Adobe Illustrator 24.1.3, SVG Export Plug-In . SVG Version: 6.00 Build 0)  -->
<svg version="1.1" id="Layer_1" xmlns="http://www.w3.org/2000/svg" xmlns:xlink="http://www.w3.org/1999/xlink" x="0px" y="0px"
	 viewBox="0 0 512 512" style="enable-background:new 0 0 512 512;" xml:space="preserve">
<style type="text/css">
	.st0{fill:#4E4E4E;}
</style>
<g>
	<path class="st0" d="M496.7,181.6l-17.8-43c-5.8-14.7-21.9-22.6-37.3-18.3l-38.1,10.5c-6.7-7.8-14-15.2-22-22l10.4-38.2
		c4.3-15.3-3.5-31.3-18.1-37.4l-43.3-17.9c-14.6-6.1-31.5-0.2-39.3,13.5l-19.7,34.4c-10.4-0.8-20.9-0.8-31.1,0l-19.6-34.4
		c-7.9-13.9-24.8-19.7-39.2-13.5l-43,17.8C123.9,39,116,55,120.2,70.5l10.5,38.1c-7.8,6.7-15.2,14-22,22l-38.2-10.4
		c-15.3-4.3-31.3,3.5-37.4,18.1l-17.9,43.3v0c-6.1,14.6-0.2,31.5,13.5,39.3l34.4,19.7c-0.8,10.4-0.8,20.9,0,31.1l-34.4,19.6
		c-13.9,7.9-19.7,24.8-13.5,39.2l17.8,43C39,388.1,55,396,70.5,391.8l38.1-10.5c6.7,7.8,14,15.2,22,22l-10.4,38.2
		c-4.3,15.3,3.5,31.3,18.1,37.4l43.3,17.9c14.6,6.1,31.5,0.2,39.3-13.5l19.7-34.4c10.4,0.8,20.9,0.8,31.1,0l19.6,34.4
		c7.9,13.9,24.8,19.7,39.2,13.5l43-17.8c14.7-5.8,22.5-21.9,18.3-37.3l-10.5-38.1c7.8-6.7,15.2-14,22-22l38.2,10.4
		c15.3,4.3,31.3-3.5,37.4-18.1l17.9-43.3c6.1-14.6,0.2-31.5-13.6-39.2l-34.4-19.7c0.8-10.5,0.8-20.9,0-31.1l34.4-19.6
		C497.1,212.9,502.9,196,496.7,181.6z M439.8,224.3c-3.8,2.2-5.9,6.4-5.4,10.7c1.6,13.6,1.6,27.7,0,41.8c-0.5,4.3,1.6,8.5,5.4,10.7
		l42,24c4.7,2.6,6.8,8.6,4.7,13.6l-18.7,45c-2.1,5-7.7,7.7-13.1,6.2l-46.6-12.7c-4.2-1.1-8.7,0.3-11.4,3.7
		c-8.9,11.1-18.8,21.1-29.6,29.5c-3.4,2.7-4.9,7.2-3.7,11.4l12.8,46.5c1.5,5.4-1.2,10.9-6.3,12.9l-45.1,18.7
		c-4.9,2.1-10.7,0.1-13.4-4.8l-23.9-41.9c-2.1-3.8-6.4-5.9-10.7-5.4c-13.6,1.6-27.7,1.6-41.8,0c-4.3-0.5-8.5,1.6-10.7,5.4l-24,42
		c-2.6,4.7-8.6,6.8-13.6,4.7l-45-18.7c-5-2.1-7.7-7.7-6.3-13l12.7-46.6c1.1-4.2-0.3-8.7-3.7-11.4c-11.1-8.8-21-18.8-29.5-29.6
		c-2.7-3.4-7.2-4.9-11.4-3.7l-46.5,12.8c-5.4,1.5-10.9-1.2-12.9-6.3L25.5,325c-2.1-4.9,0-10.7,4.8-13.5l41.9-23.9
		c3.8-2.1,5.9-6.4,5.4-10.7c-1.6-13.6-1.6-27.7,0-41.8c0.5-4.3-1.6-8.5-5.4-10.7l-42-24c-4.7-2.6-6.8-8.6-4.7-13.6l18.7-45
		c2.1-5,7.7-7.7,13-6.2l46.6,12.7c4.2,1.1,8.7-0.3,11.4-3.7c8.8-11.1,18.8-21,29.6-29.5c1.5-1.2,2.6-2.7,3.3-4.4h0
		c0.9-2.2,1.1-4.7,0.5-7.1l-12.8-46.5c-1.4-5.4,1.2-10.9,6.3-12.9l45.1-18.7c4.9-2.1,10.7-0.1,13.4,4.8l23.9,41.9
		c2.1,3.8,6.4,5.9,10.7,5.4c13.6-1.6,27.7-1.6,41.8,0c4.3,0.5,8.5-1.6,10.7-5.4l24-42c2.6-4.7,8.6-6.8,13.6-4.7l45,18.7
		c5,2.1,7.7,7.7,6.2,13l-12.7,46.6c-1.1,4.2,0.3,8.7,3.7,11.4c11.1,8.8,21,18.8,29.5,29.6c2.7,3.4,7.2,4.9,11.4,3.7l46.5-12.8
		c5.4-1.5,10.9,1.2,12.9,6.3l18.7,45.1c2.1,4.9,0.1,10.7-4.8,13.4L439.8,224.3z"/>
	<path class="st0" d="M190.5,190.5c-36.1,36.1-36.1,94.9,0,131s94.9,36.1,131,0s36.1-94.9,0-131S226.6,154.3,190.5,190.5z
		 M308.4,308.4c-28.9,28.9-75.9,28.9-104.8,0s-28.9-75.9,0-104.8s75.9-28.9,104.8,0S337.3,279.5,308.4,308.4z"/>
</g>
</svg>
