<?xml version="1.0" encoding="utf-8"?>
<!-- Generator: Adobe Illustrator 24.1.3, SVG Export Plug-In . SVG Version: 6.00 Build 0)  -->
<svg version="1.1" id="Layer_1" xmlns="http://www.w3.org/2000/svg" xmlns:xlink="http://www.w3.org/1999/xlink" x="0px" y="0px"
	 viewBox="0 0 100 100" style="enable-background:new 0 0 100 100;" xml:space="preserve">
<style type="text/css">
	.st0{fill:#4E4E4E;}
</style>
<g>
	<path class="st0" d="M30.1,43C28.7,67.3,5.8,70.3,5.8,70.3l-0.9,0c0,0,23.1,1.3,26.3,25.4c0,0,1.6-22.2,24.8-27.3l0.9,0
		C33.4,65,30.1,43,30.1,43z"/>
	<path class="st0" d="M81.4,41.6c-0.5,12.3-12,14-12,14l-0.5,0c0,0,11.7,0.5,13.5,12.6c0,0,0.6-11.2,12.3-14l0.5,0
		C83.2,52.7,81.4,41.6,81.4,41.6z"/>
	<path class="st0" d="M74.9,23.9c-17.7-3-19.8-19.7-19.8-19.7c-1.5,18.4-18.8,20.2-18.8,20.2l-0.7,0c0,0,17.4,1.4,19.4,19.7
		c0,0,1.6-16.7,19.2-20.3L74.9,23.9z"/>
</g>
</svg>
