<?xml version="1.0" encoding="utf-8"?>
<!-- Generator: Adobe Illustrator 24.1.3, SVG Export Plug-In . SVG Version: 6.00 Build 0)  -->
<svg version="1.1" id="Capa_1" xmlns="http://www.w3.org/2000/svg" xmlns:xlink="http://www.w3.org/1999/xlink" x="0px" y="0px"
	 viewBox="0 0 255.1 255.1" style="enable-background:new 0 0 255.1 255.1;" xml:space="preserve">
<style type="text/css">
	.st0{fill-rule:evenodd;clip-rule:evenodd;fill:#FFFFFF;}
</style>
<path class="st0" d="M44.3,127.6c0,0,0-0.1,0-0.1l41.9-71.6c0,0,0.1-0.1,0.1-0.1h83c0,0,0.1,0,0.1,0.1l41.4,71.6c0,0,0,0.1,0,0.1
	l-41.4,71.5c0,0-0.1,0.1-0.1,0.1h-83c0,0-0.1,0-0.1-0.1L44.3,127.6z M166.2,127.5c0,21.3-17.3,38.6-38.6,38.6S89,148.8,89,127.5
	s17.3-38.6,38.6-38.6S166.2,106.2,166.2,127.5z"/>
</svg>
