<?xml version="1.0" encoding="utf-8"?>
<!-- Generator: Adobe Illustrator 23.0.1, SVG Export Plug-In . SVG Version: 6.00 Build 0)  -->
<svg version="1.1" xmlns="http://www.w3.org/2000/svg" xmlns:xlink="http://www.w3.org/1999/xlink" x="0px" y="0px"
	 viewBox="0 0 250 250" style="enable-background:new 0 0 250 250;" xml:space="preserve">
<style type="text/css">
	.st0{display:none;}
	.st1{display:inline;fill:#5DA6DA;}
	.st2{display:inline;fill:#FFFFFF;}
	.st3{display:inline;fill:#5598A3;}
	.st4{display:inline;}
	.st5{fill:#FFFFFF;}
	.st6{display:inline;fill:#F37F81;}
	.st7{display:inline;fill:#CCBF8D;}
	.st8{display:inline;fill:#A767AA;}
	.st9{fill:#A367AB;}
	.st10{fill:#9A9E9F;}
	.st11{display:inline;fill:#80CEC7;}
	.st12{display:inline;fill:#D88856;}
	.st13{fill:#60BD70;}
</style>
<g id="Layer_1">
	
		<image style="display:none;overflow:visible;" width="62" height="62" xlink:href="../../../../../../Downloads/Pokemon Types/Icon_Bug.png"  transform="matrix(1 0 0 1 85.0485 75.1941)">
	</image>
	
		<image style="display:none;overflow:visible;" width="62" height="62" xlink:href="../../../../../../Downloads/Pokemon Types/Icon_Dark.png"  transform="matrix(1 0 0 1 85.0485 75.1941)">
	</image>
	
		<image style="display:none;overflow:visible;" width="62" height="62" xlink:href="../../../../../../Downloads/Pokemon Types/Icon_Dragon.png"  transform="matrix(1 0 0 1 85.0485 75.1941)">
	</image>
	
		<image style="display:none;overflow:visible;" width="62" height="62" xlink:href="../../../../../../Downloads/Pokemon Types/Icon_Electric.png"  transform="matrix(1 0 0 1 85.0485 75.1941)">
	</image>
	
		<image style="display:none;overflow:visible;" width="62" height="62" xlink:href="../../../../../../Downloads/Pokemon Types/Icon_Fairy.png"  transform="matrix(1 0 0 1 85.0485 75.1941)">
	</image>
	
		<image style="display:none;overflow:visible;" width="62" height="62" xlink:href="../../../../../../Downloads/Pokemon Types/Icon_Fighting.png"  transform="matrix(1 0 0 1 85.0485 75.1941)">
	</image>
	
		<image style="display:none;overflow:visible;" width="62" height="62" xlink:href="../../../../../../Downloads/Pokemon Types/Icon_Fire.png"  transform="matrix(1 0 0 1 85.0485 75.1941)">
	</image>
	
		<image style="display:none;overflow:visible;" width="62" height="62" xlink:href="../../../../../../Downloads/Pokemon Types/Icon_Flying.png"  transform="matrix(1 0 0 1 85.0485 75.1941)">
	</image>
	
		<image style="display:none;overflow:visible;" width="62" height="62" xlink:href="../../../../../../Downloads/Pokemon Types/Icon_Ghost.png"  transform="matrix(1 0 0 1 85.0485 75.1941)">
	</image>
	
		<image style="display:none;overflow:visible;" width="62" height="62" xlink:href="../../../../../../Downloads/Pokemon Types/Icon_Grass.png"  transform="matrix(0.762 -0.6476 0.6476 0.762 72.3515 102.6488)">
	</image>
	
		<image style="display:none;overflow:visible;" width="62" height="62" xlink:href="../../../../../../Downloads/Pokemon Types/Icon_Ground.png"  transform="matrix(1 0 0 1 85.0485 75.1941)">
	</image>
	
		<image style="display:none;overflow:visible;" width="62" height="62" xlink:href="../../../../../../Downloads/Pokemon Types/Icon_Ice.png"  transform="matrix(3.8387 0 0 3.8387 5.999 5.999)">
	</image>
	
		<image style="display:none;overflow:visible;" width="62" height="62" xlink:href="../../../../../../Downloads/Pokemon Types/Icon_Normal.png"  transform="matrix(1 0 0 1 85.0485 75.1941)">
	</image>
	
		<image style="display:none;overflow:visible;" width="62" height="62" xlink:href="../../../../../../Downloads/Pokemon Types/Icon_Poison.png"  transform="matrix(1 0 0 1 85.0485 75.1941)">
	</image>
	
		<image style="display:none;overflow:visible;" width="62" height="62" xlink:href="../../../../../../Downloads/Pokemon Types/Icon_Psychic.png"  transform="matrix(1 0 0 1 85.0485 75.1941)">
	</image>
	
		<image style="display:none;overflow:visible;" width="62" height="62" xlink:href="../../../../../../Downloads/Pokemon Types/Icon_Rock.png"  transform="matrix(3.8387 0 0 3.8387 5.999 5.999)">
	</image>
	
		<image style="display:none;overflow:visible;" width="62" height="62" xlink:href="../../../../../../Downloads/Pokemon Types/Icon_Steel.png"  transform="matrix(1 0 0 1 85.0485 75.1941)">
	</image>
	
		<image style="display:none;overflow:visible;" width="62" height="62" xlink:href="../../../../../../Downloads/Pokemon Types/Icon_Water.png"  transform="matrix(1 0 0 1 85.0485 75.1941)">
	</image>
</g>
<g id="Layer_2" class="st0">
	<circle class="st1" cx="125" cy="125" r="119"/>
	<path class="st2" d="M125,68.6c0,0-66.3,80.9-17.4,106.1c10.9,5.6,23.9,5.6,34.7,0C191.3,149.5,125,68.6,125,68.6z"/>
	<path class="st1" d="M147.4,146.9c0,0-1.4,13.9-13.2,20.6c-5.2,2.9-11.6,2.8-17,0.2c-19.4-9.3-11.7-33.9-11.7-33.9
		s1.6,9.3,7.6,15.9c4.7,5.3,12.1,7.2,19,5.6C136.6,154.2,142.8,151.9,147.4,146.9z"/>
</g>
<g id="Layer_3" class="st0">
	<circle class="st3" cx="125" cy="125" r="119"/>
	<g class="st4">
		<path class="st5" d="M156.3,70.8H93.7L62.5,125l31.3,54.2h62.5l31.3-54.2L156.3,70.8z M126.3,158c-18.3,0-33.1-14.8-33.1-33.1
			c0-18.3,14.8-33.1,33.1-33.1c18.3,0,33.1,14.8,33.1,33.1C159.4,143.2,144.5,158,126.3,158z"/>
	</g>
</g>
<g id="Layer_5" class="st0">
	<circle class="st6" cx="125" cy="125" r="119"/>
	<g class="st4">
		<g>
			<g>
				<path class="st5" d="M87,112.7c-0.2,1-0.4,1.9-0.5,2.9c-0.1,1-0.2,2-0.3,2.9c0,0.5-0.1,1-0.1,1.5l0,1.5c0,1,0,1.9,0.1,2.9
					c0.1,1,0.2,1.9,0.3,2.9l0.1,0.7l0.1,0.7l0.3,1.4c0.3,1.9,0.9,3.7,1.5,5.5c0.3,0.9,0.7,1.7,1,2.6c0.4,0.9,0.6,1.7,1.1,2.5
					c0.9,1.6,1.7,3.3,2.8,4.9c2.1,3.2,4.4,6.1,6.9,8.7c5,5.3,10.8,9.3,16.8,12.2c5.9,2.9,12,4.6,17.6,5.5c2.8,0.4,5.6,0.6,8.2,0.7
					c2.6,0,5.1,0,7.4-0.2c4.7-0.4,8.7-1.1,12-1.9c6.6-1.5,10.5-2.8,11.3-1.6c0.4,0.6-0.2,1.6-1.5,3.1c-0.7,0.8-1.6,1.6-2.7,2.5
					c-0.6,0.5-1.2,0.9-1.9,1.4c-0.7,0.5-1.4,1-2.3,1.5c-3.3,2-7.5,4-12.8,5.5c-2.6,0.8-5.5,1.4-8.7,1.8c-3.1,0.4-6.5,0.6-10,0.6
					c-7-0.2-14.8-1.4-22.7-4.4c-7.9-3-15.8-7.6-22.9-14.1c-3.5-3.3-6.8-7-9.7-11.1c-0.7-1.1-1.5-2-2.1-3.2c-0.7-1.1-1.3-2.3-2-3.4
					c-0.7-1.1-1.2-2.4-1.8-3.6c-0.5-1.2-1.2-2.4-1.6-3.7c-0.9-2.6-1.8-5.1-2.3-7.9l-0.4-2l-0.2-1l-0.1-1c-0.2-1.4-0.3-2.8-0.5-4.2
					c-0.2-1.4-0.1-2.8-0.2-4.2l0-2.1c0-0.7,0.1-1.4,0.1-2.1c0.1-1.4,0.2-2.8,0.4-4.3c0.2-1.4,0.5-2.8,0.7-4.2
					c1.2-5.6,3.3-11.8,6.8-18c3.5-6.2,8.5-12.2,15-17.3l0.6-0.5l0.6-0.4l1.3-0.9c0.9-0.6,1.7-1.2,2.6-1.8l0.7-0.4l0.7-0.4l1.4-0.8
					c1-0.5,1.9-1.1,3-1.5c2.1-0.9,4.1-1.8,6.3-2.4l1.6-0.5c0.5-0.2,1.1-0.3,1.7-0.4c1.1-0.2,2.3-0.5,3.4-0.7
					c1.1-0.2,2.3-0.3,3.5-0.4l1.8-0.2c0.6,0,1.2,0,1.8,0c1.2,0,2.4,0,3.6,0c1.2,0.1,2.4,0.2,3.6,0.3c4.8,0.6,9.6,1.8,14.2,3.9
					c4.5,2,8.9,4.7,12.7,8.1c3.8,3.4,7.1,7.4,9.8,11.8c2.8,4.6,4.7,9.8,5.5,15.2c0.8,5.4,0.5,10.9-0.8,16.1
					c-1.3,5.3-3.7,10.2-7,14.5c-3.3,4.3-7.4,7.9-12,10.6c-4.8,2.7-10.3,4.4-15.8,4.5c-5.5,0.1-10.9-1-15.7-3.5
					c-4.8-2.4-9-5.9-12-10.1c-1.5-2.1-2.9-4.4-3.8-7c-0.9-2.5-1.5-5.1-1.6-7.7c-0.3-5.2,0.9-10.4,3.3-14.8c0.3-0.6,0.6-1.1,1-1.6
					c0.3-0.5,0.7-1,1-1.5c0.8-1,1.5-1.9,2.4-2.8c1.7-1.8,3.6-3.2,5.7-4.4c4.3-2.5,9.3-3.3,13.9-2.6c2.3,0.3,4.5,1,6.5,2
					c2,1,3.8,2.3,5.4,3.7c1.6,1.5,2.8,3.2,3.9,5c1.1,1.9,1.7,3.9,2.1,5.9c0.6,4.1-0.2,8.1-2.1,11.3c-0.9,1.6-2.1,3-3.4,4.2
					c-1.3,1.1-2.7,2.1-4.3,2.8c-3.1,1.4-6.5,1.4-9.3,0.7c-2.8-0.8-5.1-2.4-6.6-4.3c-0.8-1-1.4-1.9-1.8-3c-0.4-1.1-0.7-2.1-0.8-3.1
					c-0.2-2,0.2-3.8,0.9-5.1c0.6-1.3,1.5-2.3,2.2-2.9c1.5-1.2,2.6-1.3,2.7-1.1c0.2,0.3-0.5,1-1.2,2.4c-0.4,0.7-0.7,1.6-0.9,2.6
					c-0.2,1-0.2,2.3,0.2,3.5c0.6,2.4,3.3,5,6.7,5.5c1.7,0.2,3.5-0.1,5.1-1c0.8-0.5,1.6-1.2,2.3-1.9c0.7-0.8,1.2-1.7,1.7-2.6
					c0.9-1.9,1.1-4.2,0.5-6.3c-0.3-1.1-0.7-2.1-1.4-3c-0.7-1-1.5-1.9-2.5-2.7c-1-0.8-2-1.4-3.2-1.9c-1.2-0.4-2.4-0.7-3.7-0.8
					c-2.5-0.2-5.1,0.5-7.3,2c-1.1,0.8-2.3,1.7-3.2,2.8c-0.5,0.5-0.9,1.1-1.3,1.7c-0.2,0.3-0.4,0.6-0.5,0.9c-0.2,0.3-0.4,0.6-0.5,1
					c-1.2,2.6-1.7,5.6-1.3,8.4c0.1,1.4,0.6,2.8,1.2,4.2c0.6,1.3,1.4,2.5,2.4,3.8c2,2.5,4.6,4.4,7.5,5.7c2.9,1.3,6.2,1.8,9.3,1.6
					c3.2-0.2,6.2-1.3,8.9-3c2.8-1.8,5.3-4.2,7.2-7c1.9-2.8,3.3-5.9,3.9-9.2c1.4-6.5,0.1-13.4-3.5-18.8c-1.9-2.8-4.2-5.4-6.7-7.5
					c-2.6-2.1-5.5-3.7-8.5-5c-3-1.2-6.1-1.9-9.2-2.2c-0.8-0.1-1.6-0.1-2.3-0.2c-0.8,0-1.5,0.1-2.3,0.1c-0.4,0-0.8,0-1.1,0l-1.1,0.2
					c-0.7,0.1-1.5,0.1-2.2,0.3c-0.7,0.2-1.4,0.3-2.2,0.5c-0.4,0.1-0.7,0.2-1.1,0.3l-1,0.4c-1.4,0.4-2.7,1.1-4,1.6
					c-0.7,0.3-1.2,0.7-1.9,1l-0.9,0.5l-0.5,0.3l-0.4,0.3c-0.6,0.4-1.2,0.9-1.8,1.3l-0.9,0.6l-0.4,0.3l-0.4,0.4
					c-4.4,3.6-7.8,7.8-10.1,12.1C89.2,104.6,87.8,108.9,87,112.7z"/>
			</g>
		</g>
	</g>
</g>
<g id="Layer_4" class="st0">
	<circle class="st7" cx="125" cy="125" r="119"/>
	<polygon class="st2" points="70.5,123.8 105.1,83.1 159.4,83.1 152.4,123.8 96.7,162.9 70.5,155.8 	"/>
	<polygon class="st2" points="152.4,130.9 169.4,150 133.5,176.3 103.8,166.5 	"/>
	<polygon class="st2" points="163.8,83.1 158.4,129.1 173.5,146.5 188.3,133.8 171.4,83.1 	"/>
</g>
<g id="Layer_6" class="st0">
	<circle class="st8" cx="125" cy="125" r="119"/>
	<g class="st4">
		<path class="st5" d="M182.7,117.3c0-25.4-25.8-46-57.7-46s-57.7,20.6-57.7,46c0,13.7,7.5,25.9,19.4,34.3c-0.4,1.9-0.6,3.9-0.6,6
			c0,11.5,6.1,20.8,13.6,20.8c6.5,0,11.8-6.9,13.2-16.1c0.3,0-0.3,0,0,0c1.4,9.2,7.5,16.1,14,16.1c6.6,0,12.1-7.2,13.3-16.8
			c0.2,0,0.3-0.1,0.5-0.1c1.2,9.6,6.7,16.9,13.3,16.9c7.5,0,13.6-9.3,13.6-20.8c0-3-0.4-5.9-1.2-8.5
			C176.5,140.9,182.7,129.7,182.7,117.3z M126,141.5c-19.7,0-35.6-11.2-35.6-25.1s15.9-25.1,35.6-25.1s35.6,11.2,35.6,25.1
			S145.7,141.5,126,141.5z"/>
		<ellipse class="st9" cx="126" cy="116.5" rx="35.6" ry="25.1"/>
	</g>
</g>
<g id="Layer_7" class="st0">
	<g class="st4">
		<path class="st10" d="M125,6C59.3,6,6,59.3,6,125c0,65.7,53.3,119,119,119c65.7,0,119-53.3,119-119C244,59.3,190.7,6,125,6z
			 M125,180.7c-30.8,0-55.7-24.9-55.7-55.7S94.2,69.3,125,69.3s55.7,24.9,55.7,55.7S155.8,180.7,125,180.7z"/>
		<path class="st5" d="M125,69.3c-30.8,0-55.7,24.9-55.7,55.7s24.9,55.7,55.7,55.7s55.7-24.9,55.7-55.7S155.8,69.3,125,69.3z
			 M125,161.6c-20.2,0-36.6-16.4-36.6-36.6c0-20.2,16.4-36.6,36.6-36.6s36.6,16.4,36.6,36.6C161.6,145.2,145.2,161.6,125,161.6z"/>
		<ellipse transform="matrix(0.7071 -0.7071 0.7071 0.7071 -51.7766 125)" class="st10" cx="125" cy="125" rx="36.6" ry="36.6"/>
	</g>
</g>
<g id="Layer_8" class="st0">
	<circle class="st11" cx="125" cy="125" r="119"/>
	<polygon class="st2" points="124.4,169.5 123.8,131.2 90.3,149.8 90.9,188.2 	"/>
	<polygon class="st2" points="129.7,169.5 163.2,188.2 163.8,149.8 130.3,131.2 	"/>
	<polygon class="st2" points="124.4,169.5 123.8,131.2 90.3,149.8 90.9,188.2 	"/>
	<polygon class="st2" points="87,144.4 119.9,124.7 87,105 54.1,124.7 	"/>
	<polygon class="st2" points="129.7,169.5 163.2,188.2 163.8,149.8 130.3,131.2 	"/>
	<polygon class="st2" points="129.7,79.9 130.3,118.2 163.8,99.6 163.2,61.3 	"/>
	<polygon class="st2" points="167,105.1 134.1,124.8 167,144.5 199.9,124.8 	"/>
	<polygon class="st2" points="124.4,79.9 90.9,61.3 90.3,99.6 123.8,118.3 	"/>
</g>
<g id="Layer_9" class="st0">
	<circle class="st12" cx="125" cy="125" r="119"/>
	<polygon class="st2" points="62.4,163.4 86.8,101.9 108.3,101.9 85.4,163.4 	"/>
	<polygon class="st2" points="92.3,163.4 120.9,74.5 155,74.5 186.6,163.4 	"/>
</g>
<g id="Layer_10">
	<g>
		<path class="st5" d="M77.3,179.6L99,153l-3-32l11.2,23l9.8-11.5l-2.5-28.7l9.7,16.8l26.3-27.2l0,0l-19.8,32.2l18.5,5l-28.2,4.9
			l-8.7,12.4l24.7,4.8l-31.1,5.3l-20.6,27.5c21.3,12.2,101.1,47.7,84.6-115.7C2.2,90.9,62.5,164.2,77.3,179.6z"/>
		<path class="st13" d="M200.4,31.6C148.2-10,72.1-1.4,30.4,50.8c-41.6,52.2-33.1,128.3,19.2,170c52.2,41.6,128.3,33.1,170-19.2
			C261.2,149.4,252.6,73.3,200.4,31.6z M85.3,185.6l20.6-27.5l31.1-5.3l-24.7-4.8l8.7-12.4l28.2-4.9l-18.5-5l19.8-32.2l0,0
			l-26.3,27.2l-9.7-16.8l2.5,28.7l-9.8,11.5L96,121l3,32l-21.7,26.6C62.5,164.2,2.2,90.9,169.9,69.9
			C186.3,233.3,106.5,197.8,85.3,185.6z"/>
	</g>
</g>
</svg>
