<?xml version="1.0" encoding="utf-8"?>
<!-- Generator: Adobe Illustrator 23.0.1, SVG Export Plug-In . SVG Version: 6.00 Build 0)  -->
<svg version="1.1" xmlns="http://www.w3.org/2000/svg" xmlns:xlink="http://www.w3.org/1999/xlink" x="0px" y="0px"
	 viewBox="0 0 250 250" style="enable-background:new 0 0 250 250;" xml:space="preserve">
<style type="text/css">
	.st0{display:none;}
	.st1{display:inline;fill:#5DA6DA;}
	.st2{display:inline;fill:#FFFFFF;}
	.st3{display:inline;fill:#5598A3;}
	.st4{display:inline;}
	.st5{fill:#FFFFFF;}
	.st6{fill:#CCBF8D;}
</style>
<g id="Layer_1">
	
		<image style="display:none;overflow:visible;" width="62" height="62" xlink:href="../../../../../../Downloads/Pokemon Types/Icon_Bug.png"  transform="matrix(1 0 0 1 85.0485 75.1941)">
	</image>
	
		<image style="display:none;overflow:visible;" width="62" height="62" xlink:href="../../../../../../Downloads/Pokemon Types/Icon_Dark.png"  transform="matrix(1 0 0 1 85.0485 75.1941)">
	</image>
	
		<image style="display:none;overflow:visible;" width="62" height="62" xlink:href="../../../../../../Downloads/Pokemon Types/Icon_Dragon.png"  transform="matrix(1 0 0 1 85.0485 75.1941)">
	</image>
	
		<image style="display:none;overflow:visible;" width="62" height="62" xlink:href="../../../../../../Downloads/Pokemon Types/Icon_Electric.png"  transform="matrix(1 0 0 1 85.0485 75.1941)">
	</image>
	
		<image style="display:none;overflow:visible;" width="62" height="62" xlink:href="../../../../../../Downloads/Pokemon Types/Icon_Fairy.png"  transform="matrix(1 0 0 1 85.0485 75.1941)">
	</image>
	
		<image style="display:none;overflow:visible;" width="62" height="62" xlink:href="../../../../../../Downloads/Pokemon Types/Icon_Fighting.png"  transform="matrix(1 0 0 1 85.0485 75.1941)">
	</image>
	
		<image style="display:none;overflow:visible;" width="62" height="62" xlink:href="../../../../../../Downloads/Pokemon Types/Icon_Fire.png"  transform="matrix(1 0 0 1 85.0485 75.1941)">
	</image>
	
		<image style="display:none;overflow:visible;" width="62" height="62" xlink:href="../../../../../../Downloads/Pokemon Types/Icon_Flying.png"  transform="matrix(1 0 0 1 85.0485 75.1941)">
	</image>
	
		<image style="display:none;overflow:visible;" width="62" height="62" xlink:href="../../../../../../Downloads/Pokemon Types/Icon_Ghost.png"  transform="matrix(1 0 0 1 85.0485 75.1941)">
	</image>
	
		<image style="display:none;overflow:visible;" width="62" height="62" xlink:href="../../../../../../Downloads/Pokemon Types/Icon_Grass.png"  transform="matrix(1 0 0 1 85.0485 75.1941)">
	</image>
	
		<image style="display:none;overflow:visible;" width="62" height="62" xlink:href="../../../../../../Downloads/Pokemon Types/Icon_Ground.png"  transform="matrix(1 0 0 1 85.0485 75.1941)">
	</image>
	
		<image style="display:none;overflow:visible;" width="62" height="62" xlink:href="../../../../../../Downloads/Pokemon Types/Icon_Ice.png"  transform="matrix(1 0 0 1 85.0485 75.1941)">
	</image>
	
		<image style="display:none;overflow:visible;" width="62" height="62" xlink:href="../../../../../../Downloads/Pokemon Types/Icon_Normal.png"  transform="matrix(1 0 0 1 85.0485 75.1941)">
	</image>
	
		<image style="display:none;overflow:visible;" width="62" height="62" xlink:href="../../../../../../Downloads/Pokemon Types/Icon_Poison.png"  transform="matrix(1 0 0 1 85.0485 75.1941)">
	</image>
	
		<image style="display:none;overflow:visible;" width="62" height="62" xlink:href="../../../../../../Downloads/Pokemon Types/Icon_Psychic.png"  transform="matrix(1 0 0 1 85.0485 75.1941)">
	</image>
	
		<image style="display:none;overflow:visible;" width="62" height="62" xlink:href="../../../../../../Downloads/Pokemon Types/Icon_Rock.png"  transform="matrix(3.8387 0 0 3.8387 5.999 5.999)">
	</image>
	
		<image style="display:none;overflow:visible;" width="62" height="62" xlink:href="../../../../../../Downloads/Pokemon Types/Icon_Steel.png"  transform="matrix(1 0 0 1 85.0485 75.1941)">
	</image>
	
		<image style="display:none;overflow:visible;" width="62" height="62" xlink:href="../../../../../../Downloads/Pokemon Types/Icon_Water.png"  transform="matrix(1 0 0 1 85.0485 75.1941)">
	</image>
</g>
<g id="Layer_2" class="st0">
	<circle class="st1" cx="125" cy="125" r="119"/>
	<path class="st2" d="M125,68.6c0,0-66.3,80.9-17.4,106.1c10.9,5.6,23.9,5.6,34.7,0C191.3,149.5,125,68.6,125,68.6z"/>
	<path class="st1" d="M147.4,146.9c0,0-1.4,13.9-13.2,20.6c-5.2,2.9-11.6,2.8-17,0.2c-19.4-9.3-11.7-33.9-11.7-33.9
		s1.6,9.3,7.6,15.9c4.7,5.3,12.1,7.2,19,5.6C136.6,154.2,142.8,151.9,147.4,146.9z"/>
</g>
<g id="Layer_3" class="st0">
	<circle class="st3" cx="125" cy="125" r="119"/>
	<g class="st4">
		<path class="st5" d="M156.3,70.8H93.7L62.5,125l31.3,54.2h62.5l31.3-54.2L156.3,70.8z M126.3,158c-18.3,0-33.1-14.8-33.1-33.1
			c0-18.3,14.8-33.1,33.1-33.1c18.3,0,33.1,14.8,33.1,33.1C159.4,143.2,144.5,158,126.3,158z"/>
	</g>
</g>
<g id="Layer_4">
	<circle class="st6" cx="125" cy="125" r="119"/>
	<polygon class="st5" points="70.5,123.8 105.1,83.1 159.4,83.1 152.4,123.8 96.7,162.9 70.5,155.8 	"/>
	<polygon class="st5" points="152.4,130.9 169.4,150 133.5,176.3 103.8,166.5 	"/>
	<polygon class="st5" points="163.8,83.1 158.4,129.1 173.5,146.5 188.3,133.8 171.4,83.1 	"/>
</g>
</svg>
