<?xml version="1.0" encoding="utf-8"?>
<!-- Generator: Adobe Illustrator 23.0.1, SVG Export Plug-In . SVG Version: 6.00 Build 0)  -->
<svg version="1.1" xmlns="http://www.w3.org/2000/svg" xmlns:xlink="http://www.w3.org/1999/xlink" x="0px" y="0px"
	 viewBox="0 0 250 250" style="enable-background:new 0 0 250 250;" xml:space="preserve">
<style type="text/css">
	.st0{fill:#5DA6DA;}
	.st1{fill:#FFFFFF;}
</style>
<g id="Layer_1">
	
		<image style="display:none;overflow:visible;" width="62" height="62" xlink:href="../../../../../../Downloads/Pokemon Types/Icon_Bug.png"  transform="matrix(1 0 0 1 85.0485 75.1941)">
	</image>
	
		<image style="display:none;overflow:visible;" width="62" height="62" xlink:href="../../../../../../Downloads/Pokemon Types/Icon_Dark.png"  transform="matrix(1 0 0 1 85.0485 75.1941)">
	</image>
	
		<image style="display:none;overflow:visible;" width="62" height="62" xlink:href="../../../../../../Downloads/Pokemon Types/Icon_Dragon.png"  transform="matrix(1 0 0 1 85.0485 75.1941)">
	</image>
	
		<image style="display:none;overflow:visible;" width="62" height="62" xlink:href="../../../../../../Downloads/Pokemon Types/Icon_Electric.png"  transform="matrix(1 0 0 1 85.0485 75.1941)">
	</image>
	
		<image style="display:none;overflow:visible;" width="62" height="62" xlink:href="../../../../../../Downloads/Pokemon Types/Icon_Fairy.png"  transform="matrix(1 0 0 1 85.0485 75.1941)">
	</image>
	
		<image style="display:none;overflow:visible;" width="62" height="62" xlink:href="../../../../../../Downloads/Pokemon Types/Icon_Fighting.png"  transform="matrix(1 0 0 1 85.0485 75.1941)">
	</image>
	
		<image style="display:none;overflow:visible;" width="62" height="62" xlink:href="../../../../../../Downloads/Pokemon Types/Icon_Fire.png"  transform="matrix(1 0 0 1 85.0485 75.1941)">
	</image>
	
		<image style="display:none;overflow:visible;" width="62" height="62" xlink:href="../../../../../../Downloads/Pokemon Types/Icon_Flying.png"  transform="matrix(1 0 0 1 85.0485 75.1941)">
	</image>
	
		<image style="display:none;overflow:visible;" width="62" height="62" xlink:href="../../../../../../Downloads/Pokemon Types/Icon_Ghost.png"  transform="matrix(1 0 0 1 85.0485 75.1941)">
	</image>
	
		<image style="display:none;overflow:visible;" width="62" height="62" xlink:href="../../../../../../Downloads/Pokemon Types/Icon_Grass.png"  transform="matrix(1 0 0 1 85.0485 75.1941)">
	</image>
	
		<image style="display:none;overflow:visible;" width="62" height="62" xlink:href="../../../../../../Downloads/Pokemon Types/Icon_Ground.png"  transform="matrix(1 0 0 1 85.0485 75.1941)">
	</image>
	
		<image style="display:none;overflow:visible;" width="62" height="62" xlink:href="../../../../../../Downloads/Pokemon Types/Icon_Ice.png"  transform="matrix(1 0 0 1 85.0485 75.1941)">
	</image>
	
		<image style="display:none;overflow:visible;" width="62" height="62" xlink:href="../../../../../../Downloads/Pokemon Types/Icon_Normal.png"  transform="matrix(1 0 0 1 85.0485 75.1941)">
	</image>
	
		<image style="display:none;overflow:visible;" width="62" height="62" xlink:href="../../../../../../Downloads/Pokemon Types/Icon_Poison.png"  transform="matrix(1 0 0 1 85.0485 75.1941)">
	</image>
	
		<image style="display:none;overflow:visible;" width="62" height="62" xlink:href="../../../../../../Downloads/Pokemon Types/Icon_Psychic.png"  transform="matrix(1 0 0 1 85.0485 75.1941)">
	</image>
	
		<image style="display:none;overflow:visible;" width="62" height="62" xlink:href="../../../../../../Downloads/Pokemon Types/Icon_Rock.png"  transform="matrix(1 0 0 1 85.0485 75.1941)">
	</image>
	
		<image style="display:none;overflow:visible;" width="62" height="62" xlink:href="../../../../../../Downloads/Pokemon Types/Icon_Steel.png"  transform="matrix(1 0 0 1 85.0485 75.1941)">
	</image>
	
		<image style="display:none;overflow:visible;" width="62" height="62" xlink:href="../../../../../../Downloads/Pokemon Types/Icon_Water.png"  transform="matrix(1 0 0 1 85.0485 75.1941)">
	</image>
</g>
<g id="Layer_2">
	<circle class="st0" cx="125" cy="125" r="119"/>
	<path class="st1" d="M125,68.6c0,0-66.3,80.9-17.4,106.1c10.9,5.6,23.9,5.6,34.7,0C191.3,149.5,125,68.6,125,68.6z"/>
	<path class="st0" d="M147.4,146.9c0,0-1.4,13.9-13.2,20.6c-5.2,2.9-11.6,2.8-17,0.2c-19.4-9.3-11.7-33.9-11.7-33.9
		s1.6,9.3,7.6,15.9c4.7,5.3,12.1,7.2,19,5.6C136.6,154.2,142.8,151.9,147.4,146.9z"/>
</g>
</svg>
