<?xml version="1.0" encoding="utf-8"?>
<!-- Generator: Adobe Illustrator 22.1.0, SVG Export Plug-In . SVG Version: 6.00 Build 0)  -->
<svg version="1.1" id="Layer_1" xmlns="http://www.w3.org/2000/svg" xmlns:xlink="http://www.w3.org/1999/xlink" x="0px" y="0px"
	 viewBox="0 0 471 500" style="enable-background:new 0 0 471 500;" xml:space="preserve">
<style type="text/css">
	.st0{fill:#FFFFFF;}
	.st1{fill:#5E7AA2;}
	.st2{fill:#E4D3B1;}
	.st3{fill:#0B0505;}
	.st4{fill:#685035;}
	.st5{fill:#AC796B;}
	.st6{fill:#9B6C61;}
	.st7{fill:#CAC7C4;}
	.st8{fill:#7B8092;}
</style>
<path class="st0" d="M13.7,433.6l-13.8,27.7c0,0,15.2,4.2,23.7-3S38.3,437,38.3,437s-0.4-7.6-9.7-8.5S13.7,433.6,13.7,433.6z"/>
<path class="st0" d="M35.8,231.2c0,0-5.1,9.8-3,16.5c0,0,9.7-1.8,11.6-4.6C46.2,240.3,35.8,231.2,35.8,231.2z"/>
<polygon class="st0" points="34.1,216 28.5,221.1 34.6,226.4 38.3,219.7 "/>
<path class="st0" d="M241.8,473.6c0,0-11,5.5-17.9,25.2c0,0,41.9-1.2,52.8-5.2c10.8-4-24.3-27.9-24.3-27.9L241.8,473.6z"/>
<path class="st0" d="M324.5,487.8l42.6,3c0,0-2.2-3.2-6-7.1c-5.4-5.7-14-13-23.6-14.9C321.2,465.7,324.5,487.8,324.5,487.8z"/>
<path class="st0" d="M336.7,457.7c0,0,34.7,8.1,39.3,27.8c0,0-11.7-4.6-19.1-2.6c-7.4,2-26.8-12.5-26.8-12.5l2.6-11L336.7,457.7z"/>
<path class="st0" d="M411.9,276.3c0,0,2.2,14.6,6.6,19.2c0,0,7.5-8,9-19.2C429,265.1,411.9,276.3,411.9,276.3z"/>
<path class="st0" d="M431.4,276.1c0,0,15.8,8.8,16.8,13.4c0,0,2.9-18.2-3.4-31.4C438.4,245,431.4,276.1,431.4,276.1z"/>
<path class="st0" d="M445,244c0,0,17,13.1,19,29.2c0,0-14.6-11.4-25.8-13.1S445,244,445,244z"/>
<path class="st1" d="M224.9,83.5c0,0,19.1-8,4.9-36s-8.6-32-8.6-32l47.1-6.8c0,0,6.2-2.8,12.9-3.7s13.5-7.7,25.6-1.5
	c0,0,21.2-12.3,37.3,9.2c0,0,8.1,9.5-7.7,11.4l36.6-4.3c0,0,24.3,10.8,10.5,40c0,0,2.2,44.6-55.7,64c0,0-10.8-17.9-42.8-33.6
	C284.9,90.3,276.3,82.9,224.9,83.5z"/>
<path class="st2" d="M269.3,85.9c0,0-3-25.1,15.4-16.4c0,0,8.3,11.2,31.6,6.3c23.3-4.9,40.9-21.3,40.9-21.3s21.5-5.1,24.6,3.3
	s-1.9,54.2-54.1,66.2l-2.9-3.9l-3-3.3l-2.7-2.9l-2.6-2.3l-2.5-2.2l-3.4-3l-3-2.1l-3.2-2.3l-3.4-2.3l-3.5-2.2l-4.4-2.6l-2.8-1.6
	l-4.6-2.4l-3.9-1.9l-4.8-1.4l-3.6-0.8L269.3,85.9z"/>
<path id="Ear_2_" d="M231.6,19.5c0,0,9.1,22.9,9.1,33.4l16.9-22C257.6,30.9,246.5,23.1,231.6,19.5z"/>
<path id="Nose_3_" class="st3" d="M363.1,43.5c-6.5-0.8-13.8-2.3-13.8-2.3v-4.5L363.1,43.5z"/>
<path class="st0" d="M318.3,30c0,0-12.8-6.1-34.6-4.3v20C283.7,45.7,304.2,30.9,318.3,30z"/>
<path class="st4" d="M283.7,25.8v20l3.9-2.7l5.7-3.5l4.2-2.3l3-1.5c0,0-3.1-10-9.9-10C283.7,25.8,283.7,25.8,283.7,25.8z"/>
<path d="M289.8,33.9c0,0-1.3,6.4,1.3,5.9c2.6-0.5,4.2-1.7,4.2-1.7l1.3-1.3c0,0-2.3-2.7-3.3-3C291.3,33.5,289.8,33.9,289.8,33.9z"/>
<circle class="st0" cx="289.4" cy="33.7" r="1.5"/>
<g id="Legs_and_arms">
	<path class="st1" d="M353.5,354.4c-11-10.3-15.2-15.2-20.5-18.4h0l-6.8-2.1l-16.3-5.1l-1.5,0.8c-0.3,0.2-0.5,0.5-0.8,0.7
		c-8,5.4-34.3,24.3-43.3,43.7c-2.4,5.2-6,10.5-10.1,15.5c-9.8,19.2-33.3,30.9-33.3,30.9l1.5,5.7l0.4,1.9l0.9,4.4c0,0,0,0,0,0
		l1.9,6.5c7,22.8,23.1,57.9,54.7,54.4c24.4-2.7,37.4-4.5,44.2-5.6c4.6-0.7,8.5-3.6,10.6-7.7l28.8-56.2
		C363.8,424,380.6,379.9,353.5,354.4z"/>
	<path class="st1" d="M132.8,430.5c-0.1-0.1-0.2-0.1-0.3-0.1l-13-9.4c-6.3-4.3-13.5-8.7-18.6-10.8c-3.7-1.2-7.2-1.9-10.1-2.3
		c-0.1,0-0.2,0-0.3,0c-0.1,0-0.2,0-0.3,0c-2-0.2-4.3-0.4-6.9-0.4c0,0,0,0,0,0c0,0,0,0,0,0c-10,0-23.4,2.4-33.7,13.6
		c-0.1,0.1-0.2,0.2-0.3,0.3l-4.3-6.8c-3.9-5.8-6.6-12.6-8.4-19.5c0,0-0.4-1.9-0.9-5c0-0.2-0.1-0.5-0.1-0.7
		c-1.1-7.2-2.6-20.1-1.4-31.5l-0.4-2.5c0,0,0-0.2-0.1-0.6c-0.3-3.6-1.9-23.6-0.9-46.5c-5.3,5-40.5,42-19.3,125.4
		c0,0,20.6-13.5,24.6,3.4C21.5,461.5,3,488.2,3,488.2s11.9,21,83,0c0,0,23.5-8.6,37.6-28.7l2.1-3.2c0.1-0.1,0.1-0.2,0.2-0.3l3-5.7
		c0,0,0-0.1,0-0.1l2.5-6.4c0-0.1,0-0.1,0.1-0.2l1.3-6.7l0.4-2l0.6-3.6C133.8,431.3,133.4,431,132.8,430.5z"/>
	<path class="st1" d="M336.4,266.6c0,0.2,0.9,0.7,2.4,1.5l0,0l0,0c0.6,0.3,1.2,0.6,1.9,1l0.1,0l0.2,0.1c0.5,0.3,1.1,0.5,1.7,0.8
		l0.1,0.1l0.2,0.1c1.1,0.5,2.2,1,3.5,1.6l0,0l1.3,0.5c0.4,0.2,0.7,0.3,1.1,0.5l0.1,0l0.1,0c19.8,8.1,58.3,19.4,84.7,3.7
		c36.9-21.9-3.2-58.7-3.2-58.7l-39.1-39.4l-45.7,2.5c0,0-12.9,11-9.5,85.4c0,0,0,0,0,0c0,0.1,0,0.3,0,0.4"/>
	<path class="st1" d="M49.3,194.9L34.1,216c0,0-2.1,22.7,13.2,28.5c0,0,3.7-26.4,14.1-33.4L49.3,194.9L49.3,194.9z"/>
</g>
<path class="st0" d="M206,90.7c0,0,11.7-7.1,18.9-7.2c7.2,0,8.6,0,8.6,0l12.2,0.2l7.7,0.4l8.3,0.7l5.8,0.7l8.2,1.5l6.2,1.8l6.7,3.4
	l7.2,4l6.5,4.1l8.3,6l8.5,7.4l5.7,6.2l2.9,3.9c0,0,7.8,8.6,8.2,12.4c0.5,3.8-2,14.2-7,13.4l-2-4.1l-2.1-3.8l-2.8-4.6l-4.8-6.8
	l-4.8-5.7l-5.3-5.3l-4.2-3.6l-7.1-5.1l-8.2-4.8l-7.2-3.4l-5.8-2.3l-5.5-1.8l-4.6-1.3l-5.7-1.4l-4.3-0.9l-4.8-0.8l-4.7-0.7l-5.5-0.7
	l-5.8-0.6l-7-0.5l-6.3-0.4l-6.6-0.4L206,90.7z"/>
<path class="st0" d="M349,272.9l-2.5-1l-3.7-1.6l-2.1-1l-2-1l-2.4-1.5l0,0.1c0-0.1,0-0.2,0-0.3c-0.7-16.9-0.3-30.4,0.8-41.2
	c2.1-21.1,6.6-31.4,9.4-36c1.6-2.6,3.1-6.9,1-9.1c-2.9-3.1-8.2-3.8-10.2-4.4c-0.9-0.3-1.8-0.4-2.7-0.3c-7.5,1-15,11-18.4,16.2
	c-1.3,2-3.5,3.1-5.8,3.1H306c-3.3,0-6.3,2.3-6.9,5.6c-1.8,9.5-1.2,19.5,0.2,27.8c0.5,1.4,1,2.8,1.5,4.2c1.9,5.6,3.2,10.9,3.4,15.2
	l-0.4,1.3c0,0.2,0,0.4-0.1,0.7c-0.4,1.6-0.9,3.2-1.5,4.9l-0.1,0.3l-0.2,0.4c-1.3,3.5-2.9,7.2-4.9,10.9L297,266L297,266
	c-4.1,7.6-9.3,15.3-14.6,22.4l0,0l0,0c-5,6.6-10,12.7-14.2,17.6l0,0l0,0c-4.6,5.3-8.3,9.3-9.9,11c-0.1,0.1-0.2,0.1-0.2,0.2l-0.6,0.7
	l-5.3,2.7c-0.1,0.1-0.3,0.2-0.5,0.3l-3.8,2.2c-0.4,0.2-0.8,0.5-1.3,0.7l-5.1,3.2c-0.2,0.1-0.4,0.2-0.5,0.4l-8.8,6.2
	c0,0-0.1,0.1-0.1,0.1L224,340c0,0,0,0,0,0c0,0,0,0,0,0l-8.3,8.1c-0.2,0.2-0.3,0.4-0.5,0.6l-6.5,8c-0.1,0.2-0.2,0.4-0.4,0.5
	l-6.3,10.6l0,0c-1,1.8-2.2,3.4-3.5,5l-0.1,0.1l-0.1,0.1c-2.1,2.6-4.5,4.9-7.2,7l0,0l0,0c-2.8,2.2-5.9,4.2-9.2,6l-0.5,0.3l-0.3,0.1
	c-3.9,2.1-7.9,3.9-12,5.5l0,0l0,0c-5.2,2-10.4,3.6-15.2,4.8l0,0l0,0c-5.8,1.5-11,2.5-14.9,3.1l0,0l0,0c-1.6,0.3-2.9,0.5-4,0.6
	c-0.2,0-0.3,0-0.5,0l-2.5,0.4l-4.8-3.7c-0.2-0.1-0.3-0.2-0.5-0.4l-5.7-3.8c-0.2-0.1-0.4-0.2-0.6-0.4l-8.4-4.6
	c-0.1-0.1-0.3-0.1-0.4-0.2l-7.3-3c-0.1,0-0.1,0-0.2-0.1l-8.2-2.3c0,0,0,0,0,0c0,0,0,0,0,0l-9.6-1.3c-0.1,0-0.2,0-0.4,0l-6.3,0
	c-0.2,0-0.3,0-0.5,0l-6,0.7c-0.1,0-0.1,0-0.2,0l-6.2,1.4c-0.1,0-0.2,0.1-0.3,0.1l-5.3,1.9l-5.8,2.8l-2.8,1.8l-5.1-2.7l-3.4-3.6
	l-2.1-3.2l-1.9-3.7l-2-4.7l-1.5-4.6l-1.5-4l-0.5-3.7l-0.4-2.2c-1.2,11.3,0.3,24.2,1.4,31.5c0,0.2,0.1,0.5,0.1,0.7
	c0.5,3.1,0.9,5,0.9,5c1.8,6.9,4.4,13.7,8.4,19.5l4.3,6.8c0.1-0.1,0.2-0.2,0.3-0.3c10.3-11.1,23.7-13.6,33.7-13.6c0,0,0,0,0,0
	c0,0,2.7-0.1,6.9,0.4c0.1,0,0.2,0,0.3,0c0.1,0,0.2,0,0.3,0c2.8,0.4,6.3,1.1,10.1,2.3c5.2,2,12.3,6.5,18.6,10.8l13,9.4
	c0.1,0.1,0.2,0.1,0.3,0.1c0.6,0.5,1,0.8,1,0.8l31.8,3.6l33-5.3l22.8-1.1l1.2-0.4l0.2-0.1l-0.4-1.9l-1.5-5.7c0,0,23.5-11.7,33.3-30.9
	c4.1-5,7.6-10.2,10.1-15.5c9-19.4,35.4-38.3,43.3-43.7c0.3-0.2,0.6-0.4,0.8-0.7l1.5-0.8l16.3,5.1l0.3-0.8l6.9-15.8l15.1-37l0.6-7.3
	L349,272.9z"/>
<g id="Shell">
	<path class="st5" d="M211.8,90.8c-33.7-2.1-73.4,29.7-73.4,29.7l-13.7-7c-64.6,27.6-75.4,81.3-75.4,81.3l12.1,16.3
		c-11.7,8.6-14.1,33.4-14.1,33.4C37.4,259.3,34,285.2,33,308.2c-0.9,22.9,0.6,42.9,0.9,46.5c0,0.4,0.1,0.6,0.1,0.6l0.4,2.5l0.4,2.2
		l0.5,3.7l1.5,4l1.5,4.6l2,4.7l1.9,3.7l2.1,3.2l3.4,3.6l5.1,2.7l2.8-1.8l5.8-2.8l5.3-1.9c0.1,0,0.2-0.1,0.3-0.1c0,0,0,0,0,0l6.2-1.4
		c0.1,0,0.1,0,0.2,0l6-0.7c0.2,0,0.3,0,0.5,0l6.3,0c0.1,0,0.2,0,0.4,0l9.6,1.3c0,0,0,0,0,0c0,0,0,0,0,0l8.2,2.3c0.1,0,0.1,0,0.2,0.1
		l7.3,3c0.1,0.1,0.3,0.1,0.4,0.2l8.4,4.6c0.2,0.1,0.4,0.2,0.6,0.4l5.7,3.8c0.2,0.1,0.3,0.2,0.5,0.4l4.8,3.7l2.5-0.4
		c0.2,0,0.3,0,0.5,0c1.1-0.1,2.4-0.3,4-0.6l0,0l0,0c3.9-0.6,9.1-1.6,14.9-3.1l0,0l0,0c4.8-1.2,10-2.8,15.2-4.8l0,0l0,0
		c4.1-1.6,8.1-3.4,12-5.5l0.3-0.1l0.5-0.3c3.2-1.8,6.3-3.8,9.2-6l0,0l0,0c2.7-2.1,5.1-4.5,7.2-7l0.1-0.1l0.1-0.1
		c1.3-1.6,2.4-3.2,3.5-5l0,0l6.3-10.6c0.1-0.2,0.2-0.4,0.4-0.5l6.5-8c0.2-0.2,0.3-0.4,0.5-0.6l8.3-8.1c0,0,0,0,0,0c0,0,0,0,0,0
		l7.8-6.3c0,0,0.1-0.1,0.1-0.1l8.8-6.2c0.2-0.1,0.4-0.2,0.5-0.4l5.1-3.2c0.4-0.3,0.8-0.5,1.3-0.7l3.8-2.2c0.2-0.1,0.3-0.2,0.5-0.3
		l5.3-2.7l0.6-0.7c0.1-0.1,0.2-0.1,0.2-0.2c1.6-1.7,5.3-5.6,9.9-11l0,0l0,0c4.2-4.9,9.3-11,14.2-17.6l0,0l0,0
		c5.3-7.1,10.5-14.8,14.6-22.4l0.1-0.1l0.1-0.1c2-3.7,3.6-7.4,4.9-10.9l0.2-0.4l0.1-0.3c0.6-1.7,1.1-3.3,1.5-4.9
		c0.1-0.2,0-0.4,0.1-0.7l0.4-1.3c-0.2-4.2-1.5-9.5-3.4-15.2c-0.5-1.4-0.9-2.8-1.5-4.2c-6.1-16.4-15.6-33.7-15.6-33.7
		c10.3-18.2,15.8-65.2,15.8-65.2c18.2,22.2,29.4,20.6,29.4,20.6C301.9,92.9,245.5,92.9,211.8,90.8z"/>
</g>
<g id="Under_part_of_shell">
	<path class="st2" d="M356.7,275.9l-3.9-1.4l-3.6-1.4l-0.6,7.3l-15.1,37l-6.9,15.8l-0.3,0.8l6.8,2.1h0c0,0,20.8-7.8,27-59
		L356.7,275.9z"/>
	<path class="st2" d="M223.7,432.5C223.7,432.5,223.6,432.5,223.7,432.5l-0.9-4.4l-0.2,0.1l-1.2,0.4l-22.8,1.1l-33,5.3h-0.2
		l-1.6-0.2l-3.5-0.4l-7.3-0.8l-6.4-0.7l-4.8-0.5l-4.6-0.5l-3.3-0.4l-0.6,3.6l-0.4,2l-1.3,6.7c0,0.1,0,0.1-0.1,0.2l-2.5,6.4
		c0,0,0,0.1,0,0.1l-3,5.7c-0.1,0.1-0.1,0.2-0.2,0.3c-0.7,1.1-1.4,2.2-2.1,3.2l-0.1,0.1c0,0,64.4,10.6,102-20.4l0-0.1L223.7,432.5z"
		/>
</g>
<path class="st6" d="M222,211.2c0,0-38.7-25.5-7.6-75.1l80.9-25.5l-2.9-1.8l-3.7-2.1l-3.2-1.7l-76.5,27.5l-4.8-3.2
	c-5.3-3.6-11.6-5.4-18.1-5.3l-47.9-3.5c0,0-3.9,3.6-5.8,5.1c0,0-0.1,0-0.1,0.1c-0.2,0.2-0.5,0.4-0.6,0.5l0,0
	c-51.7,42.7-73.1,81.3-73.1,81.3l2.7,3.6c0,0,35.4-62.2,84.8-85.8c15.3-0.6,40.3,0.5,58.1,12.3c0,0-22.3,45.7,6.5,77l-80.7,79.3
	c0,0-62.1-6.5-79,0c0,0-11.6-11.6-10.5-35.1l-2.2,7.4c0,0-0.8,21.2,9.3,33.6c0,0-13.4,10.7-14.8,34.8l0.3,7.1
	c0,0,7.8-31.1,20.2-41.6c0,0,61.2-7.5,75.3,5c0,0,22.4,84,21.3,92.8l8.6-2.2c0,0-22.2-83.3-24.8-90.6c0,0,84.3-81.1,87.2-85.4
	c2.8-4.3,64.1,24.9,72.6,52.3l3.5-6.2C297.1,265.8,279.6,231.4,222,211.2z"/>
<path class="st7" d="M70.5,153.8c0,0-9.2,3-25.9-27.2c0,0-5.3-20.6,5.6-26.5c9-4.9,22.6-4,27.1-3.5c0.9,0.1,1.8,0.5,2.4,1.3l17.9,21
	c0,0,3.5,7.2,0,9.8S70.5,153.8,70.5,153.8z"/>
<path class="st8" d="M283.7,194.3l16.8,0.4h13.9l3.9-6l3.5-4.1c2-2.4,4.5-4.3,7.3-5.8l6-2.5l1.5-0.3l2.3,0.2l-1-7.3l-2.4-27.6
	l-3.2,7.1l-3.3,1.2l-2.4,0l-2.6-0.6l-0.7-0.3l-4.6-2.2l-3.4-2.1l-4.1-3.1l-13.8,1.8l-1.1,6.7l-1.4,7.7l-1.7,8.1l-2.4,9.8l-2.4,7.8
	l-2.4,6.4L283.7,194.3z"/>
<path class="st7" d="M334.2,138.9l-1.1,12.5l-2.1,0.7l1.1,17.1l2,2l3.3,0.7c0,0,0.6,9.9,9.5,12.5c8.9,2.6,63.9-9.3,63.9-9.3
	s11.7-24.4-9.4-51.3C401.5,123.9,351.3,124.9,334.2,138.9"/>
<path class="st3" d="M398.8,126.1c-1.5-0.4-3,1.5-3,1.5c-3.7,3.8-10,38.8,9.3,41.7c1.6,0.3,6-5.3,3.6-24.1
	C406.8,130.5,401.2,126.8,398.8,126.1z"/>
<polygon points="283.7,194.3 285.6,197.9 287.6,201.8 289.3,205.3 291.3,209.4 293.5,214.1 294.8,217.2 296.4,220.8 297.9,224.4 
	299.3,228 299,226.2 298.5,222.6 298.3,219.9 298,216.5 298,214.3 298,210.8 298.1,208.6 298.3,206.1 298.4,204.4 298.7,202.5 
	299,200.5 299.7,198.4 300.5,197.3 301.6,196.1 303,195.3 305.4,194.7 300.5,194.7 "/>
<polyline points="297.5,143.1 311.3,141.3 309.2,139.4 306.8,137.1 304.9,135.2 303,133.2 301.6,131.6 300.2,130 299.5,129.1 
	299,132.7 298.5,136.6 297.9,140.4 297.5,143.1 311.3,141.3 "/>
</svg>
