<?xml version="1.0" encoding="utf-8"?>
<!-- Generator: Adobe Illustrator 22.1.0, SVG Export Plug-In . SVG Version: 6.00 Build 0)  -->
<svg version="1.1" id="Layer_1" xmlns="http://www.w3.org/2000/svg" xmlns:xlink="http://www.w3.org/1999/xlink" x="0px" y="0px"
	 viewBox="0 0 471 482" style="enable-background:new 0 0 471 482;" xml:space="preserve">
<style type="text/css">
	.st0{fill:#87C877;}
	.st1{fill:#D5C488;}
	.st2{fill:#C6B47B;}
	.st3{fill:#F67B52;}
</style>
<path class="st0" d="M99.7,253c0,0-51.1-9.9-47.6-75.4c0,0-35.9-31.9-3.5-99.1c0,0,32.3-71.9,131.5-72.4c0,0,94.3,0,130.3,73
	c0,0,23.9,28.8,11.1,81.9c0,0,26.1-1.2,31.3,80.7c0,0,3.5,51.8-48.1,85.4c0,0,0,24.1-2.9,29.5c0,0,48,76.4,117.9,25.5l16.2,7.4
	c0,0-0.2,23-17.5,40.3l-7.5,8.6l-6.7,6.1l-4.5,3.6l-6.3,4.4l-6.2,3.7l-7.1,3.9l-6.5,3.4l-5.7,2.4l-6.8,2.5l-8.1,2.5l-8.2,2l-7.1,1.4
	l-8.8,1.3l-9.9,1.4h-8.6h-8.7l-13.2-0.5l-9.9-1.1l-5.6-0.7l-7.4-1.1l-5.5-1l-6.9-1.5l-8.1-2l-9.7-2.9l-7.2-2.5l-9.8-4l-7.5-3.6
	l-6.6-3.7l-6.6-3.7l-6.5-4.4l-6.1-4.7l-4.1-3.5l-3.6-3.3l-3.5-3.5l-3.2-3.5l-3.7-4.6l-3.6-5.1l-2.1-2.9l-0.7-1.9l-7.4-1.6l-2.5,1.6
	l-2.6,1.4l-3.7,1.4l-4.3,1l-4.7,0.3l-3.7-0.4l-3.9-1.2l-4-2.1l-3-2.3l-2.7-2.7l-2.6-3.2l-1.8-2.7l-2.1-3.1l-0.8-3.1l-1-4l-0.3-4
	l0.5-4.2l1.1-3.5l0.4-0.9l1.4-2.3l-1.4-3.8l-1-3.4l-0.7-3.2l-0.7-5.3l0.1-4.2l0.8-3.8l1.5-3.2l2.3-3l2.2-2.2l1.8-2l-0.6-3.8
	l-2.2-2.4l-2-1.8l-3.9,1.4l-5,1l-5.3,0l-5.4-1.5l-2.9-1.7l-2.7-1.9l-2.3-3.5l-2.5-5.8l-1.7-5l-1.3-5.1l-1-4.5v-6l1.1-6.2l2.3-5.1
	l3.1-3.7l2.3-1.7v-5.4l0.7-3l1.2-5.6l1.6-4.7l2.2-4.6l1.7-2.7l1.9-2.4l1.7-1.9L99.7,253z"/>
<path d="M172.2,237.1c0,0,28.5-9.4,23.3-45.7c0,0,11.7,24,31.7,31.7c0,0-10,14.2-10.4,29.9C216.9,253,206.7,239.3,172.2,237.1z"/>
<path class="st1" d="M99.7,253c0,0-11.7,8.7-12,31.1c0,0-18.1,9.1-2.3,43.1c0,0,7.8,14.6,27.5,6.2c0,0,6.5,4.5,4.9,8.1
	c-1.6,3.6-15.2,7.4-4.9,34c0,0-10.5,13.3,5.1,31.1c15.6,17.8,35,2.9,35,2.9l7.4,1.6c0,0,25.6,55,122.7,64.7s135.2-46,135.2-46h-8.9
	c0,0-72.4,58.8-151.8-24.8c-1.4-1.5-3.4-2.4-5.5-2.3l-7.7,0.2l0.6-21l-2.9-4.9l2.9-2.6c0,0,6.8-30.8-15.2-36.3
	c0,0,14.2-7.4,10.4-26.5c-3.9-19.1-24-27.2-24-27.2l0.6-31.4c0,0-17.8-16.8-44.7-15.9c0,0,0.3,17.8-44,18.5
	C128.2,255.6,103.9,255.2,99.7,253z"/>
<path id="Tail" class="st1" d="M452,258c0,0-19.3,12.1-24.6,29.9c-5.1,17.2-9.3,51.7-1,76.2c0.3,0.9,0.9,1.7,1.6,2.4c0,0,0,0,0,0
	c0,0-11.8-1-9.1,12.3c2.7,13.3,17.1,10.6,17.1,10.6s9.4-7.9,1.3-19.8c-0.4-0.6-0.1-0.9,0.4-1.1c0.5-0.2,0.9-0.4,1.4-0.6
	c0.1,0,0.1-0.1,0.2-0.1c0.8-0.5,1.6-1.1,2.2-1.8c25.3-31.5,28-62.9,28.5-82.3C470.3,263.3,452,258,452,258z"/>
<path class="st2" d="M229.8,338.1c0,0-35.6,12.7-42-14c-6.4-26.6,18.2-36.9,34.5-36.6l-6-3.2l0.1-3.6c0,0-63.1,15.9-25.2,60.7
	c0,0-43.2,19.7-71.5-8.3l-0.2,0.3c26.9-51.6-31.2-56.1-31.2-56.1l-0.5,6.8c0,0,50.6,4.3,25.3,49.2l4.2,4.3l0.9,2.2l-0.2,1.7
	c0,0,31.5,28.1,80.3,5c0,0,25.3,9.4,34.4-7.4L229.8,338.1z"/>
<path class="st2" d="M244.4,402.9c0,0-22.4,23.8-38.9,8c0,0-17.1-16.5,4.7-33.6c0,0,14.2-11.1,30.1,1.9l4.7,2.6l0-4.6l0-2.8
	c0,0-24.2-18.8-43.3,0c-19.1,18.8-4.9,37.3-4.9,37.3s-26.1,1.5-39-7.5l0,0c0,0,0-0.1-0.1-0.1c0,0,0,0,0,0l0,0
	c-1.9-0.2-17.1-2.9-43.3-28.7l-2.9,2.3c0,0,21.3,25.6,41.5,31.7l7.4,1.6c0,0,7.6,7.2,42.2,6c0,0,12.3,13.4,34.8-1
	c0,0,7.4-3.7,11.1-13.2L244.4,402.9z"/>
<path class="st2" d="M197.7,448.5c61.6,18.9,81.9-23.7,81.9-23.7l6.7,4.8c0,0-28.2,39-75.4,26.4L197.7,448.5z"/>
<path class="st2" d="M280.8,475.4c32.8,1.5,51.6-26.9,51.6-26.9l7.7,0.9c0,0-12.8,25.2-38.3,27.4L280.8,475.4z"/>
<path class="st2" d="M392.4,453.2c6.2-3.8,8.9-18,8.9-18l-7.9,4.2c0,0-1.7,12.8-14.5,21.5L392.4,453.2z"/>
<g id="Eye_1_">
	<path class="st1" d="M307,100.1c-5-28.9-29.5-48.8-54.8-44.5C227,60,210.5,87,215.4,115.9s29.5,48.8,54.8,44.5
		C295.5,156,312,129,307,100.1z M269.3,150.3c-18.7,3.2-37.2-13.2-41.2-36.7c-4-23.5,7.9-45.1,26.6-48.3
		c18.7-3.2,37.2,13.2,41.2,36.7C299.9,125.5,288,147.1,269.3,150.3z"/>
	<path d="M254.7,65.3c-18.7,3.2-30.7,24.9-26.6,48.3c4,23.5,22.5,39.9,41.2,36.7c18.7-3.2,30.7-24.9,26.6-48.3
		C291.9,78.5,273.4,62.1,254.7,65.3z"/>
</g>
<path class="st3" d="M103.5,121.8c0,0,19.1,2.3,18.3-26.2c0,0,14.1-21.9,82.8-28.1c0,0,23.9-0.4,27.9-30.4
	c2.3-17.2-9.9-20.8-20.9-20.8c-8,0-15.9,2.2-23,6l-67.6,35.9c0,0-21.5,11.1-41-3.1c-15-10.8-36.6-23.9-45.8-29.4
	c-4.1-2.4-8.9-3.6-13.6-3.1c-6.5,0.7-14.7,3.8-18.2,14.5c-6.2,19.1,12.1,30.1,12.1,30.1l52.3,14.8c0,0,26.5,3.7,22.6,25.8
	C89.4,107.8,88.3,122.2,103.5,121.8z"/>
<g>
	<path class="st1" d="M333,252.2c-1.9-6.1-7.1-10.6-13.4-11.4c-4.1-0.5-9.7-0.5-17.2,0.9c-8.8,1.6-14.4,8.6-18,16.4
		c-5.4,11.7-5.8,25.2-1.8,37.4c1.5,4.8,5.8,8.4,10.8,8.7c5.5,0.3,13.7-1.7,25.7-10C338.4,281,336.2,262.4,333,252.2z M317.4,291
		c-10.3,7-17.3,8.8-22,8.5c-4.3-0.3-7.9-3.3-9.2-7.4c-3.4-10.5-3.1-22,1.5-32c3.1-6.6,7.9-12.6,15.4-14c6.3-1.2,11.1-1.2,14.7-0.8
		c5.4,0.7,9.9,4.6,11.5,9.8C332,263.9,333.9,279.7,317.4,291z"/>
</g>
<g>
	<path class="st1" d="M281.6,343.2c-6.2,0-11.2,5.4-11.2,12v5c0,6.6,5.1,12,11.2,12s11.2-5.4,11.2-12v-5
		C292.9,348.6,287.8,343.2,281.6,343.2z M281.6,370c-6.2,0-9.5-5.8-9.5-12.4c0-6.6,3.4-12.4,9.5-12.4c6.2,0,9.6,5.8,9.6,12.4
		C291.2,364.3,287.8,370,281.6,370z"/>
</g>
<g>
	<path class="st1" d="M321.9,391.6l-2.2-1.5c-6.2-4.1-14.7-2.4-18.8,3.9c-4.1,6.2-2.4,14.7,3.9,18.8l2.2,1.5
		c6.2,4.1,14.7,2.4,18.8-3.9l0,0C329.9,404.2,328.2,395.7,321.9,391.6z M323.7,409c-4.1,6.2-10.5,6.4-16.7,2.3
		c-6.2-4.1-8.3-9.8-4.2-16c4.1-6.2,10.4-6.8,16.6-2.6C325.7,396.7,327.8,402.7,323.7,409z"/>
</g>
<g>
	<path class="st1" d="M379.4,411.3h-11.6c-3.7,0-6.7,3-6.7,6.7s3,6.7,6.7,6.7h11.6c3.7,0,6.7-3,6.7-6.7S383.1,411.3,379.4,411.3z
		 M379.4,423.2h-11.6c-3.7,0-5.5-2.6-5.5-5.5c0-2.4,1.8-5,5.5-5h11.6c3.7,0,5.3,2.7,5.3,4.8C384.7,420.2,383.1,423.2,379.4,423.2z"
		/>
</g>
<g>
	<path class="st1" d="M422.4,399.3c-1.1-3-4.5-4.6-7.6-3.4l-4.7,1.8c-3,1.1-4.6,4.5-3.4,7.6c1.1,3,4.5,4.6,7.6,3.4l4.7-1.8
		C422,405.7,423.5,402.3,422.4,399.3z M418.1,406l-4.5,1.8c-1.6,0.5-5-0.7-5.6-2.6c-0.9-2.1-0.2-5.6,2-6.5l4.8-1.9
		c3.1-1.2,4.9,0.6,6.3,3.3C421.8,402.1,421.8,404.5,418.1,406z"/>
</g>
</svg>
