<?xml version="1.0" encoding="utf-8"?>
<!-- Generator: Adobe Illustrator 22.1.0, SVG Export Plug-In . SVG Version: 6.00 Build 0)  -->
<svg version="1.1" id="Layer_1" xmlns="http://www.w3.org/2000/svg" xmlns:xlink="http://www.w3.org/1999/xlink" x="0px" y="0px"
	 viewBox="0 0 452 500" style="enable-background:new 0 0 452 500;" xml:space="preserve">
<style type="text/css">
	.st0{fill:#FFFFFF;}
	.st1{fill:#EBAB7D;}
	.st2{fill:none;stroke:#C98F69;stroke-miterlimit:10;}
	.st3{fill:#F1E2C7;}
	.st4{fill:#0D0F0F;}
	.st5{fill:#357184;}
	.st6{fill:#9C6B81;}
	.st7{fill:#C8B5BF;}
	.st8{fill:#403127;}
	.st9{fill:#DD553B;}
	.st10{fill:#FBD961;}
	.st11{fill:#FFED6E;}
</style>
<path class="st0" d="M90.8,468.2L62.4,481c0,0,8.3-17.1,21.1-25.1L90.8,468.2z"/>
<path class="st0" d="M68.8,451.2c0,0,6.8-0.9,7.3,5.7c0.5,6.7-16.2,19.8-27.5,21.4C48.7,478.3,58.7,458.4,68.8,451.2z"/>
<path class="st0" d="M57.7,443.1c0,0-19.5,10.4-24,21.4c0,0,14.1,2,36.5-15.1S57.7,443.1,57.7,443.1z"/>
<path class="st0" d="M264.8,483.5c0,0-3.1-21,11.3-9.3C290.5,486,294,500,294,500c-19.4-3.7-29.2-15-29.2-15l-6.4-6.5l11.4-5.7"/>
<path class="st0" d="M289,481.5c0,0,4.9,9.7,33,11.9c0,0-6.4-17.8-23.3-22.7l-11.5,2.9L289,481.5z"/>
<path class="st0" d="M311.1,454.3c0,0,17.7,11.3,21.8,21.8c0,0-16.7,2.7-31.9-7.2C285.7,459.1,311.1,454.3,311.1,454.3z"/>
<path id="Mainbody" class="st1" d="M227.5,432.6l-60-2.3c0,0-36.2-4.9-32,22.5c0,0,1.6,8.5-28.4,9.1c0,0-7.5-0.3-16.3,6.2
	c0,0-34.6-0.7-42.4-19.1c0,0,12.4-11.9,20.2-9c0,0-25.5-18.6-6.9-54.5s37.9-38.2,37.9-38.2s-0.3-33.3,3.3-62c0,0-31,5.2-66.9,2.6
	c0,0-4.2,4.2-5.2,1.3c-1-2.9,0-12.4,0-12.4L6.9,258.2c0,0,11.1-6,19.9-4.7l-6-8.5l10.2,3.2c0,0,22.9-4.5,28.2-8.3
	c5.3-3.8,55.2-25.2,55.2-25.2l-0.7-4.6c0,0-36.9-3.8-65.6-36.2c0,0-14.1-13-0.7-41.5c0,0-0.4-49.4,6.6-72.6s46.8-49.4,46.8-49.4
	s37.7-23.2,72.6,0S222.3,85,222.3,85s15.2,41.5,2.2,80.1c0,0-17.9,30-17.7,42.4l75.1,28.5c2.3,0.9,4.8,1.4,7.3,1.6l2.8,0.2
	c2.9,0.2,5.9-0.1,8.7-1c4-1.3,12.9-3.1,16.8-2.6c0,0,1.1,3.8-6.8,13.1l21,3.8l-13.9,11.7l11.3,8.6l-19.4,3.8c0,0-13,14.6-66.4,13.9
	c0,0,45.9,59.6,56.1,87.4l28.5,0.2c0,0,58.9-12.6,69.5-68v-8.2l10.8-3.5l1.1,15.9c0,0,4.4,41.1-13.2,65.8
	c-17.7,24.7-45.5,59.2-89.4,58.9l0.3,6.8c0.1,2.7,1.4,5.1,3.5,6.8c1.9,1.5,4,3.8,4.8,7c1.5,6.2-9.9,25.6-43.3,27.4
	c0,0-15,0.2-20.3-14.8C246.2,455.5,244.1,443.6,227.5,432.6z"/>
<path id="Finger" class="st2" d="M282,273.3h13.7c0,0-1-7.8-9.9-11.6"/>
<path class="st3" d="M227.5,432.6c-4.5-0.7-8.4-0.3-12.9-0.5c-91.5-3.2-108.4-58-108.4-58s-14.2-24.1-6.8-77.7
	c5.6-41,28.5-61.1,38.9-68.2c3.3-2.3,7.5-2.8,11.3-1.5c14.4,5,50.8,24.3,69.5,94.4c0,0,11,28.9,0.5,40.4
	c-10.5,11.5-8.4,37.3-8.4,37.3s-1.8,20.6,12.7,28.6C223.8,427.3,230,432.9,227.5,432.6z"/>
<path class="st3" d="M306.3,429.5l0.1,8c0,0,78.2,2.1,100-83.9C406.4,353.5,368.8,427.2,306.3,429.5z"/>
<g>
	<path class="st4" d="M174.4,74l-0.3,2.2l0.3-4.5C174.4,73,174.4,74,174.4,74z"/>
	<path class="st4" d="M182.2,105.3c3.1,4.4,1,16,10.4,15.2c7.4-0.7,6.7-15.1,6-21.3c-0.3-2.7,0.8-5.5,3.1-7c2.1-1.4,5-1.4,8.2,4.1
		l0.1,11.8l-2,8.5c0-0.4,0.8-1,0.8-1.4l1.1-19c-0.3-5.6-1.5-11.9-4-16.9c-3.7-7.4-9.8-17.3-17.4-20l2.6,4.5c0,0,7.5,28.6,0,33.7
		c-5.6,3.8-10.6-1.4-12.8-4.3c-1.3-1.8-2.8-3.4-4.3-5V110l1-2C175.1,108,179.1,100.9,182.2,105.3z"/>
	<path class="st5" d="M188,134.2c8.8-1.8,15.2-6.1,19-9.5c2.4-2.1,3.7-5.1,3.9-8.2l-0.4-8.6l-0.7-11.7c-3.2-5.5-6.1-5.5-8.2-4.1
		c-2.3,1.5-3.3,4.3-3.1,7c0.6,6.2,1.3,20.7-6,21.3c-9.4,0.8-7.2-10.8-10.4-15.2c-3.1-4.4-7.1,2.7-7.1,2.7l-1,2v11.1
		C174.1,121.1,172.6,137.4,188,134.2z"/>
	<path class="st0" d="M174.1,76.7v4.8v6.7c0,0,0,0,0,0v-12L174.1,76.7z"/>
	<path class="st0" d="M191.2,97.5c7.5-5.2,0-33.7,0-33.7l-2.6-4.5c0,0,0,0-0.1,0c-9.9-3.6-13.1,7.6-14,12.4l-0.3,4.5v12
		c1.5,1.6,3,3.3,4.3,5C180.6,96.1,185.6,101.4,191.2,97.5z"/>
</g>
<path class="st5" d="M50.9,126.4c6.1,7.2,13.8,7.8,16.7,7.8c0.7,0,1.2-0.5,1.2-1.2c0.1-2.4,0.2-8.5,0-15.9c0-0.1,0-0.2-0.1-0.3
	c-1.2-3.8-4.1,0-4.1,0c0,5.3-3,6.2-3,6.2c-9.5-1.5-5.9-14.2-6.2-22.5c-0.2-6.3-4.9-6.3-7.1-5.9C47.1,106.9,46.7,121.4,50.9,126.4z"
	/>
<g>
	<path class="st4" d="M63.6,107.5c-6.1-5.2-7.4-14.7-6.6-23.9c0.7-8.1,5.3-6.3,6.4-5.8c-1-2-2.1-3.4-3.5-4c-4.1-1.7-6.5-0.9-7.7,0.1
		c-0.8,0.6-1.3,1.6-1.5,2.7c-0.5,2.6-1.6,9.8-2.4,18c2.2-0.4,6.9-0.4,7.1,5.9c0.3,8.3-3.3,21,6.2,22.5c0,0,3-0.9,3-6.2
		c0,0,3-3.8,4.1,0c0,0.1,0,0.2,0.1,0.3c-0.1-2.9-0.2-6-0.3-9.1C67.9,109.3,66.6,110.1,63.6,107.5z"/>
	<path class="st0" d="M57,83.6c-0.8,9.2,0.5,18.7,6.6,23.9c3,2.6,4.3,1.8,4.8,0.4c-0.6-11.5-2-23.8-5-30
		C62.4,77.4,57.8,75.5,57,83.6z"/>
</g>
<g>
	<path class="st6" d="M142.2,206.4l-6.6-0.3C137.8,206.4,140,206.5,142.2,206.4z"/>
	<path class="st6" d="M128.4,204.8l-6.2-1.8C124.3,203.6,126.4,204.3,128.4,204.8z"/>
	<path class="st6" d="M134.9,206l-5.9-1.1C131,205.4,133,205.7,134.9,206z"/>
	<path class="st6" d="M150.8,205.5l-7,0.9C146.2,206.3,148.5,206,150.8,205.5z"/>
	<path class="st6" d="M167.4,199.5l-7.3,3.3C162.6,201.8,165,200.7,167.4,199.5z"/>
	<path class="st6" d="M153.4,204.9c2.1-0.6,4.1-1.3,6.1-2l-7.4,2.3C152.5,205.1,153,205.1,153.4,204.9z"/>
	<path class="st6" d="M181.5,189.8l-5.9,4.7C177.7,193,179.7,191.4,181.5,189.8z"/>
	<path class="st6" d="M185.1,186.5l-3.1,3C183,188.5,184.1,187.5,185.1,186.5z"/>
	<path class="st6" d="M121.5,202.7l-7.2-2.9C116.7,200.8,119.1,201.8,121.5,202.7z"/>
	<path class="st6" d="M175.4,194.6l-7.7,4.7C170.4,197.9,173,196.3,175.4,194.6z"/>
	<path class="st6" d="M69.1,162.3c-9-5.4-14.4-10.3-14.4-10.3s5.2,6.3,13.7,14.6C68.6,164.1,69.1,162.3,69.1,162.3
		C69.1,162.3,69.1,162.3,69.1,162.3z"/>
	<path class="st6" d="M206.4,147.5c-1.1,2.3-4.1,4.7-8.5,7.2c0,0,0,0,0,0c-1.1,13.8-5.9,18.2-5.9,18.2c-5.6-3.8-11.1-10.6-11.1-10.6
		c0-0.1,0.1-0.2,0.1-0.3c-17.7,6.2-41.6,11.5-62,13.2c-13.8,1.1-26.5-2.1-36.9-6.4c0,0,0,0,0,0c-2.1,1.6-4.5,3.1-6.6,4.3
		c10.5,9.5,24.1,19.9,38.6,26.6c0.1-0.1,10.6-9.2,31.1-15.9c20.6-6.8,36.5,0,36.5,0l3.5,2.6C202.3,169,206.4,147.5,206.4,147.5z"/>
	<path class="st7" d="M151.4,205.4l0.6-0.2c-0.4,0.1-0.8,0.2-1.2,0.3L151.4,205.4z"/>
	<path class="st7" d="M159.8,202.8l0.2-0.1c-0.2,0.1-0.4,0.1-0.5,0.2L159.8,202.8z"/>
	<path class="st7" d="M167.6,199.4l0.1-0.1c-0.1,0.1-0.2,0.1-0.3,0.2L167.6,199.4z"/>
	<path class="st7" d="M185.2,186.4L185.2,186.4c0,0-0.1,0.1-0.1,0.1L185.2,186.4z"/>
	<path class="st7" d="M175.5,194.6l0.1-0.1C175.5,194.5,175.5,194.6,175.5,194.6L175.5,194.6z"/>
	<path class="st7" d="M181.7,189.7l0.2-0.2c-0.1,0.1-0.3,0.2-0.4,0.3L181.7,189.7z"/>
	<path class="st7" d="M121.9,202.8l0.4,0.1c-0.3-0.1-0.5-0.2-0.8-0.3L121.9,202.8z"/>
	<path class="st7" d="M135.4,206.1l0.2,0c-0.2,0-0.5-0.1-0.7-0.1L135.4,206.1z"/>
	<path class="st7" d="M114.1,199.7l0.2,0.1C114.2,199.7,114.2,199.7,114.1,199.7C114.1,199.7,114.1,199.7,114.1,199.7z"/>
	<path class="st7" d="M128.6,204.8l0.4,0.1c-0.2,0-0.4-0.1-0.6-0.1L128.6,204.8z"/>
	<path class="st7" d="M143.1,206.5l0.7-0.1c-0.5,0-1,0-1.6,0L143.1,206.5z"/>
	<path class="st7" d="M145.2,183.7c-20.5,6.7-31,15.8-31.1,15.9c0.1,0,0.1,0.1,0.2,0.1l7.2,2.9c0.3,0.1,0.5,0.2,0.8,0.3l6.2,1.8
		c0.2,0.1,0.4,0.1,0.6,0.1l5.9,1.1c0.2,0,0.5,0.1,0.7,0.1l6.6,0.3c0.5,0,1,0,1.6,0l7-0.9c0.4-0.1,0.8-0.2,1.2-0.3l7.4-2.3
		c0.2-0.1,0.4-0.1,0.5-0.2l7.3-3.3c0.1-0.1,0.2-0.1,0.3-0.2l7.7-4.7c0.1-0.1,0.1-0.1,0.2-0.2l5.9-4.7c0.1-0.1,0.3-0.2,0.4-0.3l3.1-3
		c0,0,0.1-0.1,0.1-0.1l-3.5-2.6C181.7,183.7,165.8,177,145.2,183.7z"/>
	<path class="st0" d="M192.1,172.9c0,0,4.7-4.3,5.9-18.2c0,0,0,0,0,0c-4.4,2.5-10.2,4.9-16.9,7.3c0,0.1-0.1,0.2-0.1,0.3
		C180.9,162.3,186.5,169.1,192.1,172.9z"/>
	<path class="st0" d="M71.3,175.4c0,0,1.8-0.9,4.2-2.3c-2.5-2.3-4.9-4.5-7-6.5C68.4,169.2,68.9,172.7,71.3,175.4z"/>
	<path class="st0" d="M82.1,168.8c-4.9-2-9.2-4.3-12.9-6.5c0,0,0,0,0,0c0,0-0.5,1.8-0.6,4.3c2.1,2.1,4.5,4.3,7,6.5
		C77.5,171.9,80,170.4,82.1,168.8C82.1,168.8,82.1,168.8,82.1,168.8z"/>
</g>
<path class="st8" d="M97.9,160.5h-3.8c-0.6,0-1-0.5-1-1v-3.8c0-0.6,0.5-1,1-1h3.8c0.6,0,1,0.5,1,1v3.8
	C98.9,160,98.4,160.5,97.9,160.5z"/>
<path class="st8" d="M135.8,160.5h-3.8c-0.6,0-1-0.5-1-1v-3.8c0-0.6,0.5-1,1-1h3.8c0.6,0,1,0.5,1,1v3.8
	C136.8,160,136.4,160.5,135.8,160.5z"/>
<path class="st9" d="M398.9,307.3c-1.8,0-16-2.9-23.7-21.4c-4.1-9.8-18.9-18.3-18.9-18.3s1.2-20.1,14.4-30.1
	c0.5-0.4,1.1-0.8,1.7-1.2l0.1-11l0.2-38.6c0,0,6.4,12.8,6.7,11.7c0.3-1.1,6.1-27.9,6.1-27.9s7.8,17.3,8.1,26.2l10-60.2l15.1,24.9
	c2.2,3.6,3.5,7.7,4,11.9l2.7,27.6l20.3,25.1c0,0-14.2,15.6-16.2,30.6l16.2-17.8l-7.1,15.9l7.1-2.2c0,0-14.4,25.5-11.5,41.9
	c0.8,4.5-1.1,9-5.1,11.3c-4.2,2.3-10.7,3.9-20.4,1.7H398.9z"/>
<path class="st10" d="M378.5,234.7c0,0-0.6,10-5.6,17.9c-5,7.9,13.8-5.6,13.2-14.4c0,0,8.5,6.4,4.7,35l13.2-14.8
	c0,0,11.7-9.3,9.1-36.1l-3.6-23.8c0,0,13.6,3.8,18,14.4c4.4,10.6,18.2,12.9,18.2,12.9l-8.6,11.6l-4.4,8.4l-2.1,5.8l-1,4.8l4.8-5.3
	l4.5-5l5.6-6.1l1.3-1.4l-3.5,7.7l-3.6,8.1l4.1-1.3l3-0.9l-2.2,4.1l-1.4,2.8l-1,2.3l-2.4,5.8l-2,5.8l-2.1,8.2l-0.8,7l0.3,5.9
	l-0.7,6.3l-1.9,3l-2.5,2l-5.1,2l-6.2,0.8l-9.1-1.1h-4.3H401l-7.4-1.5l-6-3.5l-3-2.6l-2.8-3l-3.3-4.6l-3.2-6.3l-2.4-4.2l-3.4-4
	l-3.5-3.2l-4.6-3.6l-3.4-2.3l-1.6-1l1.3-7.8l2.5-7.8l3-5.9l3.7-5l3.9-3.6l1.7-1.2L378.5,234.7z"/>
<polygon class="st11" points="394,198.6 394,207.8 386.2,209.9 383.5,216.2 381,221.4 375,225.2 372.5,226.4 372.7,186.7 
	379.4,198.4 385.5,170.5 394,195.2 "/>
</svg>
