<svg id="Layer_2" data-name="Layer 2" xmlns="http://www.w3.org/2000/svg" viewBox="0 0 486.19324 457.36949"><defs><style>.cls-1{fill:#d0717e;}.cls-2{fill:#fff;}.cls-3{fill:#639078;}.cls-4{fill:#89bcbe;}.cls-5{fill:#01556f;}.cls-6{fill:#030504;}.cls-7{fill:none;stroke:#000;stroke-miterlimit:10;}.cls-8{fill:#c06871;}</style></defs><title>Ivysaur</title><path class="cls-1" d="M333.83245,173.96826S253.97067,328.01,191.47014,298.338s-52.39943-163.51149-52.39943-163.51149S140.649,102.62927,156.432,83.68972s11.995-43.87663,11.995-43.87663,11.6794,2.84093,10.73242,13.25768c0,0,7.57582-11.67939,15.4673-10.41675,0,0-.31566,18.62389-6.31318,25.25274L205.6748,45.81061s-.31565-19.25521-6.62884-27.14669c0,0,16.41428,7.26016,20.83351,19.88653l9.15412-8.83846,2.52527,9.15412,6.62885-9.46978,1.89395,10.41676L253.655,34.76254s-1.26264,11.04807,3.78791,15.15164S313.3146,85.268,320.25911,115.887,333.83245,173.96826,333.83245,173.96826Z" transform="translate(0.19324 -18.66392)"/><path class="cls-2" d="M130.07961,452.26146s7.69988,11.88472,18.41292,15.3999c-1.39012-2.80472-1.2635-10.94965-2.84563-15.23251-1.80936-4.898-4.48964-4.00469-2.67812-7.86751Z" transform="translate(0.19324 -18.66392)"/><path class="cls-2" d="M151.66212,453.15153c.44174.22087,8.28272,13.55857,19.989,14.50983,0,0,.88349-6.55842-5.74269-18.92728S151.66212,453.15153,151.66212,453.15153Z" transform="translate(0.19324 -18.66392)"/><path class="cls-2" d="M170.7676,454.80807s10.82276,4.8592,17.66981,3.86528a34.55422,34.55422,0,0,0-11.70625-17.66981Z" transform="translate(0.19324 -18.66392)"/><path class="cls-2" d="M278.99766,463.7025s9.07369,11.16762,16.51877,12.33091a37.45772,37.45772,0,0,0,0-20.10911C292.49187,444.62448,278.99766,463.7025,278.99766,463.7025Z" transform="translate(0.19324 -18.66392)"/><path class="cls-2" d="M301.3329,464.19s13.49421.67582,19.54334,7.88824c0,0,.698-10.00433-9.77167-16.28611S301.3329,464.19,301.3329,464.19Z" transform="translate(0.19324 -18.66392)"/><path class="cls-2" d="M312.96584,456.72273s15.12282,1.86127,19.078,9.30635c0,0,.93064-20.00865-15.12282-22.5679Z" transform="translate(0.19324 -18.66392)"/><path class="cls-2" d="M398.94277,450.566s17.48675,4.88222,19.85121,10.61685c0,0,3.17552-11.47245-3.5602-19.40279S398.94277,450.566,398.94277,450.566Z" transform="translate(0.19324 -18.66392)"/><path class="cls-2" d="M420.68685,450.41394s12.79623,6.15523,14.42485,10.76886c0,0,1.86127-13.99908-7.21243-19.81555S420.68685,450.41394,420.68685,450.41394Z" transform="translate(0.19324 -18.66392)"/><path class="cls-2" d="M432.78511,443.46118s10.7023,1.94989,14.42484,8.88534c0,0-1.54624-22.84486-11.94074-22.61221S432.78511,443.46118,432.78511,443.46118Z" transform="translate(0.19324 -18.66392)"/><path class="cls-3" d="M183.3032,290.02345c-3.36691,1.26259-30.28688,6.24368-41.86826,32.58228s-6.531,34.75586-6.531,34.75586H113.01323s.00578-39.56115,2.95183-44.61152-10.52159,42.50721-21.04317,46.71584-23.98922,0-23.98922,0l10.10072-24.41008L67.98663,355.67814s-15.15108-3.36691-15.572-6.313,26.5144-31.56475,26.5144-31.56475L52.4098,335.89756a21.95423,21.95423,0,0,1-4.62461-18.93885s64.0025-37.036,82.29442-39.56116L109.6521,266.876l13.04677-14.30935-18.09713,11.78417-21.88489-8.83813L97.0262,240.36157,71.35354,259.72129,44.41828,244.57021,57.465,230.10366,39.36792,242.045,22.95425,230.10366l26.51439-17.93994-30.30216,12.205L-.19324,195.75h21.8849L1.91108,182.70329l2.946-20.62231,29.46044,15.57195L17.90388,146.509l16.41368-3.3669,8.41726,17.2554-13.88849-29.8813H64.19886S79.34994,172.1817,79.7708,170.91911s-7.15467-40.40288-7.15467-40.40288l30.723,3.78777,17.67627,42.92806L118.49024,134.304,159.314,147.35076l9.67986,42.92807,2.52518-38.158L187.9327,162.081l4.20863,26.09353L196.35,159.13494l28.19785,17.67626-5.89209,36.19425,10.94245-15.99281,17.67626,18.09713-9.67985,14.99389h15.57194l-5.89209,54.86943Z" transform="translate(0.19324 -18.66392)"/><path class="cls-3" d="M254.954,161.6252V150.55176l20.12361,11.07344,1.82942-3.75577-19.51381-15.55006,14.33045-23.78245s29.57561,22.35486,29.57561,21.54414-25.91677-28.86181-25.91677-28.86181L289.1031,94.75448l25.91677,24.08735-6.403-38.1129,16.15986-15.855,17.37948,28.9658v-40.857H371.427V70.05732l2.43922-11.28142,10.36671.60981-1.52451,26.83148S412.284,64.56906,412.284,66.39848s.60981,30.49032.60981,30.49032l-22.56284,9.14709,29.57561,1.26808-2.13432,23.21226s-37.808,2.35114-36.89328,2.96095,24.08735,5.79316,24.08735,5.79316l-4.57355,12.85047,2.13432,9.50439L299.70423,185.00581Z" transform="translate(0.19324 -18.66392)"/><path id="Main_body" data-name="Main body" class="cls-4" d="M198.798,416.09977s-13.1709,9.87817-19.36183,34.67222a9.122,9.122,0,0,1-8.80816,7.00753H125.58894a11.10113,11.10113,0,0,1-10.89385-8.66473,89.11152,89.11152,0,0,1-1.68186-18.65129c0-20.81913,5.88367-85.08687,31.68128-111.56337s33.71794-30.7761,33.71794-30.7761,53.63188-25.57132,71.50918-54.08447V161.6252h41.15845c1.89308,0,3.774.08928,5.659.26452,15.06843,1.40089,89.76174,7.26746,129.91889-9.76891,0,0,20.14024,8.37291,25.57132,42.996,0,0,10.31049,3.37907,11.442,11.752v9.37588s10.89784,10.0229,13.44861,32.05277c0,0,15.8425,9.05046,5.20664,23.98592,0,0-7.92032,12.44622-17.4247,18.32988,0,0-11.08845,19.914-43.22232,39.149,0,0,25.345,35.302,17.19841,109.52672,0,0-1.81036,17.87729-39.8279,14.48287s-42.996-63.36256-42.996-63.36256-18.10359,14.70916-33.26535,15.61434l3.04559,41.82609a12.04764,12.04764,0,0,1-3.76658,9.77936C316.007,463.183,302.154,471.022,273.55695,468.11945a16.23042,16.23042,0,0,1-10.528-5.41285c-5.38954-6.12153-14.40166-17.50394-18.53839-29.30127C244.49055,433.40533,213.52625,429.344,198.798,416.09977Z" transform="translate(0.19324 -18.66392)"/><path class="cls-5" d="M124.52992,369.08248l7.4976,1.22688a6.92076,6.92076,0,0,1,4.90359,3.4179l12.02125,21.214a6.058,6.058,0,0,1,.48223,4.9618,37.13129,37.13129,0,0,1-14.35644,18.54326c-9.63691,6.48-16.37926-5.03668-19.08315-11.005a10.5489,10.5489,0,0,1-.73165-6.374c1.127-5.799,3.82188-18.75736,7.57827-30.94405A1.51034,1.51034,0,0,1,124.52992,369.08248Z" transform="translate(0.19324 -18.66392)"/><path class="cls-5" d="M164.91156,331.13969s-9.652,5.48408-8.99389,21.27824c0,0,15.35543.65809,14.69734-10.63912S164.91156,331.13969,164.91156,331.13969Z" transform="translate(0.19324 -18.66392)"/><path class="cls-5" d="M205.9325,277.39568s-23.47187,8.3358-25.44614,42.55648,22.81378,16.891,22.81378,16.891,8.77454-3.29045,9.43263-19.7427a236.861,236.861,0,0,1,3.24513-29.37151,9.18548,9.18548,0,0,0-2.45367-8.19929A8.54332,8.54332,0,0,0,205.9325,277.39568Z" transform="translate(0.19324 -18.66392)"/><path class="cls-5" d="M261.47844,353.86509l-1.94124,24.62268a13.063,13.063,0,0,0,1.51153,9.32375c3.93718,6.62317,12.5294,18.01441,25.39011,18.78915,10.06887.60656,12.87-8.58165,13.36243-16.91678a28.40006,28.40006,0,0,0-7.87632-21.21594c-6.37507-6.69523-17.768-16.96792-26.59384-17.95161A3.60239,3.60239,0,0,0,261.47844,353.86509Z" transform="translate(0.19324 -18.66392)"/><path class="cls-5" d="M275.43589,410.7983a7.02114,7.02114,0,0,0-9.92677,4.57655c-1.39027,5.55269-2.09839,13.49246,3.38065,17.76878,6.36055,4.96433,12.83081-3.48365,16.07443-8.85625a5.76517,5.76517,0,0,0-.97983-7.15223A38.56378,38.56378,0,0,0,275.43589,410.7983Z" transform="translate(0.19324 -18.66392)"/><path class="cls-5" d="M394.80432,393.21951v24.13s14.03925-1.25918,13.1618-10.7203S394.80432,393.21951,394.80432,393.21951Z" transform="translate(0.19324 -18.66392)"/><path class="cls-5" d="M411.95525,363.38256,408.7625,378.99a9.30617,9.30617,0,0,0,1.291,6.9144c4.655,7.22051,15.86758,24.1024,18.97147,24.148,3.94854.058,10.09071-9.81331,10.09071-9.81331s-3.07109-29.17532-5.70345-32.90449c-2.52042-3.5706-14.29162-7.94561-20.48707-5.23041A1.75636,1.75636,0,0,0,411.95525,363.38256Z" transform="translate(0.19324 -18.66392)"/><path class="cls-5" d="M384.72616,198.26571s19.14338,18.55436,21.49949,21.49949c0,0,2.0616-17.3763-1.76708-23.56109C404.45857,196.20411,392.089,192.67,384.72616,198.26571Z" transform="translate(0.19324 -18.66392)"/><path class="cls-5" d="M377.65783,165.5747l48.00572,37.10871V180.30887a8.299,8.299,0,0,0-4.39279-7.32589,89.0486,89.0486,0,0,0-28.41516-9.31207,28.0258,28.0258,0,0,0-12.452,1.05164Z" transform="translate(0.19324 -18.66392)"/><path class="cls-6" d="M256.737,170.165v52.412a1.5108,1.5108,0,0,0,2.51313,1.13043l28.4848-25.25652a1.5108,1.5108,0,0,0,.04016-2.224l-28.4848-27.15551A1.5108,1.5108,0,0,0,256.737,170.165Z" transform="translate(0.19324 -18.66392)"/><path class="cls-2" d="M334.73441,273.40311s10.54076,14.69246,19.03682,16.616c0,0,6.45743-2.36717,6.44234-26.69471A113.73891,113.73891,0,0,0,334.73441,273.40311Z" transform="translate(0.19324 -18.66392)"/><path class="cls-2" d="M476.965,264.3492s.86539,10.38471-3.89427,16.6588c0,0-3.62947-1.64441-5.16813-11.63961C467.90256,269.36839,468.52738,264.13285,476.965,264.3492Z" transform="translate(0.19324 -18.66392)"/><path class="cls-7" d="M323.216,283.8461s17.58331-30.50166,96.16994-22.96595c0,0,12.18743,0,19.72975,7.89454,6.742,7.05683,25.80793,4.36493,31.57245-1.41186a10.15033,10.15033,0,0,1,5.45208-2.87068l.82472-.14295" transform="translate(0.19324 -18.66392)"/><path class="cls-2" d="M477.11981,248.29747s-.95231-15.44168-5.956-22.55873a23.52,23.52,0,0,1,.7914,2.91174,36.31024,36.31024,0,0,1,.5091,8.16509c-.31836,10.70992-.69013,11.30988-.69013,11.30988l-4.02567-.19351c-.09225-.00416-.17479-.04855-.26565-.06034" transform="translate(0.19324 -18.66392)"/><path class="cls-8" d="M471.16385,225.73874c-2.48033-7.30919-7.49265-9.494-7.49265-9.494v8.78171c.49142.43905,1.79782,1.97885,1.90464,6.14254.13143,5.12226-.26253,10.11342-1.05081,11.55889a6.53329,6.53329,0,0,1-.85383.55627v.88365a2.61423,2.61423,0,0,0,.83822,1.9185l.96.8892a3.583,3.583,0,0,0,2.01353.89614c1.61366-4.59373,3.31958-22.66139,3.31958-22.66139C470.92941,225.37321,471.04177,225.56534,471.16385,225.73874Z" transform="translate(0.19324 -18.66392)"/><path class="cls-8" d="M471.77422,248.12545s.37177-.6.69013-11.30988a36.31024,36.31024,0,0,0-.5091-8.16509,23.52,23.52,0,0,0-.7914-2.91174c-.12208-.1734-.23444-.36553-.36137-.52853,0,0-1.70592,18.06766-3.31958,22.66139.09086.01179.1734.05618.26565.06034" transform="translate(0.19324 -18.66392)"/><path d="M465.57584,231.169c-.10682-4.16369-1.41322-5.70349-1.90464-6.14254v18.2577a6.53329,6.53329,0,0,0,.85383-.55627C465.31331,241.28237,465.70727,236.29121,465.57584,231.169Z" transform="translate(0.19324 -18.66392)"/><path class="cls-2" d="M381.50049,240.91009c-25.03709,1.30319-56.58266,14.19581-56.58266,14.19581s-6.75908,1.03985-7.019-25.00224,9.09876-27.42025,9.09876-27.42025,33.53543.16962,56.67227,30.3255L389.649,239.768l-1.76522.37287A41.19712,41.19712,0,0,1,381.50049,240.91009Z" transform="translate(0.19324 -18.66392)"/><path class="cls-8" d="M343.82023,248.49669c11.016-3.38605,25.16171-6.935,37.68026-7.5866a41.19712,41.19712,0,0,0,6.38328-.76923l1.76522-.37287-5.97918-6.75908a77.16073,77.16073,0,0,0-26.69611-22.15806,79.945,79.945,0,0,0-19.10971-6.73669s-2.63572,32.64187,4.11852,45.01936Z" transform="translate(0.19324 -18.66392)"/><path d="M364.87135,215.42745c1.44962,21.76717-4.67286,23.56943-4.67286,23.56943s-8.29163-2.05349-3.22479-28.146l2.28139,1.13969,1.62263.96759,2.31557,1.32813Z" transform="translate(0.19324 -18.66392)"/></svg>