<?xml version="1.0" encoding="utf-8"?>
<!-- Generator: Adobe Illustrator 22.1.0, SVG Export Plug-In . SVG Version: 6.00 Build 0)  -->
<svg version="1.1" id="Layer_1" xmlns="http://www.w3.org/2000/svg" xmlns:xlink="http://www.w3.org/1999/xlink" x="0px" y="0px"
	 viewBox="0 0 435 482" style="enable-background:new 0 0 435 482;" xml:space="preserve">
<style type="text/css">
	.st0{fill:#83A751;}
	.st1{fill:#7A994A;}
	.st2{fill:#7C9B4B;}
	.st3{fill:#FFFFFF;}
</style>
<g>
	<path class="st0" d="M51.4,286.8c3-35.9,14.6-64.8,27.5-86.8l-0.6,1l-26.9-14.7l-25.7,25L11.9,189c-0.4,2.6-0.8,5.4-1.2,8.2
		c0,0.8,2.5,51.4,18.8,90C40.4,280.5,51.4,286.8,51.4,286.8z"/>
	<path class="st0" d="M240,437.6c-12.4-8-53.6-20.6-53.6-20.6S140,398.3,137,380.3c-3-18-18.7-39.9-22.2-44.1
		c-1.3-1.5-4.2-3.8-7.5-6c-10.4,0-43.4,0.5-46.9,6.2c6.7,14.1,26,41.4,82,80.4c1.5,1,3.2,1.7,5,2.1c9.3,1.7,41.8,8.2,75.9,21.7
		l-0.1,0C223.5,440.5,235.6,438,240,437.6z"/>
	<path class="st0" d="M94.6,322C94.6,322,94.5,322,94.6,322c-0.1-0.1-30-15.2-41.4-27.4c-9.9-10.5-18.7-3.3-20.9-1.2
		c5.1,10.7,12.2,23.2,20.1,30c1.4,0.6,2.9,1.2,4.5,1.7c0,0,0,1.8,1.2,5.2C61,323.5,85.7,322.3,94.6,322z"/>
	<path class="st0" d="M38.1,311.2c-10-12.9-18.7-31.4-18.7-31.4c-11.3-41.6-10.4-68.3-9.3-78.2c-2.6,19.5-4.5,43.1-4.8,70.2
		c0,0,4.1,30.7,40.9,48.9C43,318.6,40.4,314.1,38.1,311.2z"/>
	<path class="st0" d="M48.9,179.8L34,142.5L18.7,155l2.7-10.1c-2.2,7.7-5.2,19.7-8,35.6l13.8,22.1L48.9,179.8z"/>
	<path class="st0" d="M51.6,323.2l-3.5-1.6C49.2,322.1,50.4,322.7,51.6,323.2z"/>
	<path class="st0" d="M12,188.3l1.2-7.1C12.8,183.4,12.4,185.8,12,188.3z"/>
	<path class="st0" d="M60.3,336.2l-2.3-5.7C58.5,332.1,59.2,334,60.3,336.2z"/>
	<path class="st0" d="M336.6,436.2c-20.6,5.7-35.5-22.8-35.5-22.8c-8.8,13.4-22.1,20.9-34.6,25.2l0.1,0c0,0,23.4,12.6,53,14.6
		C331.7,444.9,336.6,436.2,336.6,436.2z"/>
	<path class="st0" d="M426.8,441.6c-10.6-10.2-39-20.3-39-20.3c-15.9-19.5-39-29.3-39-29.3c-4.5-13-35.8-36.6-35.8-36.6
		c-6.1-22.8-44.7-52.4-44.7-52.4c-6.1-28.5,24-59.3,34.5-72.3c10.6-13,5.3-19.9,5.3-19.9c-103.2-42.7-135.7-97.1-135.7-97.1
		s-43.1-64.2-43.9-91.4C127.6-5,108.3,0.5,108.3,0.5c-2.2,0-32.5,2.2-42,52.4c0,0-23.8,68.3-41.7,81.8c0,0-1.3,3.5-3.2,10.2
		l16.4-8.7c14.1,27.4,16.4,43.8,16.4,43.8l27.4,15.8l-0.4,0.6c19.5-31.4,41.1-47.3,41.1-47.3l1,9.5c-14.4,12.9-26.4,26.5-35,39.9
		c0.2,0.1,64.8,48.1,75.5,60c5.8,6.4-40,77.9-40,77.9c3.9,5.2,17.2,25,17.2,25c10.1,36.3,35.7,43.4,35.7,43.4
		c42.2,13.1,67.7,27.5,67.7,27.5l8.4,3.4c25.3-5.7,63.9-24.9,54.1-88.1l5.3,9.7c0,0,8.8,20.6-7.2,49.7l0.1-0.1
		c0,0,13.9,31.4,36,22.2c0,0,14.9-17.8,8.9-35l6.2,5.2c0,0,1.3,17-9.1,33.6c0,0,21.5,28,36.3,5.9l5-14.3l2.6-0.7
		c0,0-7.3,28.1-24.4,46.7l-9.1,3c-28.5,0.4-38.7-14-38.7-14c-1.9,2.6-18.1,10.3-18.1,10.3c8.1,4.3,28.1,12.7,59.3,9.9
		c41.5-3.6,52.3-0.3,70.5-35.6L426.8,441.6z"/>
	<path class="st0" d="M323.7,456.1c0,0,16.2,18,44.2,11.5c0,0,10.7-9.2,13.2-18.2c0,0-21.5,9.7-36.6-10.8l-1.7-3.1
		C342.8,435.5,328.6,452.9,323.7,456.1z"/>
	<path class="st0" d="M258.3,440.9L258.3,440.9c-14.3,3.5-25.6,3.8-25.6,3.8c7.9,4.5,35.9,19.5,60.9,22.1c3.9-1.1,11.6-6.1,14.8-7.5
		C277.3,452.4,258.3,440.9,258.3,440.9z"/>
	<path class="st0" d="M83.8,205.6c-26.5,46-24.4,87.5-24.4,87.5c11.8,7.1,58.6,35.4,58.6,35.4c27.7-44.9,34.3-67.4,34.3-67.4
		C134.8,241.9,84,205.8,83.8,205.6z"/>
	<path class="st1" d="M58,330.4L58,330.4C58,330.5,58,330.5,58,330.4C58,330.4,58,330.4,58,330.4z"/>
	<path class="st1" d="M47.8,321.5l0.3,0.2c-0.6-0.3-1.2-0.6-1.8-0.9C46.7,321,47.2,321.3,47.8,321.5z"/>
	<path class="st1" d="M52.3,323.5C52.3,323.5,52.3,323.5,52.3,323.5c-0.3-0.1-0.5-0.2-0.7-0.3L52.3,323.5z"/>
	<path class="st1" d="M60.3,336.3C60.3,336.3,60.3,336.3,60.3,336.3c0,0,0-0.1,0-0.1L60.3,336.3z"/>
	<path class="st1" d="M223.2,440.5l9.5,4.3l0,0c-1.4-0.8-2.2-1.3-2.2-1.3C228,442.4,225.6,441.4,223.2,440.5z"/>
	<path class="st1" d="M13.3,180.5l-0.1,0.6C13.3,180.9,13.3,180.7,13.3,180.5L13.3,180.5z"/>
	<path class="st1" d="M11.9,189L11.9,189c0-0.3,0.1-0.5,0.1-0.8L11.9,189z"/>
	<path class="st1" d="M21.4,144.8l0,0.1C21.4,144.9,21.4,144.8,21.4,144.8L21.4,144.8z"/>
	<path class="st1" d="M10.7,197.2c0,0-0.3,1.5-0.6,4.4C10.3,200.1,10.5,198.7,10.7,197.2C10.7,197.2,10.7,197.2,10.7,197.2z"/>
	<path class="st2" d="M318.8,459.3c0,0,10.2,14.4,38.7,14l10.6-0.2c29.9-17.1,23.8-50.1,23.8-50.1l-4.2-1.6l-3.3,13.2
		c-0.9,3.6-2.7,6.9-5.6,9.3c-14.2,11.6-31.7-11.1-31.7-11.1c10.4-16.6,9.8-36.4,9.8-36.4l-8.2-4.2c6,17.2-7.6,36.8-7.6,36.8
		c-22.1,9.3-36-22.2-36-22.2l-0.1,0.1c16-29.1,7.2-49.7,7.2-49.7l-5.3-9.7c9.8,63.3-28.8,82.4-54.1,88.1l-8.4-3.4
		c0,0-25.4-14.5-67.7-27.5c0,0-25.6-7.1-35.7-43.4c0,0-13.2-19.8-17.2-25c0,0,45.8-71.5,40-77.9c-10.7-11.8-75.4-59.8-75.5-60
		c8.6-13.4,20.6-27,35-39.9l-1-9.5c0,0-21.6,15.9-41.1,47.3l0.4-0.6l-27.4-15.8c0,0-2.3-16.4-16.4-43.8l-16.3,8.7
		c0,0-0.1,0.1-0.1,0.2L18.7,155L34,142.5l14.8,37.3l-21.7,22.8l-13.8-22.1c0,0.2-0.1,0.4-0.1,0.6l-1.3,7.9c0,0,0,0,0,0l13.7,22.4
		l25.7-25L78.3,201l0.6-1c-13,21.9-24.6,50.9-27.5,86.8c0,0-11-6.2-22,0.5c-16.2-38.6-18.7-89.2-18.8-90c-0.2,1.4-0.4,2.9-0.6,4.3
		c-1,9.9-2,36.6,9.3,78.2c0,0,8.6,18.5,18.7,31.4c2.3,3,4.8,7.5,8.2,9.5c0.6,0.3,1.2,0.6,1.8,0.9l3.5,1.6c0.2,0.1,0.5,0.2,0.7,0.3
		c-7.9-6.9-15-19.3-20.1-30c2.2-2.1,11-9.3,20.9,1.2C64.6,306.8,94.5,322,94.5,322s0.1,0,0.1,0.1c-8.8,0.2-33.4,1.5-36.6,8.3
		c0,0,0,0.1,0,0.2l2.3,5.7c0.1,0,0.1,0,0.1,0c3.8-5.6,36.5-6.1,46.9-6.1c3.3,2.3,6.3,4.5,7.5,6c3.5,4.2,19.1,26.2,22.2,44.1
		c3,18,49.5,36.6,49.5,36.6s41.1,12.7,53.6,20.6c-4.4,0.4-16.5,2.9-16.9,2.8l0.1,0c2.4,1,4.9,1.9,7.3,3c0,0,0.8,0.5,2.2,1.3
		c0,0,11.3-0.4,25.7-3.8l-0.1,0c0,0,19,11.5,50.1,18.4c-3.2,1.4-11,6.4-14.8,7.5c1,0.1,2.1,0.2,3.1,0.3c0,0,1.4,1,4,2.4
		C300.7,469.5,316.9,461.9,318.8,459.3z M59.4,293.1c0,0-2.2-41.5,24.4-87.5c0.2,0.1,51,36.2,68.5,55.6c0,0-6.6,22.5-34.3,67.4
		C118,328.6,71.2,300.3,59.4,293.1z M342.8,435.5l1.7,3.1c15.1,20.6,36.6,10.8,36.6,10.8c-2.5,9-13.2,18.2-13.2,18.2
		c-28,6.4-44.2-11.5-44.2-11.5C328.6,452.9,342.8,435.5,342.8,435.5z M266.6,438.5l-0.1,0c12.5-4.2,25.8-11.8,34.6-25.2
		c0,0,14.9,28.5,35.5,22.8c0,0-4.9,8.7-17,16.9C290,451.1,266.6,438.5,266.6,438.5z"/>
</g>
<g>
	<path class="st3" d="M169.3,142.3c0.2,1.1,0.3,2.2,0.3,3.4c0,8.7-5.5,15.7-12.3,15.7c-6.8,0-12.3-7-12.3-15.7
		c0-5.1,1.9-9.6,4.8-12.5c-11.4-3.2-21.2-2.7-23.8-2.5c-2.5,5.4-3.9,11.6-3.9,18.3c0,20.6,13.6,37.4,30.3,37.4
		c14.9,0,27.3-13.2,29.8-30.7C178.5,150.1,174,145.7,169.3,142.3z"/>
	<path d="M145,145.7c0,8.7,5.5,15.7,12.3,15.7c6.8,0,12.3-7,12.3-15.7c0-1.2-0.1-2.3-0.3-3.4c-6.3-4.5-13.1-7.4-19.4-9.1
		C147,136.1,145,140.6,145,145.7z"/>
	<path class="st1" d="M152.6,111.6c-11.4,0-21.2,7.7-26.4,19.1c2.5-0.2,12.3-0.6,23.8,2.5c6.3,1.7,13,4.6,19.4,9.1
		c4.7,3.4,9.2,7.8,13.1,13.3c0.3-2.2,0.5-4.4,0.5-6.7C182.9,128.3,169.3,111.6,152.6,111.6z"/>
</g>
</svg>
