<?xml version="1.0" encoding="utf-8"?>
<!-- Generator: Adobe Illustrator 22.1.0, SVG Export Plug-In . SVG Version: 6.00 Build 0)  -->
<svg version="1.1" id="Layer_1" xmlns="http://www.w3.org/2000/svg" xmlns:xlink="http://www.w3.org/1999/xlink" x="0px" y="0px"
	 viewBox="0 0 500 500" style="enable-background:new 0 0 500 500;" xml:space="preserve">
<style type="text/css">
	.st0{fill:#A6D1DF;}
	.st1{fill:#85BAC6;}
	.st2{fill:#E4D3B1;}
	.st3{fill:#AC796B;}
	.st4{fill:#C6B597;}
	.st5{fill:#FFFFFF;}
	.st6{fill:#2C2F2D;}
	.st7{fill:#86A0CA;}
	.st8{fill:#6B88AA;}
	.st9{fill:#653A32;}
	.st10{fill:#01040C;}
</style>
<path class="st0" d="M242.6,109.5c0,0,37.9-92.5,97.4-93c0,0,5.9,25.6-24.1,56.1c0,0,13.3-16.2,18-16.7c4.6-0.5,4.1,37.9-8.7,53.6
	c-12.8,15.7-24.6,30.5-24.6,30.5l1,18.8c0,0-1.7,5.6-23.9,11.1C255.4,175.4,242.6,109.5,242.6,109.5z"/>
<path class="st0" d="M95.7,157.3c0,0-36.6-14.4-22.6-47.7c0,0,10.7-1,15.7,8c0,0-28.5-52.2-6-74.6v9c0,0-0.2-50.9,19-47.4
	s31.6,73,25.2,97.3C120.7,126.3,95.7,157.3,95.7,157.3z"/>
<path class="st0" d="M352.9,217.7c0,0,9.3-88.5,79-72.7c60.4,13.7,35,65.2,35,65.2l-12.7,10.5c0,0,17.8,16.2,15.4,46
	c0,0,47.3,24.7,15.1,79.6s-59,65.8-97.9,74.8s-40.3-36.3-40.3-36.3l5.8-73.1L332.1,247L352.9,217.7z"/>
<path class="st1" d="M309.2,36.7c-45.1,38.6-49.3,70.7-49.3,70.7l3.4,4.8c0,0-1.1-23.9,48.2-73.2L309.2,36.7z"/>
<path class="st1" d="M112,112.3c5-32.1-10.2-80.1-10.2-80.1l3.6-2c0,0,14.9,36.1,11.7,76.8L112,112.3z"/>
<path class="st1" d="M370.2,389.4c35.3,1.4,67-48.1,67-48.1l-5.3-2.2c-26.3,44.6-65.6,44.7-65.6,44.7L370.2,389.4z"/>
<path class="st1" d="M439.6,265.7c22.3-6.6,30.1,1.1,30.1,1.1l0.2-5.6c0,0-26.2-11.8-43.4,7.9c-1.6,1.8-2.9,3.8-4,5.9
	c1-5.6,1.2-9.3,1.2-9.3l-0.3-43.7c12,5.7,32.8,0.9,32.8,0.9l-2.1-2.2l-6.4-0.2l-9.4-0.3c-30.4,0.1-25.6-26.9-25.6-26.9
	c6-18.1,17.5-11.3,22.2-7.5c1.2,1,3,0.8,4-0.4l0.4-0.4c0.8-1,1-2.4,0.3-3.5c-2.8-4.5-9.4-6.6-12.5-7.4c-1.1-0.3-2.1-0.3-3.2-0.2
	c-3.2,0.5-9.5,2.4-14,7.8c-2.7,3.2-5.4,7.2-4.8,13.5c1.9,20.4,12.6,25.6,12.6,25.6l-0.5,30.2c-1.4,62.5-31.7,61.1-31.7,61.1l4.9,8.5
	c15.5-2.4,23.9-17,28.4-30.5c0,2.4,0.2,4.7,0.6,7.1c2,10.1,7.8,21.8,24.3,20.3c22.9-2.1,19-21,16.6-28.4c-0.6-1.9-2.2-3.4-4.2-3.9
	c-5.2-1.3-15.4-2.4-18.1,6.7c0,0,4.2,4.9,10.4-0.4c6.2-5.3,10.8,12.9,0,18.1c-12.4,6-19.4-2.4-19.4-2.4c-3-2.4-4.1-8.2-4.6-12
	C423.3,286.4,423.5,270.5,439.6,265.7z"/>
<g id="Body_shell">
	<path class="st2" d="M366.3,319.4l-0.6,15.7c0-0.6,0.1-1.3,0.1-1.9C366,329.1,366.2,324.4,366.3,319.4z"/>
	<path class="st3" d="M363.8,367.1l0.7,0l1.2-32c-0.3,5.8-0.5,11.5-0.7,17.3C364.9,356.2,364.6,361.3,363.8,367.1z"/>
	<path class="st2" d="M331.7,349.6L319.9,325l-4.1-40.8l-32.5-80.1l12.8-14.4c-0.8-4.8-3.7-17.3-14.1-22.2l-151,83.2
		c0,0-31.4,41.1,6.8,113.4s84.6,78.5,159.1,72.3c49.6-4.1,63.3-43.5,66.9-69.4l-12,0.8L331.7,349.6z"/>
	<path class="st4" d="M221.6,394.1L221.6,394.1c0.1,0-8.8-11-16.2-35.9c64.8,2.9,109.7-29.5,109.7-29.5l-1-10.1
		c-40.3,26.7-79.7,33.5-110.8,31.7c-4.3-17.2-7.7-39.8-7.7-68.7h-10.2c0,0,0.9,34.3,9.4,68c-42.1-4.6-72.1-23.9-72.1-23.9l3.3,11.1
		c25.4,13,48.9,18.8,71,20.8c3.8,13,8.8,25.4,15.4,35.4c0,0,0,0,0,0c-9.4-1.1-29.6,23.6-29.6,23.6l5.3,5.8
		c24.2-25.7,30.2-21.7,30.2-21.7c34.3,6.3,66.7,16,66.7,16l-1.5-7.3C251.8,399,233,395.6,221.6,394.1z"/>
	<g>
		<path class="st3" d="M332.1,294.4l-1.6-10.1h20.2c0,0,7.3,0.9,12.5,3.2c1.5,0.7,2.7,1.5,3.6,2.4c-4.4-68.4-70.5-100.4-70.5-100.4
			l-0.2,0.2l-12.8,14.4l32.5,80.1l4.1,40.8l11.8,24.6l20.2,18.3l12-0.8c0.8-5.8,1.1-10.9,1.2-14.7c0.1-5.8,0.4-11.5,0.7-17.3
			l0.6-15.7l0.6-15.3c-0.3-0.2-0.6-0.5-1-0.7C357.8,298.6,332.1,294.4,332.1,294.4z"/>
		<path class="st3" d="M366.8,290c-0.9-0.9-2.2-1.7-3.6-2.4c-5.2-2.4-12.5-3.2-12.5-3.2h-20.2l1.6,10.1c0,0,25.8,4.2,33.8,9
			c0.4,0.2,0.7,0.5,1,0.7l0.3-6.9C367.1,294.7,367,292.3,366.8,290z"/>
	</g>
	<path class="st5" d="M282,166.9c0,0,12.6,6.3,15.2,28c2.6,21.7,4.3,46.3,36.7,97.2v25.8c0,0,13.8,39.7,30.6,49.2
		c0,0,1.9,8.5-3.4,10.3l-30.7-10.7l-3-12c0,0-17-7.4-12.8-59.2l-35.9-79.8l-3.8-6.8v-38L282,166.9z"/>
</g>
<path id="Neck" class="st6" d="M129.9,254.8c0,0,38,8,55.5,26.8h10.2c0,0,42.5-16.2,67.9-52.4s-107-3.7-107-3.7l-22.9,6.3l-11,14.1
	L129.9,254.8z"/>
<path class="st7" d="M137.8,364.1c0,0-47.9,30.5-35.7,86.6l-15.6,16.7h23.4c0,0,4.1,13.4,8.9,17.8l19-11.1c0,0,7.4-4.5,16.7,11.1
	c0,0,32.3-48,47.6-56.2C202.1,429.1,159,407.4,137.8,364.1z"/>
<path class="st7" d="M290,426.4c12.3,16.7,31.2,48.1,19,68.8c0,0,27-20.3,50,4.8c0,0,18.2-30.6,47.9-8.2c0,0-17.1-113.6-74.6-136.3
	c-3.5-1.4-7.5-1.3-11,0.2c-9.3,4-27.4,14.6-36.1,39.4C281.5,405.7,283.4,417.4,290,426.4z"/>
<path class="st7" d="M132.9,251.5c0,0-14.8,24.1-14,48.8c0,1.4,0.1,2.8,0.2,4.2c0.1,0.8,0.2,2.4,0.2,2.4s-83.2,1.8-113.1-32.4
	l0.1-8.1l20.9-20.9c1.6-1.8,2.4-0.3,2.4-0.3l2.6-1.5c2.6,0,5.1-0.7,7.3-2.1c9.5-6.1,39.4-22.7,74.9-16.8
	C157.6,232.1,132.9,251.5,132.9,251.5z"/>
<path class="st7" d="M405.1,257.4c-30.8,35.6-107.2,39.8-107.2,39.8c-56.4-21.7-31.2-77.3-31.2-77.3s8-8.8,40.7-7.2
	c32.7,1.5,87.6,7.1,99.2,37.5L405.1,257.4z"/>
<path class="st8" d="M94.5,203.4c0,0-6,33.1,17.1,43.5c20.6,9.3,44.9,19.8,44.9,19.8s92.3,10.1,118.3-57.9c26-68-27-114.9-27-114.9
	s-59-43-119.4,3.3S94.5,203.4,94.5,203.4z"/>
<path class="st5" d="M238.7,233.2c0,0,0.2,14.4-5.8,19.7c0,0-9.3-6.6-11.2-12.9L238.7,233.2z"/>
<path class="st5" d="M109.6,229.2c0,0-0.7,8.1,4,15.4c0,0,5.8-7,5.4-11.4S109.6,229.2,109.6,229.2z"/>
<path d="M104.9,220.9c0,0,49.4,55.3,151.1,4.1v4.4c-101.6,51.1-151.9-3.1-151.9-3.1L104.9,220.9z"/>
<path class="st5" d="M52.5,269.3c0,0-21.6,9.7-25.2,17.6c0,0,11.2,5.4,28.5,2c0,0,9.7-11.2-1.5-19.6H52.5z"/>
<path class="st5" d="M42.3,249.2c0,0-15.1,12.8-16.5,25.3c0,0-9.9-16.5,2.5-30.1C28.3,244.4,40.6,239,42.3,249.2z"/>
<path class="st5" d="M16.8,259.4c0,0-4.9,16.5,0,22.2c0,0-9.3,1-11.9-10.2c-0.4-1.8,0-3.7,1-5.2C8.2,262.7,12.9,256.7,16.8,259.4z"
	/>
<path class="st5" d="M359,273c-9.7-11,8.6-20.1,8.6-20.1s9.6,2.8,15.3,19.6l-16.4,3.1C363.9,276,360.9,275.1,359,273z"/>
<path class="st5" d="M382.6,227.1c0,0,21.8,15.8,7.6,39.8c0,0-3.8-14.2-19.4-22.9C370.9,244,365.3,230.9,382.6,227.1z"/>
<path class="st5" d="M396.8,236.3c4.1,3.7,19.8,18.5,2.6,30.5c0,0,1.9-11.5-2.9-18.8c-0.5-0.7-0.8-1.5-0.8-2.3v-9
	C395.8,236.3,396.4,236,396.8,236.3z"/>
<path class="st5" d="M107.6,223.6"/>
<g>
	<path class="st5" d="M195.1,189.3l1.1-3C195.7,187.3,195.4,188.3,195.1,189.3z"/>
	<path class="st5" d="M197.9,217.7l-1-1.2C196.9,216.5,197.3,217,197.9,217.7z"/>
	<line class="st5" x1="211.2" y1="227.1" x2="207.6" y2="225.6"/>
	<path class="st5" d="M226,158.8l-29.9,27.5l2.3-2.1l5.2-4.8l6.2-5.7l3.1-2.9h3c0,0,14.7,23,2.4,52.2l-2.3,5
		c5.7,0.3,12.1-2.4,18.1-11.5C251.2,190.6,226,158.8,226,158.8z"/>
	<line class="st5" x1="215.7" y1="228" x2="211.3" y2="227.1"/>
	<polyline class="st5" points="207.6,225.5 204.3,223.5 201,220.9 	"/>
	<polygon class="st9" points="211.3,227.1 211.3,227.1 211.2,227.1 	"/>
	<polygon class="st9" points="197.9,217.7 197.9,217.7 197.9,217.7 	"/>
	<path class="st9" d="M201,220.8L201,220.8C201,220.8,201,220.8,201,220.8L201,220.8z"/>
	<path class="st9" d="M207.6,225.6L207.6,225.6C207.6,225.5,207.6,225.5,207.6,225.6L207.6,225.6z"/>
	<path class="st9" d="M216,228.1L216,228.1c-0.1,0-0.2-0.1-0.3-0.1L216,228.1z"/>
	<polygon class="st9" points="195.7,213.4 195.7,213.4 195.7,213.4 	"/>
	<path class="st9" d="M193.8,205L193.8,205C193.8,205,193.8,204.9,193.8,205L193.8,205z"/>
	<path class="st9" d="M195,189.4l-0.6,2.2l0,0.1C194.6,190.9,194.8,190.1,195,189.4L195,189.4z"/>
	<path class="st9" d="M194.8,210.3L194.8,210.3C194.8,210.4,194.8,210.3,194.8,210.3L194.8,210.3z"/>
	<path class="st9" d="M216,170.8h-3l-3.1,2.9l-6.2,5.7l-5.2,4.8l-2.3,2.1l-1.1,3c-0.2,0.8-0.4,1.6-0.6,2.3l-0.6,4.4v4.3v4.5
		c0,0,0,0,0,0l1,5.3c0,0,0,0.1,0,0.1l0.9,3l0,0l1.2,3.1l1,1.2l0,0l3.1,3.1c0,0,0,0,0,0l3.2,2.6l3.3,2.1c0,0,0,0,0,0l3.6,1.6
		c0,0,0,0,0,0l4.4,0.9c0.1,0,0.2,0,0.3,0l2.3-5C230.7,193.8,216,170.8,216,170.8z M213.3,213.4c-11.5-4.4-7.1-22.8-7.1-22.8
		s0.1-0.5,0.2-1.1c-2.2-1-3.7-3.3-3.7-5.8c0-3.6,2.9-6.5,6.5-6.5c3.6,0,6.5,2.9,6.5,6.5c0,3-2,5.4-4.7,6.2
		C216.6,205.3,213.3,213.4,213.3,213.4z"/>
	<path d="M206.4,189.5c-0.2,0.6-0.2,1.1-0.2,1.1s-4.4,18.4,7.1,22.8c0,0,3.4-8.1-2.3-23.5c-0.6,0.2-1.2,0.3-1.8,0.3
		C208.2,190.2,207.3,189.9,206.4,189.5z"/>
	<path class="st5" d="M215.7,183.7c0-3.6-2.9-6.5-6.5-6.5c-3.6,0-6.5,2.9-6.5,6.5c0,2.6,1.5,4.8,3.7,5.8c0.5-2.2,2-6.4,4.4-0.1
		c0.1,0.2,0.1,0.3,0.2,0.5C213.7,189.1,215.7,186.6,215.7,183.7z"/>
	<path class="st5" d="M206.4,189.5c0.8,0.4,1.8,0.7,2.8,0.7c0.6,0,1.2-0.1,1.8-0.3c-0.1-0.2-0.1-0.3-0.2-0.5
		C208.5,183.1,207,187.4,206.4,189.5z"/>
</g>
<path d="M230.2,150.2l3.8,4.1c0,0-35.2,38.1-51.3,47.5s-12.6-13.1-12.6-13.1l1.5-8.1c0,0,1.6,18.9,8.4,14.9c0,0,10.7-7.6,19.1-14.4
	C214.2,168.7,230.2,150.2,230.2,150.2z"/>
<path class="st5" d="M102.9,163.4c0,0-8.8,56.1,24.2,63v-35.8L102.9,163.4z"/>
<path class="st9" d="M112.4,174.1c0,0-5.8,41.6,14.6,52.2v-35.8L112.4,174.1z"/>
<path class="st10" d="M120,182.5c0,0-5.1,24.7,7.1,33.1v-25.1L120,182.5z"/>
<circle class="st5" cx="117.1" cy="187.8" r="5.5"/>
<path d="M97.8,162.1c0,0,21.9,34.2,38.7,37c0,0,6.6-8.4-1.8-14.7c0,0,1.9,10.6-3.9,7.3c-2.2-1.3-8.5-6.4-13.2-11.8
	c-2-2.3-5.1-5.5-6.9-7.8c-5.5-6.9-8.8-13.2-8.8-13.2L97.8,162.1z"/>
</svg>
